<svg xmlns="http://www.w3.org/2000/svg"><style>:root svg:not(:target){display:none}</style><svg fill="none" opacity=".4" id="crown" viewBox="0 0 51 50"><path d="M7.897 42.333c-9.634-9.634-9.634-25.308 0-34.942s25.308-9.634 34.942 0c9.634 9.633 9.634 25.308 0 34.942-9.634 9.633-25.308 9.633-34.942 0ZM41.675 8.555c-8.992-8.992-23.621-8.992-32.61 0-8.993 8.992-8.993 23.621 0 32.61 8.991 8.993 23.62 8.993 32.61 0 8.992-8.991 8.992-23.62 0-32.61Z" fill="#fff"></path><path d="M41.944 19.62a.812.812 0 0 1-.197-.318 17.098 17.098 0 0 0-4.15-6.67 17.135 17.135 0 0 0-6.67-4.15.824.824 0 0 1-.56-.78V1.697a.822.822 0 0 1 1.021-.799 24.652 24.652 0 0 1 11.448 6.493 24.68 24.68 0 0 1 6.49 11.447.82.82 0 0 1-.799 1.024h-6.005a.822.822 0 0 1-.583-.244l.005.003Zm-3.182-8.153a18.774 18.774 0 0 1 4.346 6.748h4.344a23.039 23.039 0 0 0-5.778-9.66 23.015 23.015 0 0 0-9.657-5.775v4.344a18.712 18.712 0 0 1 6.747 4.346l-.002-.003ZM7.897 42.333a24.673 24.673 0 0 1-6.492-11.448.82.82 0 0 1 .799-1.021h6.004c.354 0 .668.225.78.56a17.098 17.098 0 0 0 4.15 6.67 17.134 17.134 0 0 0 6.67 4.15c.335.112.56.426.56.78v6.004a.826.826 0 0 1-1.024.799 24.68 24.68 0 0 1-11.447-6.49v-.004ZM3.284 31.509a23.038 23.038 0 0 0 5.777 9.66 23.038 23.038 0 0 0 9.66 5.777v-4.344a18.737 18.737 0 0 1-6.748-4.344 18.775 18.775 0 0 1-4.346-6.747H3.284v-.002ZM30.609 48.607a.822.822 0 0 1-.242-.584v-6.005c0-.353.225-.667.56-.78a17.096 17.096 0 0 0 6.67-4.149 17.125 17.125 0 0 0 4.15-6.67.822.822 0 0 1 .78-.56h6.005a.82.82 0 0 1 .799 1.022 24.704 24.704 0 0 1-6.492 11.447A24.653 24.653 0 0 1 31.39 48.82a.827.827 0 0 1-.705-.15c-.026-.023-.052-.044-.075-.068l-.002.005Zm1.405-6.008v4.344a23.038 23.038 0 0 0 9.66-5.777 23.063 23.063 0 0 0 5.778-9.66h-4.344a18.732 18.732 0 0 1-4.346 6.748 18.741 18.741 0 0 1-6.748 4.346ZM1.62 19.62a.824.824 0 0 1-.216-.782A24.652 24.652 0 0 1 7.898 7.39 24.684 24.684 0 0 1 19.345.898a.827.827 0 0 1 .705.15c.199.157.316.396.316.65v6.004a.822.822 0 0 1-.56.78 17.097 17.097 0 0 0-6.67 4.15 17.134 17.134 0 0 0-4.15 6.67.822.822 0 0 1-.78.56H2.203a.826.826 0 0 1-.584-.24l.003-.002Zm17.1-16.84a23.04 23.04 0 0 0-9.66 5.777 23.063 23.063 0 0 0-5.778 9.66h4.343a18.733 18.733 0 0 1 4.347-6.747 18.775 18.775 0 0 1 6.747-4.347V2.78Z" fill="#fff"></path><path d="M38.764 11.467c-7.385-7.385-19.404-7.387-26.789 0-7.387 7.387-7.385 19.404 0 26.789 7.385 7.385 19.402 7.387 26.789 0 7.387-7.387 7.385-19.404 0-26.789Z" fill="#fff"></path><path d="m32.199 31.623-13.607.09a1.038 1.038 0 0 0-1.031 1.045l.003.485a1.038 1.038 0 0 0 1.045 1.03l13.607-.09a1.038 1.038 0 0 0 1.03-1.044l-.002-.485a1.038 1.038 0 0 0-1.045-1.031ZM20.445 23.409c-.147 0-.297-.033-.433-.098l-1.061-.514a.98.98 0 0 1-.48-1.246l.487-1.213a.977.977 0 0 1 1.391-.486l1.265.722a.977.977 0 0 1 .322 1.406l-.694 1.005a.973.973 0 0 1-.799.422l.002.002ZM30.242 23.343a.981.981 0 0 1-.803-.412l-.687-.967a.98.98 0 0 1 .302-1.41l1.305-.767a.98.98 0 0 1 1.399.466l.492 1.179a.984.984 0 0 1-.464 1.253l-1.11.555a.988.988 0 0 1-.431.104h-.003Z" fill="#110A1D"></path><path d="M19.377 30.803a1.414 1.414 0 0 1-1.338-.932l-2.27-6.249a2.41 2.41 0 0 1-1.343.216 2.398 2.398 0 0 1-2.088-2.36 2.396 2.396 0 1 1 4.416 1.267l4.319 2.09 3.303-4.786a2.418 2.418 0 0 1-1.015-.818 2.384 2.384 0 0 1-.442-1.37 2.4 2.4 0 0 1 2.38-2.413c.059 0 .12 0 .178.004a2.401 2.401 0 0 1 2.226 2.212 2.388 2.388 0 0 1-1.038 2.158 2.17 2.17 0 0 1-.396.218l3.362 4.737 4.248-2.125a2.48 2.48 0 0 1-.19-.478 2.332 2.332 0 0 1-.086-.625 2.395 2.395 0 1 1 4.789-.03c.009 1.26-.97 2.319-2.229 2.405l-.15.005c-.243 0-.482-.033-.714-.103a2.323 2.323 0 0 1-.431-.18l-2.132 6.126a1.414 1.414 0 0 1-1.326.95l-12.034.079v.002Z" fill="#110A1D"></path></svg><svg fill="none" id="language" viewBox="0 0 20 20"><path d="M17.712 4.649C15.998 2.3 13.752.969 10.794.625A14.607 14.607 0 0 1 13.737 5.9c1.383-.286 2.693-.659 3.975-1.251ZM5.313 6.904c-.525-.138-1.036-.271-1.538-.426-.45-.145-.892-.311-1.335-.477-.25-.094-.5-.187-.751-.277-1.486 2.612-1.347 6.32-.008 8.508.749-.235 1.491-.47 2.24-.708h.002l2.04-.645a14.34 14.34 0 0 1 .008-5.802c-.223-.06-.442-.117-.658-.173ZM16.182 6.448c-.713.227-1.428.454-2.145.68.395 1.917.38 3.863 0 5.743 1.45.461 2.862.907 4.29 1.354 1.405-2.407 1.39-6.065 0-8.457l-2.145.68ZM7.15 12.784c-.41-1.859-.396-3.68-.023-5.502.299.018.592.039.881.06.677.047 1.333.094 1.989.094.655 0 1.311-.047 1.987-.095.29-.02.584-.041.882-.059.402 1.793.388 3.629-.007 5.494-1.918-.248-3.792-.263-5.71.008ZM17.712 15.344c-1.699 2.348-3.953 3.673-6.91 4.031 1.361-1.595 2.335-3.321 2.928-5.267 1.376.263 2.679.658 3.982 1.236ZM9.199.625C6.242.976 3.987 2.308 2.23 4.729c1.376.424 2.672.827 4.012 1.244C6.864 3.946 7.83 2.227 9.199.625ZM9.199 19.375c-2.95-.351-5.197-1.675-6.969-4.104l1.296-.4h.002c.91-.282 1.802-.558 2.714-.836a14.59 14.59 0 0 0 2.957 5.34ZM12.551 6.075a13.015 13.015 0 0 0-2.555-4.58c-1.17 1.383-2.02 2.876-2.547 4.58 1.72.227 3.39.234 5.102 0ZM10.004 18.504a12.92 12.92 0 0 1-2.555-4.572 18.67 18.67 0 0 1 5.11-.007 13.21 13.21 0 0 1-2.555 4.58Z" fill="#9DADF2"></path></svg><svg fill="none" opacity=".2" id="money" viewBox="0 0 50 49"><path d="M20.236 20.172c0 .9.612 1.682 1.487 1.898l1.662.417V18.21H22.2c-1.08 0-1.96.88-1.96 1.96h-.005ZM26.522 30.786h1.184c1.08 0 1.96-.88 1.96-1.96 0-.9-.612-1.683-1.487-1.899l-1.662-.417v4.276h.005Z" fill="#478BF9"></path><path d="M24.954 4.567c-10.99 0-19.937 8.942-19.937 19.937 0 10.995 8.942 19.937 19.937 19.937 10.995 0 19.937-8.942 19.937-19.937 0-10.995-8.942-19.937-19.937-19.937Zm7.862 16.788h-3.144v-1.574c0-.865-.705-1.575-1.575-1.575h-1.574v5.063l2.424.607a5.097 5.097 0 0 1 3.863 4.95 5.11 5.11 0 0 1-5.104 5.104h-1.183v3.982H23.38V33.93h-1.575a4.721 4.721 0 0 1-4.718-4.718v-1.575h3.144v1.575c0 .864.704 1.574 1.574 1.574h1.575v-5.063l-2.424-.607a5.097 5.097 0 0 1-3.864-4.95 5.11 5.11 0 0 1 5.104-5.103h1.183V11.08h3.144v3.983h1.575a4.721 4.721 0 0 1 4.718 4.718v1.574Z" fill="#478BF9"></path><path d="M24.949.009c13.506 0 24.496 10.99 24.496 24.495C49.445 38.01 38.455 49 24.949 49 11.443 49 .453 38.01.453 24.504.453 10.998 11.443.01 24.949.01Zm0 47.227c12.533 0 22.73-10.198 22.73-22.732 0-12.533-10.197-22.73-22.73-22.73-12.534 0-22.731 10.197-22.731 22.73 0 12.534 10.197 22.732 22.73 22.732Z" fill="#478BF9"></path></svg><svg fill="none" id="shortcut-facebook" viewBox="0 0 27 27"><g clip-path="url(#shortcut-facebook_0)"><path fill-rule="evenodd" clip-rule="evenodd" d="M0 13.5C0 20.942 6.055 27 13.5 27 20.942 27 27 20.942 27 13.5S20.942 0 13.5 0 0 6.058 0 13.5Zm5.013-9.307A12.553 12.553 0 0 1 13.5.899c3.265 0 6.244 1.248 8.485 3.292l-1.002 1.002A11.139 11.139 0 0 0 13.5 2.32a11.139 11.139 0 0 0-7.485 2.875L5.013 4.193Zm-.822.822A12.553 12.553 0 0 0 .9 13.5c0 3.265 1.248 6.244 3.292 8.484l1.002-1.002A11.139 11.139 0 0 1 2.32 13.5c0-2.878 1.087-5.501 2.873-7.483L4.191 5.015Zm.822 17.791a12.552 12.552 0 0 0 8.487 3.295c3.265 0 6.243-1.248 8.484-3.291l-1.002-1.002A11.139 11.139 0 0 1 13.5 24.68a11.139 11.139 0 0 1-7.485-2.875l-1.002 1.002ZM26.1 13.5c0 3.267-1.25 6.247-3.295 8.488l-1.002-1.002A11.139 11.139 0 0 0 24.68 13.5c0-2.879-1.088-5.503-2.875-7.485l1.002-1.002A12.553 12.553 0 0 1 26.1 13.5Z" fill="currentColor"></path><path d="M15.25 9.743h1.057V7.954a14.688 14.688 0 0 0-1.541-.079c-1.53 0-2.577.934-2.577 2.644v1.474h-1.727v2.002h1.727v5.13h2.07v-5.13h1.721l.26-2.002h-1.98v-1.277c0-.59.157-.973.99-.973Z" fill="#110A1D"></path></g><defs><clipPath id="shortcut-facebook_0"><path fill="#fff" d="M0 0h27v27H0z"></path></clipPath></defs></svg><svg fill="none" id="shortcut-instagram" viewBox="0 0 27 27"><g clip-path="url(#shortcut-instagram_0)"><path fill-rule="evenodd" clip-rule="evenodd" d="M0 13.5C0 20.942 6.055 27 13.5 27 20.942 27 27 20.942 27 13.5S20.942 0 13.5 0 0 6.058 0 13.5Zm5.013-9.307A12.553 12.553 0 0 1 13.5.899c3.265 0 6.244 1.248 8.485 3.292l-1.002 1.002A11.139 11.139 0 0 0 13.5 2.32a11.139 11.139 0 0 0-7.485 2.875L5.013 4.193Zm-.822.822A12.553 12.553 0 0 0 .9 13.5c0 3.265 1.248 6.244 3.292 8.484l1.002-1.002A11.139 11.139 0 0 1 2.32 13.5c0-2.878 1.087-5.501 2.873-7.483L4.191 5.015Zm.822 17.791a12.552 12.552 0 0 0 8.487 3.295c3.265 0 6.243-1.248 8.484-3.291l-1.002-1.002A11.139 11.139 0 0 1 13.5 24.68a11.139 11.139 0 0 1-7.485-2.875l-1.002 1.002ZM26.1 13.5c0 3.267-1.25 6.247-3.295 8.488l-1.002-1.002A11.139 11.139 0 0 0 24.68 13.5c0-2.879-1.088-5.503-2.875-7.485l1.002-1.002A12.553 12.553 0 0 1 26.1 13.5Z" fill="currentColor"></path><path d="M13.5 8.016c1.49 0 1.676.005 2.26.033.585.027.982.119 1.332.255.362.139.667.328.972.632.279.274.495.606.632.972.136.35.228.747.255 1.331.026.585.033.77.033 2.261 0 1.49-.005 1.676-.033 2.26-.027.585-.12.982-.255 1.332a2.677 2.677 0 0 1-.632.972 2.694 2.694 0 0 1-.972.632c-.35.136-.747.228-1.331.255-.585.026-.77.033-2.261.033-1.49 0-1.676-.005-2.26-.033-.585-.027-.982-.12-1.332-.255a2.682 2.682 0 0 1-.972-.632 2.69 2.69 0 0 1-.632-.972c-.136-.35-.228-.747-.255-1.331-.026-.585-.033-.77-.033-2.261 0-1.49.005-1.676.033-2.26.027-.585.119-.982.255-1.332.137-.367.353-.698.632-.972.274-.28.606-.495.972-.632.35-.136.747-.228 1.331-.255.585-.026.77-.033 2.261-.033Zm0 2.742a2.742 2.742 0 1 0 0 5.484 2.742 2.742 0 0 0 0-5.484Zm3.565-.137a.686.686 0 1 0-1.372 0 .686.686 0 0 0 1.372 0ZM13.5 11.855a1.645 1.645 0 1 1 0 3.29 1.645 1.645 0 0 1 0-3.29Z" fill="#110A1D"></path></g><defs><clipPath id="shortcut-instagram_0"><path fill="#fff" d="M0 0h27v27H0z"></path></clipPath></defs></svg><svg fill="none" id="shortcut-linkedin" viewBox="0 0 27 27"><g clip-path="url(#shortcut-linkedin_0)"><path fill-rule="evenodd" clip-rule="evenodd" d="M0 13.5C0 20.942 6.055 27 13.5 27 20.942 27 27 20.942 27 13.5S20.942 0 13.5 0 0 6.058 0 13.5Zm5.013-9.307A12.553 12.553 0 0 1 13.5.899c3.265 0 6.244 1.248 8.485 3.292l-1.002 1.002A11.139 11.139 0 0 0 13.5 2.32a11.139 11.139 0 0 0-7.485 2.875L5.013 4.193Zm-.822.822A12.553 12.553 0 0 0 .9 13.5c0 3.265 1.248 6.244 3.292 8.484l1.002-1.002A11.139 11.139 0 0 1 2.32 13.5c0-2.878 1.087-5.501 2.873-7.483L4.191 5.015Zm.822 17.791a12.552 12.552 0 0 0 8.487 3.295c3.265 0 6.243-1.248 8.484-3.291l-1.002-1.002A11.139 11.139 0 0 1 13.5 24.68a11.139 11.139 0 0 1-7.485-2.875l-1.002 1.002ZM26.1 13.5c0 3.267-1.25 6.247-3.295 8.488l-1.002-1.002A11.139 11.139 0 0 0 24.68 13.5c0-2.879-1.088-5.503-2.875-7.485l1.002-1.002A12.553 12.553 0 0 1 26.1 13.5Z" fill="currentColor"></path><path d="M8.332 9.072c0-.409.34-.74.76-.74h8.817c.42 0 .759.331.759.74v8.856a.75.75 0 0 1-.76.74H9.092a.75.75 0 0 1-.759-.74V9.072Zm3.193 7.913v-4.668h-1.55v4.668h1.55Zm-.775-5.305c.54 0 .877-.358.877-.807-.01-.458-.336-.806-.867-.806-.53 0-.878.349-.878.806 0 .449.337.807.858.807h.01Zm3.17 5.305v-2.607c0-.14.01-.28.052-.379.112-.278.367-.567.796-.567.561 0 .786.428.786 1.056v2.497h1.55v-2.678c0-1.434-.764-2.1-1.785-2.1-.823 0-1.192.452-1.399.77v.016h-.01l.01-.016v-.66h-1.55c.02.438 0 4.668 0 4.668h1.55Z" fill="#110A1D"></path></g><defs><clipPath id="shortcut-linkedin_0"><path fill="#fff" d="M0 0h27v27H0z"></path></clipPath></defs></svg><svg fill="none" id="shortcut-telegram" viewBox="0 0 27 27"><g clip-path="url(#shortcut-telegram_0)"><path fill-rule="evenodd" clip-rule="evenodd" d="M0 13.5C0 20.942 6.055 27 13.5 27 20.942 27 27 20.942 27 13.5S20.942 0 13.5 0 0 6.058 0 13.5Zm5.013-9.307A12.553 12.553 0 0 1 13.5.899c3.265 0 6.244 1.248 8.485 3.292l-1.002 1.002A11.139 11.139 0 0 0 13.5 2.32a11.139 11.139 0 0 0-7.485 2.875L5.013 4.193Zm-.822.822A12.553 12.553 0 0 0 .9 13.5c0 3.265 1.248 6.244 3.292 8.484l1.002-1.002A11.139 11.139 0 0 1 2.32 13.5c0-2.878 1.087-5.501 2.873-7.483L4.191 5.015Zm.822 17.791a12.552 12.552 0 0 0 8.487 3.295c3.265 0 6.243-1.248 8.484-3.291l-1.002-1.002A11.139 11.139 0 0 1 13.5 24.68a11.139 11.139 0 0 1-7.485-2.875l-1.002 1.002ZM26.1 13.5c0 3.267-1.25 6.247-3.295 8.488l-1.002-1.002A11.139 11.139 0 0 0 24.68 13.5c0-2.879-1.088-5.503-2.875-7.485l1.002-1.002A12.553 12.553 0 0 1 26.1 13.5Z" fill="currentColor"></path><path d="M17.418 9.393s.956-.373.876.532c-.026.373-.265 1.678-.451 3.09l-.637 4.18s-.054.613-.532.72c-.478.106-1.195-.373-1.328-.48-.106-.08-1.992-1.278-2.656-1.864-.186-.16-.398-.48.027-.852l2.788-2.663c.32-.32.638-1.065-.69-.16l-3.718 2.53s-.425.266-1.222.027l-1.727-.533s-.637-.4.452-.799c2.656-1.252 5.923-2.53 8.818-3.728Z" fill="#110A1D"></path></g><defs><clipPath id="shortcut-telegram_0"><path fill="#fff" d="M0 0h27v27H0z"></path></clipPath></defs></svg><svg fill="none" id="shortcut-tiktok" viewBox="0 0 27 27"><g clip-path="url(#shortcut-tiktok_0)" fill-rule="evenodd" clip-rule="evenodd"><path d="M0 13.5C0 20.942 6.055 27 13.5 27 20.942 27 27 20.942 27 13.5S20.942 0 13.5 0 0 6.058 0 13.5Zm5.013-9.307A12.553 12.553 0 0 1 13.5.899c3.265 0 6.244 1.248 8.485 3.292l-1.002 1.002A11.139 11.139 0 0 0 13.5 2.32a11.139 11.139 0 0 0-7.485 2.875L5.013 4.193Zm-.822.822A12.553 12.553 0 0 0 .9 13.5c0 3.265 1.248 6.244 3.292 8.484l1.002-1.002A11.139 11.139 0 0 1 2.32 13.5c0-2.878 1.087-5.501 2.873-7.483L4.191 5.015Zm.822 17.791a12.552 12.552 0 0 0 8.487 3.295c3.265 0 6.243-1.248 8.484-3.291l-1.002-1.002A11.139 11.139 0 0 1 13.5 24.68a11.139 11.139 0 0 1-7.485-2.875l-1.002 1.002ZM26.1 13.5c0 3.267-1.25 6.247-3.295 8.488l-1.002-1.002A11.139 11.139 0 0 0 24.68 13.5c0-2.879-1.088-5.503-2.875-7.485l1.002-1.002A12.553 12.553 0 0 1 26.1 13.5Z" fill="currentColor"></path><path d="M14.354 8.374a.57.57 0 0 1 .57.57 2.278 2.278 0 0 0 2.278 2.278.57.57 0 0 1 0 1.139 3.417 3.417 0 0 1-2.278-.87v4.287a2.848 2.848 0 1 1-2.848-2.848.57.57 0 0 1 0 1.14 1.708 1.708 0 1 0 1.709 1.708V8.944a.57.57 0 0 1 .57-.57Z" fill="#110A1D"></path></g><defs><clipPath id="shortcut-tiktok_0"><path fill="#fff" d="M0 0h27v27H0z"></path></clipPath></defs></svg><svg fill="none" id="shortcut-twitter" viewBox="0 0 27 27"><g clip-path="url(#shortcut-twitter_0)"><path fill-rule="evenodd" clip-rule="evenodd" d="M0 13.5C0 20.942 6.055 27 13.5 27 20.942 27 27 20.942 27 13.5S20.942 0 13.5 0 0 6.058 0 13.5Zm5.013-9.307A12.553 12.553 0 0 1 13.5.899c3.265 0 6.244 1.248 8.485 3.292l-1.002 1.002A11.139 11.139 0 0 0 13.5 2.32a11.139 11.139 0 0 0-7.485 2.875L5.013 4.193Zm-.822.822A12.553 12.553 0 0 0 .9 13.5c0 3.265 1.248 6.244 3.292 8.484l1.002-1.002A11.139 11.139 0 0 1 2.32 13.5c0-2.878 1.087-5.501 2.873-7.483L4.191 5.015Zm.822 17.791a12.552 12.552 0 0 0 8.487 3.295c3.265 0 6.243-1.248 8.484-3.291l-1.002-1.002A11.139 11.139 0 0 1 13.5 24.68a11.139 11.139 0 0 1-7.485-2.875l-1.002 1.002ZM26.1 13.5c0 3.267-1.25 6.247-3.295 8.488l-1.002-1.002A11.139 11.139 0 0 0 24.68 13.5c0-2.879-1.088-5.503-2.875-7.485l1.002-1.002A12.553 12.553 0 0 1 26.1 13.5Z" fill="currentColor"></path><path d="M17.982 11.423v.316c0 3.18-2.323 6.823-6.574 6.823a6.257 6.257 0 0 1-3.533-1.089 4.528 4.528 0 0 0 3.42-.988 2.244 2.244 0 0 1-1.339-.473 2.387 2.387 0 0 1-.82-1.198c.145.032.292.048.439.048.205 0 .41-.029.608-.085a2.288 2.288 0 0 1-1.332-.832 2.448 2.448 0 0 1-.52-1.52v-.033c.32.186.68.288 1.046.297a2.382 2.382 0 0 1-.97-1.438 2.46 2.46 0 0 1 .243-1.738 6.614 6.614 0 0 0 2.127 1.78 6.37 6.37 0 0 0 2.64.727 2.087 2.087 0 0 1-.063-.55c-.017-.49.112-.973.369-1.384.256-.41.629-.73 1.067-.913.437-.183.919-.222 1.379-.11.46.11.875.366 1.19.73a4.635 4.635 0 0 0 1.468-.583 2.401 2.401 0 0 1-1.03 1.348c.458-.066.906-.2 1.328-.398a4.844 4.844 0 0 1-1.143 1.263Z" fill="#110A1D"></path></g><defs><clipPath id="shortcut-twitter_0"><path fill="#fff" d="M0 0h27v27H0z"></path></clipPath></defs></svg><svg fill="none" id="shortcut-vkontakte" viewBox="0 0 27 27"><g clip-path="url(#shortcut-vkontakte_0)"><path fill-rule="evenodd" clip-rule="evenodd" d="M0 13.5C0 20.942 6.055 27 13.5 27 20.942 27 27 20.942 27 13.5S20.942 0 13.5 0 0 6.058 0 13.5Zm5.013-9.307A12.553 12.553 0 0 1 13.5.899c3.265 0 6.244 1.248 8.485 3.292l-1.002 1.002A11.139 11.139 0 0 0 13.5 2.32a11.139 11.139 0 0 0-7.485 2.875L5.013 4.193Zm-.822.822A12.553 12.553 0 0 0 .9 13.5c0 3.265 1.248 6.244 3.292 8.484l1.002-1.002A11.139 11.139 0 0 1 2.32 13.5c0-2.878 1.087-5.501 2.873-7.483L4.191 5.015Zm.822 17.791a12.552 12.552 0 0 0 8.487 3.295c3.265 0 6.243-1.248 8.484-3.291l-1.002-1.002A11.139 11.139 0 0 1 13.5 24.68a11.139 11.139 0 0 1-7.485-2.875l-1.002 1.002ZM26.1 13.5c0 3.267-1.25 6.247-3.295 8.488l-1.002-1.002A11.139 11.139 0 0 0 24.68 13.5c0-2.879-1.088-5.503-2.875-7.485l1.002-1.002A12.553 12.553 0 0 1 26.1 13.5Z" fill="currentColor"></path><path fill-rule="evenodd" clip-rule="evenodd" d="M7.856 10.58a.267.267 0 0 1 .22-.118h1.867c.104 0 .2.064.245.164.113.25.223.505.333.756.253.583.5 1.152.766 1.635.188.343.376.623.568.822.08.085.16.151.236.202v-2.38l-.559-.731a.3.3 0 0 1-.034-.304c.046-.1.14-.164.246-.164h2.594a.28.28 0 0 1 .271.287v2.69c.31-.324.553-.693.775-1.088a20.128 20.128 0 0 0 .456-.87c.152-.296.311-.598.493-.89a.268.268 0 0 1 .227-.129h1.787c.085 0 .164.042.215.112a.3.3 0 0 1 .048.249c-.342 1.37-1.008 2.326-1.644 3.237l-.075.108a8.71 8.71 0 0 1 2.028 2.933.301.301 0 0 1-.02.273.268.268 0 0 1-.229.131h-1.966a.263.263 0 0 1-.178-.07 5.862 5.862 0 0 1-.551-.594l-.1-.12c-.129-.157-.25-.305-.382-.444-.25-.266-.52-.483-.884-.605v1.546a.282.282 0 0 1-.237.285c-2.206.296-3.69-.85-4.688-2.318-.96-1.41-1.496-3.147-1.835-4.246l-.03-.1a.3.3 0 0 1 .037-.258Zm.595.457c.341 1.094.841 2.59 1.674 3.813.885 1.3 2.124 2.263 3.941 2.11v-1.648c0-.084.035-.163.095-.218a.262.262 0 0 1 .218-.066c.681.11 1.13.452 1.5.844.144.154.281.32.412.478l.092.112c.14.167.276.325.424.47h1.431a8.082 8.082 0 0 0-1.888-2.5.299.299 0 0 1-.045-.389l.223-.322c.575-.827 1.123-1.615 1.456-2.684h-1.276a13.114 13.114 0 0 0-.476.885c-.122.239-.247.484-.38.722-.334.594-.737 1.178-1.357 1.644a.26.26 0 0 1-.282.021.29.29 0 0 1-.147-.255v-3.017h-1.754l.262.342c.04.05.06.114.06.18v2.886c0 .082-.033.16-.09.214a.262.262 0 0 1-.212.07c-.333-.04-.617-.229-.858-.48-.242-.251-.458-.581-.657-.944-.28-.508-.545-1.118-.803-1.713a73.019 73.019 0 0 0-.243-.555H8.45Z" fill="#110A1D"></path><path d="M10.125 14.85c-.833-1.223-1.333-2.719-1.674-3.813h1.32c.08.18.161.367.243.555.258.595.524 1.205.803 1.713.2.363.415.693.657.944.242.251.525.44.858.48a.262.262 0 0 0 .212-.07.294.294 0 0 0 .09-.214v-2.886a.298.298 0 0 0-.06-.18l-.261-.342h1.753v3.017a.29.29 0 0 0 .147.255c.09.05.2.042.282-.02.62-.467 1.023-1.05 1.357-1.645.133-.238.258-.483.38-.722l.086-.168c.127-.247.253-.487.39-.717h1.276c-.333 1.069-.881 1.857-1.456 2.684a70.26 70.26 0 0 0-.223.322.299.299 0 0 0 .045.389 8.082 8.082 0 0 1 1.888 2.5h-1.43a5.964 5.964 0 0 1-.425-.47l-.092-.112a9.458 9.458 0 0 0-.413-.478c-.369-.392-.818-.734-1.5-.844a.262.262 0 0 0-.217.066.294.294 0 0 0-.095.218v1.647c-1.817.154-3.056-.809-3.941-2.11Z" fill="#110A1D"></path></g><defs><clipPath id="shortcut-vkontakte_0"><path fill="#fff" d="M0 0h27v27H0z"></path></clipPath></defs></svg><svg fill="none" id="shortcut-youtube" viewBox="0 0 27 27"><g clip-path="url(#shortcut-youtube_0)"><path fill-rule="evenodd" clip-rule="evenodd" d="M0 13.5C0 20.942 6.055 27 13.5 27 20.942 27 27 20.942 27 13.5S20.942 0 13.5 0 0 6.058 0 13.5Zm5.013-9.307A12.553 12.553 0 0 1 13.5.899c3.265 0 6.244 1.248 8.485 3.292l-1.002 1.002A11.139 11.139 0 0 0 13.5 2.32a11.139 11.139 0 0 0-7.485 2.875L5.013 4.193Zm-.822.822A12.553 12.553 0 0 0 .9 13.5c0 3.265 1.248 6.244 3.292 8.484l1.002-1.002A11.139 11.139 0 0 1 2.32 13.5c0-2.878 1.087-5.501 2.873-7.483L4.191 5.015Zm.822 17.791a12.552 12.552 0 0 0 8.487 3.295c3.265 0 6.243-1.248 8.484-3.291l-1.002-1.002A11.139 11.139 0 0 1 13.5 24.68a11.139 11.139 0 0 1-7.485-2.875l-1.002 1.002ZM26.1 13.5c0 3.267-1.25 6.247-3.295 8.488l-1.002-1.002A11.139 11.139 0 0 0 24.68 13.5c0-2.879-1.088-5.503-2.875-7.485l1.002-1.002A12.553 12.553 0 0 1 26.1 13.5Z" fill="currentColor"></path><path d="m12.375 15.188 2.92-1.688-2.92-1.688v3.376Zm6.503-4.405c.073.264.123.619.157 1.069.04.45.056.838.056 1.175l.034.473c0 1.232-.09 2.137-.247 2.717-.141.506-.467.832-.974.973-.264.073-.748.124-1.49.157-.732.04-1.4.057-2.02.057l-.894.034c-2.357 0-3.825-.09-4.404-.248-.507-.14-.833-.467-.973-.973-.074-.264-.124-.619-.158-1.069-.04-.45-.056-.838-.056-1.175l-.034-.473c0-1.232.09-2.137.248-2.717.14-.506.466-.832.973-.973.264-.073.748-.124 1.49-.158.732-.039 1.4-.056 2.02-.056l.894-.034c2.357 0 3.825.09 4.404.248.507.14.833.467.974.973Z" fill="#110A1D"></path></g><defs><clipPath id="shortcut-youtube_0"><path fill="#fff" d="M0 0h27v27H0z"></path></clipPath></defs></svg><svg fill="none" opacity=".6" id="world" viewBox="0 0 50 50"><path d="M48.882 23.921H38.155v2.115h10.727V23.92ZM11.946 23.921H1.22v2.115h10.727V23.92ZM26.276 38.245h-2.115v10.728h2.115V38.245ZM26.276.984h-2.115v10.728h2.115V.984Z" fill="#478BF9"></path><path d="M37.83 11.557c-7.336-7.337-19.237-7.337-26.579 0-7.337 7.337-7.337 19.238 0 26.58 7.337 7.337 19.238 7.337 26.58 0 7.337-7.337 7.337-19.238 0-26.58Zm-9.656 1.59c2.14.664 4.059 1.904 5.551 3.591l.288.325-.422.097a35.39 35.39 0 0 1-3.545.638l-.22.031-.063-.216a16.23 16.23 0 0 0-.725-2.012 11.054 11.054 0 0 0-1.153-2.058l-.463-.632.752.231v.005Zm-8.588 11.114.01-.268c.052-1.626.232-3.18.54-4.61l.047-.226.232.02a46.95 46.95 0 0 0 8.288-.025l.232-.021.051.226c.314 1.446.494 3.005.54 4.636v.268H19.587Zm9.94 1.193v.268c-.056 1.63-.236 3.19-.55 4.636l-.051.226-.232-.02a47.432 47.432 0 0 0-8.289-.026l-.231.02-.046-.226a25.78 25.78 0 0 1-.54-4.61l-.011-.268h9.95ZM24.557 12.7c1.498 0 3.02 1.898 3.973 4.96l.097.308-.324.026a45.882 45.882 0 0 1-7.502.02l-.324-.025.098-.314c.952-3.072 2.48-4.98 3.982-4.98v.005Zm-9.22 4.095a12.263 12.263 0 0 1 5.603-3.643l.757-.231-.468.638c-.422.576-.813 1.27-1.153 2.053-.273.617-.52 1.307-.736 2.048l-.061.21-.222-.025a34.986 34.986 0 0 1-3.58-.623l-.428-.098.288-.329Zm-3.004 7.188a12.286 12.286 0 0 1 1.862-5.665l.103-.16.185.047c1.318.334 2.738.602 4.23.792l.277.036-.056.278a27.05 27.05 0 0 0-.53 4.698v.252h-6.087l.02-.278h-.004Zm1.965 7.573-.103-.16a12.266 12.266 0 0 1-1.862-5.664l-.02-.278h6.08v.252a28.04 28.04 0 0 0 .536 4.698l.056.278-.278.036c-1.486.19-2.912.458-4.229.792l-.185.046h.005Zm6.642 5.012a12.264 12.264 0 0 1-5.603-3.643l-.288-.33.427-.097a36.468 36.468 0 0 1 3.581-.623l.222-.025.061.21c.216.741.463 1.431.736 2.048.345.788.73 1.477 1.153 2.058l.468.638-.757-.231v-.005Zm3.617.447c-1.502 0-3.03-1.909-3.982-4.98l-.098-.314.325-.026a46.215 46.215 0 0 1 7.501.02l.324.027-.098.308c-.956 3.056-2.48 4.96-3.971 4.96v.005Zm9.169-4.039a12.28 12.28 0 0 1-5.552 3.592l-.75.231.462-.633c.422-.576.808-1.27 1.153-2.058.273-.633.52-1.306.725-2.011l.062-.216.221.03a35.39 35.39 0 0 1 3.545.638l.422.103-.288.324Zm3.051-7.244a12.255 12.255 0 0 1-1.898 5.727l-.103.16-.186-.047a34.702 34.702 0 0 0-4.198-.818l-.278-.036.057-.273c.308-1.492.488-3.082.535-4.733v-.253h6.087l-.021.278.005-.005Zm-6.06-1.471v-.252a27.631 27.631 0 0 0-.541-4.734l-.057-.273.278-.036a34.86 34.86 0 0 0 4.198-.818l.186-.046.103.16a12.178 12.178 0 0 1 1.898 5.726l.02.278h-6.08l-.006-.005Z" fill="#478BF9"></path><path d="M24.585 49.39C11.079 49.39.089 38.4.089 24.894.089 11.388 11.079.398 24.585.398c13.506 0 24.495 10.99 24.495 24.496 0 13.506-10.99 24.496-24.495 24.496Zm0-47.227c-12.534 0-22.731 10.197-22.731 22.73 0 12.534 10.197 22.732 22.73 22.732 12.534 0 22.732-10.198 22.732-22.731 0-12.534-10.198-22.731-22.731-22.731Z" fill="#478BF9"></path></svg></svg>