<svg width="51" height="50" viewBox="0 0 51 50" fill="none" opacity="0.4" xmlns="http://www.w3.org/2000/svg">
<path d="M7.89736 42.3325C-1.73662 32.6985 -1.73662 17.0245 7.89736 7.39053C17.5313 -2.24346 33.2053 -2.24346 42.8393 7.39053C52.4733 17.0245 52.4733 32.6985 42.8393 42.3325C33.2053 51.9664 17.5313 51.9664 7.89736 42.3325ZM41.6749 8.55495C32.6828 -0.437085 18.0538 -0.437085 9.06412 8.55495C0.0720891 17.547 0.0720891 32.176 9.06412 41.1657C18.0562 50.1577 32.6852 50.1577 41.6749 41.1657C50.6669 32.1737 50.6669 17.5446 41.6749 8.55495Z" fill="white"/>
<path d="M41.9437 19.6206C41.857 19.5339 41.7867 19.4238 41.7469 19.3019C40.8917 16.7716 39.4953 14.5294 37.5976 12.6317C35.7022 10.7363 33.4577 9.33994 30.9274 8.48244C30.5924 8.36764 30.3674 8.05603 30.3674 7.70226V1.69742C30.3674 1.44438 30.4846 1.2054 30.6837 1.04843C30.8852 0.891457 31.1453 0.837574 31.3889 0.898489C35.7139 1.98091 39.6734 4.2254 42.8363 7.39065C45.9992 10.5559 48.2437 14.5131 49.3261 18.838C49.3871 19.084 49.3308 19.3441 49.1762 19.5456C49.0192 19.7471 48.7802 19.8619 48.5272 19.8619H42.5224C42.2975 19.8619 42.0913 19.7705 41.939 19.6182L41.9437 19.6206ZM38.762 11.4673C40.6972 13.4025 42.1569 15.6704 43.1081 18.2148H47.4518C46.36 14.5787 44.3756 11.2564 41.6742 8.55507C38.9729 5.85371 35.6507 3.86928 32.0168 2.77983V7.12356C34.5612 8.07243 36.8291 9.53205 38.7644 11.4696L38.762 11.4673Z" fill="white"/>
<path d="M7.89688 42.3327C4.73397 39.1698 2.48713 35.2103 1.40471 30.8853C1.3438 30.6393 1.40003 30.3792 1.55466 30.1801C1.71163 29.9786 1.9506 29.8638 2.20363 29.8638H8.20847C8.56225 29.8638 8.8762 30.0887 8.98866 30.4237C9.84382 32.9541 11.2402 35.1962 13.1379 37.094C15.0333 38.9894 17.2778 40.3857 19.8082 41.2432C20.1432 41.3557 20.3681 41.6696 20.3681 42.0234V48.0282C20.3681 48.2813 20.2509 48.5203 20.0518 48.6772C19.8503 48.8342 19.5903 48.8881 19.3442 48.8272C15.0193 47.7447 11.0621 45.5003 7.89688 42.3374V42.3327ZM3.28372 31.5085C4.37551 35.1447 6.35993 38.4669 9.06129 41.1682C11.7626 43.8696 15.0849 45.854 18.7211 46.9458V42.6021C16.1767 41.6532 13.9087 40.1936 11.9735 38.2584C10.0383 36.3231 8.57866 34.0552 7.62744 31.5108H3.28372V31.5085Z" fill="white"/>
<path d="M30.6088 48.6067C30.4541 48.4521 30.3674 48.2436 30.3674 48.0233V42.0185C30.3674 41.6647 30.5924 41.3508 30.9274 41.2383C33.4577 40.3832 35.6999 38.9868 37.5976 37.0891C39.4953 35.1913 40.8894 32.9492 41.7469 30.4188C41.8593 30.0838 42.1733 29.8589 42.5271 29.8589H48.5319C48.7849 29.8589 49.0239 29.976 49.1809 30.1752C49.3379 30.3743 49.3918 30.6367 49.3308 30.8804C48.2461 35.2054 46.0016 39.1625 42.8387 42.3278C39.6757 45.493 35.7163 47.7375 31.3913 48.8199C31.1453 48.8808 30.8852 48.8246 30.6861 48.67C30.6603 48.6466 30.6345 48.6255 30.6111 48.602L30.6088 48.6067ZM32.0145 42.5995V46.9433C35.6507 45.8515 38.9729 43.8671 41.6742 41.1657C44.3756 38.4643 46.3577 35.1421 47.4518 31.5059H43.1081C42.1592 34.0503 40.6996 36.3159 38.762 38.2535C36.8268 40.1887 34.5589 41.6507 32.0145 42.5995Z" fill="white"/>
<path d="M1.62062 19.6204C1.59719 19.597 1.57377 19.5712 1.55503 19.5455C1.39805 19.3463 1.34416 19.0839 1.40508 18.8379C2.4875 14.5129 4.732 10.5534 7.89725 7.39052C11.0625 4.22762 15.0196 1.98078 19.3446 0.898365C19.5906 0.83745 19.8507 0.893676 20.0498 1.04831C20.249 1.20528 20.3661 1.44426 20.3661 1.69729V7.70213C20.3661 8.05591 20.1412 8.36986 19.8062 8.48232C17.2759 9.33747 15.0337 10.7338 13.1359 12.6316C11.2405 14.527 9.84418 16.7715 8.98668 19.3018C8.87423 19.6368 8.56029 19.8618 8.20651 19.8618H2.20167C1.98144 19.8618 1.77057 19.7751 1.61828 19.6228L1.62062 19.6204ZM18.7191 2.77971C15.0829 3.8715 11.7607 5.85593 9.05931 8.55729C6.35796 11.2586 4.37587 14.5809 3.28174 18.217H7.62546C8.57434 15.6727 10.034 13.4071 11.9715 11.4695C13.9068 9.53428 16.1747 8.07465 18.7191 7.12344V2.77971Z" fill="white"/>
<path d="M38.7639 11.4672C31.3791 4.08241 19.3601 4.08007 11.9753 11.4672C4.58813 18.8544 4.59047 30.8711 11.9753 38.2559C19.3601 45.6407 31.3768 45.643 38.7639 38.2559C46.1511 30.8687 46.1487 18.852 38.7639 11.4672Z" fill="white"/>
<path d="M32.1988 31.6226L18.5916 31.7128C18.0184 31.7166 17.5568 32.1844 17.5606 32.7576L17.5638 33.2426C17.5676 33.8158 18.0354 34.2774 18.6086 34.2736L32.2158 34.1833C32.789 34.1795 33.2506 33.7118 33.2468 33.1386L33.2436 32.6536C33.2398 32.0804 32.772 31.6188 32.1988 31.6226Z" fill="#110A1D"/>
<path d="M20.4454 23.409C20.2978 23.409 20.1479 23.3762 20.012 23.3106L18.9506 22.7975C18.4891 22.5726 18.2782 22.0267 18.4703 21.5511L18.9577 20.3375C19.1076 19.9673 19.4614 19.726 19.8597 19.7236C20.0307 19.7236 20.1994 19.7658 20.3493 19.8525L21.6145 20.5741C21.8511 20.7076 22.0222 20.9396 22.0831 21.2067C22.144 21.4738 22.0901 21.7549 21.9355 21.9798L21.242 22.9849C21.0616 23.2473 20.7617 23.4067 20.443 23.4067L20.4454 23.409Z" fill="#110A1D"/>
<path d="M30.2421 23.3435C29.9235 23.3435 29.6213 23.1913 29.4386 22.9312L28.7521 21.9636C28.5928 21.741 28.5365 21.4599 28.5928 21.1928C28.649 20.9257 28.8177 20.6914 29.0543 20.5531L30.3593 19.787C30.5069 19.7003 30.6756 19.6535 30.8466 19.6511C31.2449 19.6488 31.6034 19.8854 31.758 20.2533L32.25 21.4317C32.4468 21.905 32.243 22.4556 31.7861 22.6852L30.6756 23.2404C30.5421 23.3061 30.3921 23.3435 30.2445 23.3435H30.2421Z" fill="#110A1D"/>
<path d="M19.3765 30.8031C18.779 30.8078 18.2425 30.4329 18.0387 29.8706L15.7684 23.6221C15.6232 23.6924 15.4685 23.7463 15.3116 23.7861C15.1265 23.833 14.939 23.8564 14.7493 23.8564C14.6391 23.8564 14.5314 23.8517 14.4259 23.8377C13.2428 23.6877 12.3455 22.6732 12.3384 21.4784C12.3291 20.157 13.3974 19.0746 14.7188 19.0652C16.0402 19.0558 17.1226 20.1242 17.1296 21.4456C17.1296 21.7501 17.0781 22.043 16.9703 22.3171C16.9117 22.4671 16.8391 22.61 16.7548 22.7459L21.0727 24.8357L24.3762 20.0492C24.238 19.9906 24.1044 19.918 23.9779 19.8313C23.7389 19.6696 23.5304 19.4682 23.3617 19.2315C23.0759 18.8285 22.9213 18.3529 22.9189 17.8609C22.9096 16.5395 23.9779 15.4571 25.2993 15.4478C25.3579 15.4478 25.4188 15.4478 25.4774 15.4524C26.6605 15.5321 27.6164 16.481 27.7031 17.6641C27.743 18.2241 27.5954 18.7606 27.2767 19.2175C27.1081 19.4564 26.9018 19.6603 26.6652 19.8219C26.541 19.9086 26.4075 19.9813 26.2693 20.0398L29.6313 24.7772L33.879 22.6522C33.7993 22.4999 33.7361 22.3405 33.6892 22.1742C33.633 21.9727 33.6026 21.7618 33.6026 21.5486C33.6026 21.4526 33.6072 21.3565 33.6166 21.2628C33.7525 20.0586 34.7693 19.1448 35.9806 19.1378C37.302 19.1284 38.3844 20.1968 38.3914 21.5182C38.4008 22.7787 37.4215 23.8377 36.1633 23.9243L36.0134 23.929C35.7697 23.929 35.5308 23.8962 35.2988 23.8259C35.1489 23.7791 35.0036 23.7205 34.8677 23.6455L32.7357 29.7722C32.5412 30.3369 32.007 30.7164 31.4096 30.7211L19.3765 30.8007V30.8031Z" fill="#110A1D"/>
</svg>
