<svg width="50" height="49" viewBox="0 0 50 49" fill="none" opacity="0.2" xmlns="http://www.w3.org/2000/svg">
<path d="M20.2358 20.1715C20.2358 21.0719 20.8481 21.8539 21.7228 22.07L23.3846 22.4868V18.2112H22.2013C21.1208 18.2112 20.241 19.091 20.241 20.1715H20.2358Z" fill="#478BF9"/>
<path d="M26.5222 30.7858H27.7056C28.7861 30.7858 29.6659 29.906 29.6659 28.8256C29.6659 27.9252 29.0536 27.1431 28.1789 26.927L26.5171 26.5103V30.7858H26.5222Z" fill="#478BF9"/>
<path d="M24.9539 4.56665C13.9639 4.56665 5.0166 13.5088 5.0166 24.5039C5.0166 35.499 13.9588 44.4412 24.9539 44.4412C35.949 44.4412 44.8911 35.499 44.8911 24.5039C44.8911 13.5088 35.949 4.56665 24.9539 4.56665ZM32.8156 21.3551H29.6719V19.7807C29.6719 18.9163 28.967 18.2063 28.0975 18.2063H26.5231V23.2691L28.9465 23.8762C31.2206 24.4473 32.8105 26.4797 32.8105 28.8258C32.8105 31.6402 30.5209 33.9298 27.7065 33.9298H26.5231V37.9121H23.3795V33.9298H21.8051C19.2017 33.9298 17.087 31.8151 17.087 29.2117V27.6373H20.2307V29.2117C20.2307 30.0761 20.9355 30.7861 21.8051 30.7861H23.3795V25.7233L20.9561 25.1162C18.682 24.5451 17.0922 22.5128 17.0922 20.1666C17.0922 17.3522 19.3817 15.0627 22.1961 15.0627H23.3795V11.0804H26.5231V15.0627H28.0975C30.7009 15.0627 32.8156 17.1773 32.8156 19.7807V21.3551Z" fill="#478BF9"/>
<path d="M24.9487 0.00859833C38.4546 0.00859833 49.4446 10.9985 49.4446 24.5044C49.4446 38.0103 38.4546 49.0002 24.9487 49.0002C11.4428 49.0002 0.452881 38.0103 0.452881 24.5044C0.452881 10.9985 11.4428 0.00859833 24.9487 0.00859833ZM24.9487 47.2355C37.4822 47.2355 47.6798 37.0379 47.6798 24.5044C47.6798 11.971 37.4822 1.77336 24.9487 1.77336C12.4152 1.77336 2.21765 11.971 2.21765 24.5044C2.21765 37.0379 12.4152 47.2355 24.9487 47.2355Z" fill="#478BF9"/>
</svg>
