<svg width="50" height="50" viewBox="0 0 50 50" fill="none" opacity="0.6" xmlns="http://www.w3.org/2000/svg">
<path d="M48.8823 23.9211H38.1548V26.0358H48.8823V23.9211Z" fill="#478BF9"/>
<path d="M11.9461 23.9211H1.21851V26.0358H11.9461V23.9211Z" fill="#478BF9"/>
<path d="M26.276 38.2454H24.1614V48.9729H26.276V38.2454Z" fill="#478BF9"/>
<path d="M26.276 0.984375H24.1614V11.7119H26.276V0.984375Z" fill="#478BF9"/>
<path d="M37.8308 11.5574C30.4939 4.22046 18.5933 4.22046 11.2512 11.5574C3.91431 18.8943 3.91431 30.7949 11.2512 38.137C18.5881 45.4739 30.4888 45.4739 37.8308 38.137C45.1678 30.8001 45.1678 18.8994 37.8308 11.5574ZM28.1735 13.1472C30.3138 13.8109 32.2329 15.0509 33.725 16.7385L34.0131 17.0626L33.5913 17.1604C32.4748 17.4228 31.2811 17.6389 30.0463 17.7984L29.8251 17.8293L29.7633 17.6132C29.5575 16.9083 29.3157 16.2291 29.0378 15.6014C28.6931 14.8142 28.3072 14.1248 27.8853 13.5434L27.4223 12.9105L28.1735 13.1421V13.1472ZM19.5863 24.2606L19.5966 23.9931C19.648 22.3672 19.8281 20.8134 20.1368 19.3831L20.1831 19.1567L20.4146 19.1773C23.121 19.4139 26.0125 19.4037 28.7034 19.1516L28.9349 19.131L28.9864 19.3574C29.3003 20.8031 29.4803 22.3621 29.5266 23.9931V24.2606H19.5914H19.5863ZM29.5266 25.4543V25.7219C29.47 27.3529 29.29 28.9118 28.9761 30.3576L28.9247 30.584L28.6931 30.5634C26.0022 30.3113 23.1107 30.3061 20.4044 30.5377L20.1728 30.5582L20.1265 30.3318C19.8178 28.9015 19.6377 27.3529 19.5863 25.7219L19.576 25.4543H29.5163H29.5266ZM24.5565 12.6996C26.0537 12.6996 27.5766 14.5981 28.5285 17.6595L28.6262 17.9682L28.3021 17.9939C27.0364 18.1019 25.7296 18.1585 24.4176 18.1585C23.1982 18.1585 21.9839 18.1122 20.8005 18.0145L20.4764 17.9888L20.5741 17.6749C21.526 14.6033 23.0541 12.6945 24.5565 12.6945V12.6996ZM15.3364 16.7951C16.8388 15.0818 18.7734 13.8212 20.9395 13.1524L21.6958 12.9208L21.2276 13.5588C20.8057 14.1351 20.4147 14.8297 20.0751 15.6117C19.8024 16.2291 19.5554 16.9186 19.3393 17.6595L19.2776 17.8704L19.0564 17.8447C17.8112 17.6904 16.6073 17.4845 15.4754 17.2221L15.0483 17.1244L15.3364 16.7951ZM12.3317 23.9828C12.4758 21.9762 13.1189 20.0211 14.1942 18.318L14.2971 18.1585L14.4824 18.2048C15.7995 18.5393 17.2195 18.8068 18.7116 18.9972L18.9895 19.0332L18.9329 19.311C18.6241 20.8031 18.4492 22.3827 18.4029 24.0085V24.2606H12.3163L12.3369 23.9828H12.3317ZM14.2971 31.5564L14.1942 31.3969C13.1189 29.699 12.4758 27.7387 12.3317 25.7321L12.3111 25.4543H18.3926V25.7064C18.4441 27.3323 18.6242 28.917 18.9277 30.4039L18.9843 30.6817L18.7065 30.7177C17.2195 30.9081 15.7944 31.1757 14.4772 31.5101L14.292 31.5564H14.2971ZM20.9395 36.5677C18.7734 35.8988 16.8388 34.6383 15.3364 32.925L15.0483 32.5957L15.4754 32.4979C16.6073 32.2407 17.8112 32.0297 19.0564 31.8754L19.2776 31.8497L19.3393 32.0606C19.5554 32.8015 19.8024 33.491 20.0751 34.1084C20.4198 34.8956 20.8057 35.585 21.2276 36.1664L21.6958 36.8044L20.9395 36.5729V36.5677ZM24.5565 37.0153C23.0541 37.0153 21.526 35.1065 20.5741 32.0349L20.4764 31.721L20.8005 31.6953C23.2547 31.4998 25.8685 31.5049 28.3021 31.7159L28.6262 31.7416L28.5285 32.0503C27.5715 35.1065 26.0486 37.0102 24.5565 37.0102V37.0153ZM33.725 32.9764C32.2329 34.664 30.3087 35.904 28.1735 36.5677L27.4223 36.7992L27.8853 36.1664C28.3072 35.5902 28.6931 34.8956 29.0378 34.1084C29.3105 33.4755 29.5575 32.8015 29.7633 32.0966L29.8251 31.8805L30.0463 31.9114C31.2811 32.0709 32.4748 32.287 33.5913 32.5494L34.0131 32.6523L33.725 32.9764ZM36.7761 25.7321C36.632 27.7593 35.9786 29.7402 34.8776 31.4586L34.7746 31.6181L34.5894 31.5718C33.2877 31.2271 31.8728 30.9544 30.391 30.7537L30.1132 30.7177L30.1698 30.4451C30.4785 28.953 30.6585 27.3631 30.7049 25.7116V25.4594H36.7915L36.7709 25.7373L36.7761 25.7321ZM30.7152 24.2606V24.0085C30.6637 22.3569 30.4836 20.762 30.1749 19.275L30.1183 19.0024L30.3962 18.9663C31.8779 18.7657 33.2877 18.493 34.5945 18.1482L34.7798 18.102L34.8827 18.2615C35.9837 19.9799 36.6423 21.9556 36.7812 23.988L36.8018 24.2658H30.7203L30.7152 24.2606Z" fill="#478BF9"/>
<path d="M24.5847 49.3896C11.0788 49.3896 0.0888672 38.3997 0.0888672 24.8938C0.0888672 11.3879 11.0788 0.397968 24.5847 0.397968C38.0906 0.397968 49.0805 11.3879 49.0805 24.8938C49.0805 38.3997 38.0906 49.3896 24.5847 49.3896ZM24.5847 2.16273C12.0512 2.16273 1.85363 12.3603 1.85363 24.8938C1.85363 37.4273 12.0512 47.6249 24.5847 47.6249C37.1182 47.6249 47.3158 37.4273 47.3158 24.8938C47.3158 12.3603 37.1182 2.16273 24.5847 2.16273Z" fill="#478BF9"/>
</svg>
