<svg width="335" height="1335" fill="none" xmlns="http://www.w3.org/2000/svg"><g opacity=".4"><path d="M283.393 1334.45c-12.699 0-25.387-4.83-35.057-14.5-19.328-19.33-19.328-50.77 0-70.1 9.368-9.37 21.817-14.52 35.057-14.52 13.24 0 25.688 5.15 35.056 14.52 19.329 19.33 19.329 50.77 0 70.1-9.659 9.66-22.358 14.5-35.056 14.5Zm-32.454-17.1c17.892 17.89 47.005 17.89 64.897 0 17.893-17.89 17.893-47.01 0-64.9-8.67-8.67-20.192-13.44-32.454-13.44-12.261 0-23.783 4.78-32.454 13.44-17.892 17.89-17.892 47.01 0 64.9h.011Z" fill="#9DADF2"/><path d="M282.737 1303.44c.177.43.593.68 1.031.68.145 0 .291-.03.437-.08a25.75 25.75 0 0 0 9.201-6.57 1.114 1.114 0 0 0-1.665-1.48 23.401 23.401 0 0 1-8.4 6c-.562.23-.833.89-.594 1.45h-.01Z" fill="#9DADF2"/><path d="m302.283 1267.76-18.486-7.39c-.27-.1-.562-.1-.832 0l-18.486 7.39c-.427.17-.698.57-.698 1.03v13.24c.021 12.22 7.744 23.27 19.215 27.47a1.24 1.24 0 0 0 .77 0c11.47-4.21 19.194-15.25 19.214-27.47v-13.24c0-.46-.27-.86-.697-1.03Zm-1.53 14.27c-.021 11.12-6.995 21.25-17.362 25.23-10.367-3.98-17.351-14.11-17.372-25.23v-12.48l17.372-6.94 17.362 6.94v12.48Z" fill="#9DADF2"/><path d="M275.669 1269.5a1.146 1.146 0 0 0-.854 0l-4.403 1.76c-.426.17-.697.57-.697 1.03v4.69c0 .62.499 1.12 1.114 1.12.614 0 1.113-.5 1.113-1.12v-3.93l3.695-1.48a1.105 1.105 0 0 0 .614-1.46 1.119 1.119 0 0 0-.593-.61h.011Z" fill="#9DADF2"/><path d="M311.536 1256.75c-7.515-7.53-17.518-11.66-28.155-11.66-10.638 0-20.63 4.14-28.156 11.66-15.519 15.52-15.519 40.78 0 56.31 7.765 7.77 17.955 11.64 28.156 11.64 10.2 0 20.39-3.89 28.155-11.64 15.519-15.52 15.519-40.78 0-56.31Zm-5.506 25.28c.031 14.13-8.993 26.48-22.451 30.76a.668.668 0 0 1-.396 0c-13.458-4.28-22.483-16.63-22.451-30.76v-15.62c0-.26.156-.5.405-.6l22.004-8.8a.634.634 0 0 1 .24-.04c.083 0 .166.01.239.04l22.004 8.81c.25.09.406.33.406.6v15.62-.01Z" fill="#9DADF2"/><path d="M283.537 1207.84c-27.322 0-49.545-22.23-49.545-49.55 0-27.31 22.233-49.54 49.545-49.54 27.313 0 49.546 22.23 49.546 49.54 0 27.32-22.233 49.55-49.546 49.55Zm0-95.79c-25.501 0-46.245 20.74-46.245 46.24 0 25.51 20.744 46.25 46.245 46.25 25.502 0 46.246-20.74 46.246-46.25 0-25.5-20.744-46.24-46.246-46.24Z" fill="#fff"/><path d="M299.608 1127.35c-.25 0-.5-.05-.729-.17a34.357 34.357 0 0 0-15.342-3.58 34.357 34.357 0 0 0-15.342 3.58c-.635.32-1.395.19-1.895-.31l-8.514-8.51a1.66 1.66 0 0 1-.468-1.38c.062-.51.354-.96.791-1.22a49.455 49.455 0 0 1 25.439-7.02 49.55 49.55 0 0 1 25.438 7.02c.437.26.729.71.791 1.22.063.51-.114 1.01-.468 1.38l-8.514 8.51c-.323.31-.739.48-1.177.48h-.01Zm-16.071-7.05c5.485 0 10.773 1.15 15.728 3.41l6.161-6.17a46.165 46.165 0 0 0-21.889-5.5 46.165 46.165 0 0 0-21.889 5.5l6.162 6.17a37.624 37.624 0 0 1 15.727-3.41ZM283.535 1207.84a49.56 49.56 0 0 1-25.438-7.03c-.438-.26-.729-.7-.791-1.21-.063-.51.114-1.01.468-1.38l8.514-8.51c.5-.5 1.27-.63 1.895-.31a34.357 34.357 0 0 0 15.342 3.58c5.381 0 10.544-1.21 15.342-3.58a1.635 1.635 0 0 1 1.895.31l8.514 8.51c.364.37.531.87.468 1.38a1.63 1.63 0 0 1-.791 1.21 49.464 49.464 0 0 1-25.438 7.03h.02Zm-21.889-8.81a46.061 46.061 0 0 0 21.889 5.51c7.661 0 15.187-1.89 21.89-5.51l-6.162-6.16a37.628 37.628 0 0 1-15.728 3.41 37.624 37.624 0 0 1-15.727-3.41l-6.162 6.16ZM324.643 1184.52a1.64 1.64 0 0 1-1.166-.47l-8.514-8.52a1.646 1.646 0 0 1-.312-1.89c2.373-4.8 3.58-9.96 3.58-15.35 0-5.38-1.207-10.54-3.58-15.34a1.64 1.64 0 0 1 .312-1.89l8.514-8.52c.365-.36.864-.53 1.374-.47.51.07.958.36 1.218.8a49.425 49.425 0 0 1 7.026 25.43c0 8.98-2.425 17.77-7.026 25.44-.26.44-.708.73-1.218.79h-.208v-.01Zm-6.526-10.51 6.162 6.16a46.145 46.145 0 0 0 5.506-21.89c0-7.66-1.894-15.18-5.506-21.89l-6.162 6.17a37.605 37.605 0 0 1 3.404 15.72c0 5.49-1.145 10.78-3.404 15.73ZM242.434 1184.52c-.073 0-.135 0-.198-.01-.51-.06-.957-.35-1.218-.79a49.442 49.442 0 0 1-7.025-25.44c0-8.97 2.425-17.76 7.025-25.43a1.67 1.67 0 0 1 1.218-.8c.51-.06 1.01.12 1.374.47l8.514 8.52c.5.5.625 1.27.313 1.89a34.319 34.319 0 0 0-3.581 15.34 34.36 34.36 0 0 0 3.581 15.35c.312.63.187 1.4-.313 1.89l-8.514 8.51c-.312.32-.728.49-1.166.49l-.01.01Zm.364-48.13a46.174 46.174 0 0 0-5.506 21.89c0 7.66 1.894 15.19 5.506 21.89l6.162-6.16c-2.258-4.95-3.403-10.24-3.403-15.73a37.62 37.62 0 0 1 3.403-15.72l-6.162-6.17Z" fill="#fff"/><path d="M283.539 1120.3c-20.943 0-37.992 17.04-37.992 37.99 0 20.96 17.039 38 37.992 38 20.952 0 37.991-17.04 37.991-38 0-20.95-17.039-37.99-37.991-37.99Zm21.379 25.51a24.544 24.544 0 0 1 3.247 10.02.364.364 0 0 1-.177.35 32.036 32.036 0 0 0-7.254 6.09.336.336 0 0 1-.386.1l-4.694-1.53a.351.351 0 0 1-.25-.3 32.63 32.63 0 0 0-3.591-11.05.376.376 0 0 1 .032-.39l2.904-3.99c.072-.1.187-.16.301-.16h.084c3.102.69 6.287.92 9.451.66.145-.01.281.06.354.18l-.021.02Zm-12.074 15.39c.01.1-.021.21-.083.28a24.912 24.912 0 0 1-9.077 6.58.344.344 0 0 1-.281 0 25.14 25.14 0 0 1-9.076-6.58.372.372 0 0 1-.083-.28 30.12 30.12 0 0 1 3.476-10.7c.052-.1.135-.16.24-.18a27.52 27.52 0 0 1 5.589-.58c1.884 0 3.757.2 5.589.58.104.02.188.08.24.18a30.34 30.34 0 0 1 3.476 10.7h-.01Zm-.562-25.84s.125-.1.25-.1c.041 0 .093 0 .145.03 3.831 1.52 7.255 4.02 9.92 7.21.135.16.083.33.052.39a.362.362 0 0 1-.333.22c-2.363.03-4.715-.24-6.995-.78a.384.384 0 0 1-.229-.17 29.471 29.471 0 0 1-2.904-6.42.36.36 0 0 1 .104-.38h-.01Zm-14-1.24c3.445-.74 7.078-.74 10.523 0 .136.03.25.13.281.27a31.901 31.901 0 0 0 3.55 8.78.39.39 0 0 1-.021.41l-2.883 3.97a.357.357 0 0 1-.365.15 29.65 29.65 0 0 0-11.647 0 .356.356 0 0 1-.364-.15l-2.883-3.97a.387.387 0 0 1-.021-.41 31.93 31.93 0 0 0 3.549-8.78.363.363 0 0 1 .281-.27Zm-13.791 8.38c2.664-3.2 6.089-5.7 9.919-7.21a.36.36 0 0 1 .396.07c.052.06.166.18.104.38a29.259 29.259 0 0 1-2.904 6.42.387.387 0 0 1-.229.17c-2.28.54-4.632.81-6.995.78a.362.362 0 0 1-.333-.22.354.354 0 0 1 .052-.39h-.01Zm-2.321 3.31a.37.37 0 0 1 .322-.18h.031c3.175.25 6.36.03 9.452-.66.145-.03.291.02.374.15l2.904 3.99c.083.12.094.27.031.39a32.652 32.652 0 0 0-3.591 11.05.374.374 0 0 1-.249.3l-4.695 1.53a.368.368 0 0 1-.385-.1 32.02 32.02 0 0 0-7.255-6.09.387.387 0 0 1-.177-.35 24.497 24.497 0 0 1 3.248-10.02l-.01-.01Zm1.134 25.65a.36.36 0 0 1-.312.25c-.073 0-.24 0-.354-.17a24.649 24.649 0 0 1-3.789-11.66.364.364 0 0 1 .188-.35c.062-.03.229-.1.395.02a29.15 29.15 0 0 1 5.204 4.75c.063.07.094.17.084.27a28.62 28.62 0 0 1-1.426 6.9l.01-.01Zm10.284 9.5c-3.248-1.42-6.11-3.51-8.504-6.2a.367.367 0 0 1-.073-.38 31.901 31.901 0 0 0 2.29-9.2.36.36 0 0 1 .25-.31l4.642-1.51s.073-.02.115-.02c.104 0 .197.04.27.13a27.864 27.864 0 0 0 9.43 6.86c.136.06.219.18.219.33v4.88c0 .15-.083.28-.219.33a31.896 31.896 0 0 0-8.045 5.03.327.327 0 0 1-.386.05l.011.01Zm16.373 1.03a.358.358 0 0 1-.271.3 25.03 25.03 0 0 1-12.282 0 .374.374 0 0 1-.271-.3.364.364 0 0 1 .146-.37 29.008 29.008 0 0 1 6.131-3.49.344.344 0 0 1 .281 0c2.165.91 4.226 2.08 6.13 3.49.167.12.156.3.146.37h-.01Zm12.063-7.22a24.4 24.4 0 0 1-8.504 6.19.34.34 0 0 1-.385-.05 31.709 31.709 0 0 0-8.046-5.03.352.352 0 0 1-.218-.33v-4.88c0-.15.083-.28.218-.33a27.629 27.629 0 0 0 9.431-6.86.333.333 0 0 1 .27-.13c.042 0 .073 0 .115.02l4.642 1.51c.135.04.239.17.25.32a31.998 31.998 0 0 0 2.29 9.19c.052.12.031.28-.073.38h.01Zm2.436-3.22a.356.356 0 0 1-.354.17c-.073 0-.239-.05-.312-.25a29.56 29.56 0 0 1-1.426-6.9c0-.09.021-.2.083-.27a29.564 29.564 0 0 1 5.204-4.75.371.371 0 0 1 .208-.07c.084 0 .146.03.188.05.062.03.208.14.187.35a24.649 24.649 0 0 1-3.789 11.66l.011.01Z" fill="#fff"/><path d="M283.393 1084.38c-12.699 0-25.387-4.83-35.057-14.5-19.328-19.33-19.328-50.77 0-70.099 9.368-9.367 21.817-14.52 35.057-14.52 13.24 0 25.688 5.153 35.056 14.52 19.329 19.329 19.329 50.769 0 70.099-9.659 9.66-22.358 14.5-35.056 14.5Zm-32.454-17.1c17.892 17.89 47.005 17.89 64.897 0 17.893-17.89 17.893-47 0-64.9-8.67-8.667-20.192-13.434-32.454-13.434-12.261 0-23.783 4.777-32.454 13.434-17.892 17.9-17.892 47.01 0 64.9h.011Z" fill="#9DADF2"/><path d="M282.737 1053.39c.177.42.593.67 1.031.67.145 0 .291-.03.437-.08a25.75 25.75 0 0 0 9.201-6.57c.406-.46.364-1.16-.094-1.57a1.12 1.12 0 0 0-1.571.09 23.281 23.281 0 0 1-8.4 6c-.562.24-.833.89-.594 1.46h-.01Z" fill="#9DADF2"/><path d="m302.283 1017.69-18.486-7.39c-.27-.1-.562-.1-.832 0l-18.486 7.39c-.427.17-.698.58-.698 1.03v13.24c.021 12.22 7.744 23.27 19.215 27.47.125.04.25.07.385.07s.26-.03.385-.07c11.47-4.21 19.194-15.25 19.214-27.47v-13.24c0-.45-.27-.86-.697-1.03Zm-1.53 14.27c-.021 11.12-6.995 21.25-17.362 25.24-10.367-3.99-17.351-14.12-17.372-25.24v-12.48l17.372-6.94 17.362 6.94v12.48Z" fill="#9DADF2"/><path d="M275.669 1019.43a1.146 1.146 0 0 0-.854 0l-4.403 1.76c-.426.17-.697.57-.697 1.03v4.7a1.114 1.114 0 0 0 2.227 0v-3.94l3.695-1.48c.281-.11.49-.32.614-.6a1.09 1.09 0 0 0 0-.85 1.17 1.17 0 0 0-.593-.62h.011Z" fill="#9DADF2"/><path d="M311.536 1006.68c-7.515-7.523-17.518-11.656-28.155-11.656-10.638 0-20.63 4.143-28.156 11.656-15.519 15.52-15.519 40.78 0 56.31 7.765 7.77 17.955 11.64 28.156 11.64 10.2 0 20.39-3.88 28.155-11.64 15.519-15.52 15.519-40.78 0-56.31Zm-5.506 25.28c.031 14.13-8.993 26.48-22.451 30.76a.668.668 0 0 1-.396 0c-13.458-4.28-22.483-16.63-22.451-30.76v-15.62c0-.26.156-.5.405-.6l22.004-8.8a.634.634 0 0 1 .24-.04c.083 0 .166.01.239.04l22.004 8.81c.25.09.406.33.406.6v15.63-.02Z" fill="#9DADF2"/><path d="M283.807 962.071c-27.323 0-49.545-22.233-49.545-49.545 0-27.313 22.233-49.546 49.545-49.546s49.545 22.233 49.545 49.546c0 27.312-22.233 49.545-49.545 49.545Zm0-95.791c-25.501 0-46.246 20.744-46.246 46.246 0 25.501 20.745 46.245 46.246 46.245s46.245-20.744 46.245-46.245c0-25.502-20.744-46.246-46.245-46.246Z" fill="#478BF9"/><path d="m316.128 877.179-15.339 15.338 3.018 3.018 15.338-15.339-3.017-3.017ZM263.334 929.971l-15.338 15.338 3.018 3.017 15.338-15.338-3.018-3.017ZM304.272 929.986l-3.018 3.017 15.338 15.338 3.018-3.017-15.338-15.338ZM251.01 876.717l-3.018 3.018 15.331 15.331 3.018-3.018-15.331-15.331ZM295.891 913.858a2.54 2.54 0 0 0 0-3.602l-2.123-2.113a2.54 2.54 0 0 0-3.602 0l-1.145 1.145-1.322-1.322a2.538 2.538 0 0 0-3.601 0l-1.145 1.156-1.322-1.333a2.538 2.538 0 0 0-3.601 0l-7.026 7.026c-.052.052-.052.136 0 .198a2.425 2.425 0 0 0 3.414 0l4.528-4.528a1.25 1.25 0 0 1 1.769 0l.333.333a.15.15 0 0 1 0 .219l-3.778 3.778c-.052.052-.052.136 0 .198a2.425 2.425 0 0 0 3.414 0l4.34-4.34a1.25 1.25 0 0 1 1.77 0l.333.333c.052.052.052.135 0 .198l-3.643 3.643c-.052.052-.052.135 0 .197a2.425 2.425 0 0 0 3.414 0l4.195-4.194c.489-.49 1.28-.49 1.769 0l.718.718a.735.735 0 0 1 0 1.03l-.114.115a.736.736 0 0 1-1.031 0l-.926-.927c-.052-.052-.135-.052-.198 0l-1.603 1.603c-.052.052-.052.136 0 .198l1.447 1.447a2.538 2.538 0 0 0 3.601 0l1.145-1.145-.01-.031Z" fill="#478BF9"/><path d="M283.808 874.534c-20.984 0-37.992 17.008-37.992 37.991 0 20.984 17.008 37.992 37.992 37.992 20.984 0 37.991-17.008 37.991-37.992 0-20.983-17.007-37.991-37.991-37.991Zm1.551 11.73a26.213 26.213 0 0 1 15.925 6.6l-5.485 5.485a18.522 18.522 0 0 0-10.44-4.33v-7.755Zm-3.092 0v7.755a18.448 18.448 0 0 0-10.439 4.33l-5.486-5.485a26.216 26.216 0 0 1 15.925-6.6Zm-18.111 8.785 5.486 5.486a18.516 18.516 0 0 0-4.33 10.44h-7.755a26.22 26.22 0 0 1 6.599-15.926Zm-6.599 19.017h7.755a18.444 18.444 0 0 0 4.33 10.44l-5.486 5.485a26.218 26.218 0 0 1-6.599-15.925Zm24.71 24.71a26.215 26.215 0 0 1-15.925-6.599l5.486-5.485a18.516 18.516 0 0 0 10.439 4.33v7.754Zm-14.426-26.261c0-8.816 7.151-15.967 15.967-15.967s15.967 7.151 15.967 15.967-7.151 15.967-15.967 15.967-15.967-7.151-15.967-15.967Zm17.518 26.261v-7.754a18.453 18.453 0 0 0 10.44-4.33l5.485 5.485a26.212 26.212 0 0 1-15.925 6.599Zm18.111-8.785-5.486-5.485a18.512 18.512 0 0 0 4.33-10.44h7.755a26.218 26.218 0 0 1-6.599 15.925Zm-1.156-19.016a18.434 18.434 0 0 0-4.33-10.44l5.486-5.486a26.22 26.22 0 0 1 6.599 15.926h-7.755Z" fill="#478BF9"/><path d="M248.902 817.71c-19.489-19.49-19.489-51.199 0-70.688 19.49-19.49 51.199-19.49 70.689 0 19.489 19.489 19.489 51.198 0 70.688-19.49 19.489-51.199 19.489-70.689 0Zm68.333-68.333c-18.191-18.191-47.786-18.191-65.972 0-18.191 18.191-18.191 47.786 0 65.972 18.191 18.191 47.786 18.191 65.972 0 18.191-18.191 18.191-47.785 0-65.972Z" fill="#fff"/><path d="M317.774 771.763a1.647 1.647 0 0 1-.398-.645c-1.73-5.119-4.555-9.654-8.394-13.494a34.667 34.667 0 0 0-13.494-8.394 1.666 1.666 0 0 1-1.133-1.578v-12.148a1.667 1.667 0 0 1 2.067-1.616 49.873 49.873 0 0 1 23.158 13.134 49.922 49.922 0 0 1 13.129 23.158c.123.498.01 1.024-.303 1.431-.318.408-.801.64-1.313.64h-12.148c-.455 0-.872-.185-1.18-.493l.009.005Zm-6.436-16.494a37.976 37.976 0 0 1 8.792 13.65h8.787a46.601 46.601 0 0 0-11.688-19.542 46.563 46.563 0 0 0-19.537-11.683v8.787a37.87 37.87 0 0 1 13.65 8.792l-.004-.004ZM248.901 817.71a49.915 49.915 0 0 1-13.134-23.159 1.672 1.672 0 0 1 .304-1.426c.317-.408.801-.64 1.313-.64h12.147c.716 0 1.351.455 1.579 1.133 1.73 5.119 4.555 9.654 8.394 13.494a34.667 34.667 0 0 0 13.494 8.394 1.662 1.662 0 0 1 1.133 1.578v12.148c0 .512-.237.995-.64 1.313a1.674 1.674 0 0 1-1.432.303 49.927 49.927 0 0 1-23.158-13.129v-.009Zm-9.332-21.898a46.601 46.601 0 0 0 11.688 19.542 46.611 46.611 0 0 0 19.542 11.688v-8.787a37.908 37.908 0 0 1-13.651-8.788 37.976 37.976 0 0 1-8.792-13.65h-8.787v-.005ZM294.851 830.403a1.668 1.668 0 0 1-.488-1.18v-12.148c0-.716.455-1.351 1.133-1.579 5.119-1.73 9.655-4.554 13.494-8.394a34.645 34.645 0 0 0 8.394-13.494 1.663 1.663 0 0 1 1.578-1.132h12.148c.512 0 .996.237 1.313.639.318.403.427.934.303 1.427a49.973 49.973 0 0 1-13.133 23.158 49.871 49.871 0 0 1-23.159 13.134 1.672 1.672 0 0 1-1.426-.303c-.052-.048-.105-.09-.152-.138l-.005.01Zm2.844-12.153v8.788a46.613 46.613 0 0 0 19.542-11.689 46.643 46.643 0 0 0 11.688-19.541h-8.787c-1.92 5.147-4.873 9.73-8.792 13.65-3.915 3.915-8.504 6.873-13.651 8.792ZM236.204 771.763a1.669 1.669 0 0 1-.436-1.583 49.872 49.872 0 0 1 13.134-23.158 49.936 49.936 0 0 1 23.158-13.134 1.673 1.673 0 0 1 1.427.303c.403.318.64.801.64 1.313v12.148c0 .716-.455 1.351-1.133 1.578-5.119 1.73-9.655 4.555-13.494 8.394a34.663 34.663 0 0 0-8.394 13.494 1.663 1.663 0 0 1-1.578 1.133H237.38c-.446 0-.873-.175-1.181-.483l.005-.005Zm34.591-34.069a46.611 46.611 0 0 0-19.542 11.688 46.653 46.653 0 0 0-11.688 19.542h8.787c1.92-5.147 4.872-9.731 8.792-13.651a37.985 37.985 0 0 1 13.651-8.792v-8.787Z" fill="#fff"/><path d="M311.342 755.269c-14.94-14.94-39.255-14.945-54.194 0-14.944 14.944-14.94 39.254 0 54.194 14.939 14.939 39.249 14.944 54.194 0 14.944-14.945 14.939-39.255 0-54.194Z" fill="#fff"/><path d="m298.065 796.043-27.528.183a2.1 2.1 0 0 0-2.086 2.113l.007.981a2.099 2.099 0 0 0 2.113 2.086l27.528-.182a2.1 2.1 0 0 0 2.086-2.114l-.007-.981a2.1 2.1 0 0 0-2.113-2.086ZM274.287 779.427a2.02 2.02 0 0 1-.876-.199l-2.147-1.038a1.983 1.983 0 0 1-.972-2.521l.986-2.456a1.976 1.976 0 0 1 2.815-.981l2.56 1.46a1.983 1.983 0 0 1 .649 2.844l-1.403 2.033a1.969 1.969 0 0 1-1.616.854l.004.004ZM294.102 779.295a1.986 1.986 0 0 1-1.625-.835l-1.389-1.957a1.982 1.982 0 0 1 .611-2.853l2.64-1.55c.299-.176.64-.271.986-.275a1.984 1.984 0 0 1 1.844 1.218l.995 2.384a1.992 1.992 0 0 1-.938 2.536l-2.247 1.123c-.27.133-.573.209-.872.209h-.005Z" fill="#110A1D"/><path d="M272.125 794.386a2.86 2.86 0 0 1-2.706-1.887l-4.593-12.641a4.804 4.804 0 0 1-2.062.474 4.849 4.849 0 0 1-4.877-4.81 4.854 4.854 0 0 1 4.815-4.882 4.848 4.848 0 0 1 4.878 4.815c0 .616-.105 1.209-.323 1.763a5.22 5.22 0 0 1-.436.868l8.735 4.228 6.684-9.684a4.878 4.878 0 0 1-2.053-1.654 4.824 4.824 0 0 1-.896-2.773 4.854 4.854 0 0 1 5.176-4.872 4.858 4.858 0 0 1 4.503 4.474 4.837 4.837 0 0 1-2.1 4.366 4.367 4.367 0 0 1-.801.44l6.802 9.584 8.593-4.299a5.022 5.022 0 0 1-.384-.967 4.7 4.7 0 0 1-.175-1.265c0-.195.009-.389.028-.578a4.844 4.844 0 0 1 4.782-4.299 4.847 4.847 0 0 1 .37 9.683l-.303.009c-.493 0-.977-.066-1.446-.208a4.78 4.78 0 0 1-.872-.365l-4.313 12.394a2.863 2.863 0 0 1-2.683 1.92l-24.343.161v.005Z" fill="#110A1D"/><path d="M283.393 711.23c-12.699 0-25.387-4.829-35.057-14.499-19.328-19.329-19.328-50.773 0-70.102 9.368-9.368 21.817-14.52 35.057-14.52 13.24 0 25.688 5.152 35.056 14.52 19.329 19.329 19.329 50.773 0 70.102-9.659 9.659-22.358 14.499-35.056 14.499Zm-32.454-17.101c17.892 17.892 47.005 17.892 64.897 0 17.893-17.893 17.893-47.006 0-64.898-8.67-8.671-20.192-13.438-32.454-13.438-12.261 0-23.783 4.778-32.454 13.438-17.892 17.892-17.892 47.005 0 64.898h.011Z" fill="#9DADF2"/><path d="M282.737 680.223c.177.427.593.676 1.031.676.145 0 .291-.031.437-.083a25.708 25.708 0 0 0 9.201-6.568 1.116 1.116 0 0 0-.094-1.571 1.116 1.116 0 0 0-1.571.093 23.283 23.283 0 0 1-8.4 5.996 1.117 1.117 0 0 0-.594 1.457h-.01Z" fill="#9DADF2"/><path d="m302.283 644.542-18.486-7.39a1.148 1.148 0 0 0-.832 0l-18.486 7.39a1.097 1.097 0 0 0-.698 1.031v13.239c.021 12.22 7.744 23.264 19.215 27.469a1.213 1.213 0 0 0 .77 0c11.47-4.216 19.194-15.249 19.214-27.469v-13.239c0-.458-.27-.864-.697-1.031Zm-1.53 14.27c-.021 11.117-6.995 21.244-17.362 25.231-10.367-3.987-17.351-14.114-17.372-25.231v-12.48l17.372-6.942 17.362 6.942v12.48Z" fill="#9DADF2"/><path d="M275.669 646.28a1.109 1.109 0 0 0-.854 0l-4.403 1.759a1.097 1.097 0 0 0-.697 1.031v4.694a1.115 1.115 0 0 0 2.227 0v-3.934l3.695-1.478c.281-.115.49-.323.614-.604a1.1 1.1 0 0 0 0-.854 1.139 1.139 0 0 0-.593-.614h.011Z" fill="#9DADF2"/><path d="M311.536 633.53c-7.515-7.526-17.518-11.658-28.155-11.658-10.638 0-20.63 4.143-28.156 11.658-15.519 15.519-15.519 40.781 0 56.311 7.765 7.764 17.955 11.636 28.156 11.636 10.2 0 20.39-3.882 28.155-11.636 15.519-15.52 15.519-40.782 0-56.311Zm-5.506 25.282c.031 14.125-8.993 26.48-22.451 30.758a.638.638 0 0 1-.396 0c-13.458-4.278-22.483-16.633-22.451-30.758v-15.623c0-.26.156-.5.405-.604l22.004-8.795a.616.616 0 0 1 .24-.042c.083 0 .166.011.239.042l22.004 8.806c.25.093.406.333.406.603v15.624-.011Z" fill="#9DADF2"/><path d="M283.537 584.619c-27.322 0-49.545-22.233-49.545-49.545s22.233-49.545 49.545-49.545c27.313 0 49.546 22.233 49.546 49.545s-22.233 49.545-49.546 49.545Zm0-95.79c-25.501 0-46.245 20.744-46.245 46.245 0 25.501 20.744 46.246 46.245 46.246 25.502 0 46.246-20.745 46.246-46.246s-20.744-46.245-46.246-46.245Z" fill="#fff"/><path d="M299.608 504.129c-.25 0-.5-.052-.729-.166a34.318 34.318 0 0 0-15.342-3.581 34.318 34.318 0 0 0-15.342 3.581 1.65 1.65 0 0 1-1.895-.312l-8.514-8.515a1.64 1.64 0 0 1-.468-1.374c.062-.51.354-.957.791-1.217a49.451 49.451 0 0 1 25.439-7.026 49.547 49.547 0 0 1 25.438 7.026c.437.26.729.707.791 1.217.063.51-.114 1.01-.468 1.374l-8.514 8.515a1.68 1.68 0 0 1-1.177.478h-.01Zm-16.071-7.046a37.656 37.656 0 0 1 15.728 3.403l6.161-6.161a46.148 46.148 0 0 0-21.889-5.507 46.148 46.148 0 0 0-21.889 5.507l6.162 6.161a37.648 37.648 0 0 1 15.727-3.403ZM283.535 584.619a49.547 49.547 0 0 1-25.438-7.026 1.64 1.64 0 0 1-.791-1.217c-.063-.51.114-1.01.468-1.374l8.514-8.515c.5-.499 1.27-.624 1.895-.312a34.318 34.318 0 0 0 15.342 3.581 34.318 34.318 0 0 0 15.342-3.581 1.65 1.65 0 0 1 1.895.312l8.514 8.515c.364.364.531.864.468 1.374-.062.51-.354.957-.791 1.217a49.45 49.45 0 0 1-25.438 7.026h.02Zm-21.889-8.805a46.162 46.162 0 0 0 21.889 5.506 46.163 46.163 0 0 0 21.89-5.506l-6.162-6.162a37.653 37.653 0 0 1-15.728 3.403 37.648 37.648 0 0 1-15.727-3.403l-6.162 6.162ZM324.643 561.304a1.64 1.64 0 0 1-1.166-.479l-8.514-8.514a1.65 1.65 0 0 1-.312-1.894 34.321 34.321 0 0 0 3.58-15.343 34.317 34.317 0 0 0-3.58-15.342 1.645 1.645 0 0 1 .312-1.894l8.514-8.515a1.642 1.642 0 0 1 1.374-.468c.51.062.958.354 1.218.791a49.451 49.451 0 0 1 7.026 25.439 49.45 49.45 0 0 1-7.026 25.438c-.26.438-.708.729-1.218.791h-.208v-.01Zm-6.526-10.513 6.162 6.162a46.147 46.147 0 0 0 5.506-21.889 46.147 46.147 0 0 0-5.506-21.889l-6.162 6.161a37.638 37.638 0 0 1 3.404 15.728 37.634 37.634 0 0 1-3.404 15.727ZM242.434 561.304c-.073 0-.135 0-.198-.01a1.65 1.65 0 0 1-1.218-.791 49.465 49.465 0 0 1-7.025-25.439 49.463 49.463 0 0 1 7.025-25.439 1.65 1.65 0 0 1 1.218-.791c.51-.062 1.01.115 1.374.468l8.514 8.515c.5.499.625 1.27.313 1.894a34.318 34.318 0 0 0-3.581 15.342 34.322 34.322 0 0 0 3.581 15.343 1.644 1.644 0 0 1-.313 1.894l-8.514 8.514c-.312.313-.728.49-1.166.49l-.01.01Zm.364-48.129a46.147 46.147 0 0 0-5.506 21.889 46.147 46.147 0 0 0 5.506 21.889l6.162-6.162a37.648 37.648 0 0 1-3.403-15.727 37.656 37.656 0 0 1 3.403-15.728l-6.162-6.161Z" fill="#fff"/><path d="M283.539 497.083c-20.943 0-37.992 17.039-37.992 37.991 0 20.953 17.039 37.992 37.992 37.992 20.952 0 37.991-17.039 37.991-37.992 0-20.952-17.039-37.991-37.991-37.991Zm21.379 25.511a24.47 24.47 0 0 1 3.247 10.013.366.366 0 0 1-.177.354 31.852 31.852 0 0 0-7.254 6.089.342.342 0 0 1-.386.105l-4.694-1.531a.36.36 0 0 1-.25-.301 32.666 32.666 0 0 0-3.591-11.054.367.367 0 0 1 .032-.385l2.904-3.997a.393.393 0 0 1 .301-.157h.084c3.102.687 6.287.916 9.451.656a.379.379 0 0 1 .354.188l-.021.02Zm-12.074 15.384a.382.382 0 0 1-.083.281 24.863 24.863 0 0 1-9.077 6.579.336.336 0 0 1-.281 0 25.103 25.103 0 0 1-9.076-6.579.374.374 0 0 1-.083-.281 30.138 30.138 0 0 1 3.476-10.7.348.348 0 0 1 .24-.177 27.171 27.171 0 0 1 5.589-.583c1.884 0 3.757.198 5.589.583a.35.35 0 0 1 .24.177 30.36 30.36 0 0 1 3.476 10.7h-.01Zm-.562-25.834s.125-.104.25-.104c.041 0 .093 0 .145.031 3.831 1.52 7.255 4.018 9.92 7.213a.348.348 0 0 1 .052.386.358.358 0 0 1-.333.218 28.645 28.645 0 0 1-6.995-.781.367.367 0 0 1-.229-.166 29.508 29.508 0 0 1-2.904-6.422.347.347 0 0 1 .104-.375h-.01Zm-14-1.249a25.25 25.25 0 0 1 10.523 0 .37.37 0 0 1 .281.271 31.894 31.894 0 0 0 3.55 8.785.383.383 0 0 1-.021.406l-2.883 3.976a.361.361 0 0 1-.365.145 29.65 29.65 0 0 0-11.647 0 .36.36 0 0 1-.364-.145l-2.883-3.976a.38.38 0 0 1-.021-.406 31.923 31.923 0 0 0 3.549-8.785.371.371 0 0 1 .281-.271Zm-13.791 8.389c2.664-3.205 6.089-5.704 9.919-7.213a.354.354 0 0 1 .396.073.354.354 0 0 1 .104.375 29.295 29.295 0 0 1-2.904 6.422.37.37 0 0 1-.229.166c-2.28.542-4.632.812-6.995.781a.358.358 0 0 1-.333-.218.348.348 0 0 1 .052-.386h-.01Zm-2.321 3.31a.367.367 0 0 1 .322-.187h.031c3.175.25 6.36.031 9.452-.656a.352.352 0 0 1 .374.146l2.904 3.997a.369.369 0 0 1 .031.385 32.702 32.702 0 0 0-3.591 11.054.387.387 0 0 1-.249.302l-4.695 1.53a.378.378 0 0 1-.385-.104 31.785 31.785 0 0 0-7.255-6.089.39.39 0 0 1-.177-.354 24.418 24.418 0 0 1 3.248-10.013l-.01-.011Zm1.134 25.647a.364.364 0 0 1-.312.25c-.073 0-.24 0-.354-.166a24.697 24.697 0 0 1-3.789-11.669.355.355 0 0 1 .188-.343c.062-.031.229-.104.395.021a28.867 28.867 0 0 1 5.204 4.746.355.355 0 0 1 .084.271 28.588 28.588 0 0 1-1.426 6.901l.01-.011Zm10.284 9.503c-3.248-1.426-6.11-3.518-8.504-6.203a.375.375 0 0 1-.073-.385 31.859 31.859 0 0 0 2.29-9.191.357.357 0 0 1 .25-.312l4.642-1.51s.073-.02.115-.02a.35.35 0 0 1 .27.124 27.691 27.691 0 0 0 9.43 6.86.361.361 0 0 1 .219.333v4.881a.351.351 0 0 1-.219.333 31.86 31.86 0 0 0-8.045 5.028.351.351 0 0 1-.386.052l.011.01Zm16.373 1.031a.348.348 0 0 1-.271.291 25.03 25.03 0 0 1-12.282 0 .364.364 0 0 1-.271-.291.368.368 0 0 1 .146-.375 29.04 29.04 0 0 1 6.131-3.487.336.336 0 0 1 .281 0 29.564 29.564 0 0 1 6.13 3.487.383.383 0 0 1 .146.375h-.01Zm12.063-7.224a24.535 24.535 0 0 1-8.504 6.193.364.364 0 0 1-.385-.052 31.642 31.642 0 0 0-8.046-5.027.363.363 0 0 1-.218-.333v-4.882c0-.146.083-.281.218-.333a27.6 27.6 0 0 0 9.431-6.859.349.349 0 0 1 .27-.125c.042 0 .073 0 .115.021l4.642 1.509a.36.36 0 0 1 .25.312 31.94 31.94 0 0 0 2.29 9.191.355.355 0 0 1-.073.385h.01Zm2.436-3.216a.355.355 0 0 1-.354.166.358.358 0 0 1-.312-.249 29.527 29.527 0 0 1-1.426-6.901c0-.094.021-.198.083-.271a29.313 29.313 0 0 1 5.204-4.746.362.362 0 0 1 .208-.073c.084 0 .146.031.188.052a.34.34 0 0 1 .187.343 24.697 24.697 0 0 1-3.789 11.669l.011.01Z" fill="#fff"/><path d="M283.393 461.162c-12.699 0-25.387-4.829-35.057-14.499-19.328-19.329-19.328-50.773 0-70.102 9.368-9.368 21.817-14.52 35.057-14.52 13.24 0 25.688 5.152 35.056 14.52 19.329 19.329 19.329 50.773 0 70.102-9.659 9.659-22.358 14.499-35.056 14.499Zm-32.454-17.101c17.892 17.893 47.005 17.893 64.897 0 17.893-17.892 17.893-47.005 0-64.898-8.67-8.67-20.192-13.437-32.454-13.437-12.261 0-23.783 4.777-32.454 13.437-17.892 17.893-17.892 47.006 0 64.898h.011Z" fill="#9DADF2"/><path d="M282.737 430.165c.177.427.593.677 1.031.677.145 0 .291-.031.437-.083a25.708 25.708 0 0 0 9.201-6.568 1.117 1.117 0 0 0-.094-1.572 1.116 1.116 0 0 0-1.571.094 23.268 23.268 0 0 1-8.4 5.995c-.562.24-.833.895-.594 1.457h-.01Z" fill="#9DADF2"/><path d="m302.283 394.474-18.486-7.39a1.148 1.148 0 0 0-.832 0l-18.486 7.39a1.097 1.097 0 0 0-.698 1.031v13.239c.021 12.22 7.744 23.264 19.215 27.469a1.213 1.213 0 0 0 .77 0c11.47-4.216 19.194-15.249 19.214-27.469v-13.239c0-.458-.27-.864-.697-1.031Zm-1.53 14.27c-.021 11.117-6.995 21.244-17.362 25.231-10.367-3.987-17.351-14.114-17.372-25.231v-12.48l17.372-6.942 17.362 6.942v12.48Z" fill="#9DADF2"/><path d="M275.669 396.212a1.109 1.109 0 0 0-.854 0l-4.403 1.759a1.097 1.097 0 0 0-.697 1.031v4.694a1.115 1.115 0 0 0 2.227 0v-3.934l3.695-1.478c.281-.115.49-.323.614-.604a1.1 1.1 0 0 0 0-.854 1.139 1.139 0 0 0-.593-.614h.011Z" fill="#9DADF2"/><path d="M311.536 383.462c-7.515-7.526-17.518-11.658-28.155-11.658-10.638 0-20.63 4.143-28.156 11.658-15.519 15.519-15.519 40.781 0 56.311 7.765 7.764 17.955 11.636 28.156 11.636 10.2 0 20.39-3.882 28.155-11.636 15.519-15.52 15.519-40.781 0-56.311Zm-5.506 25.282c.031 14.125-8.993 26.48-22.451 30.758a.638.638 0 0 1-.396 0c-13.458-4.278-22.483-16.633-22.451-30.758v-15.623c0-.26.156-.5.405-.604l22.004-8.795a.616.616 0 0 1 .24-.042c.083 0 .166.011.239.042l22.004 8.806c.25.094.406.333.406.603v15.624-.011Z" fill="#9DADF2"/><path d="M283.807 338.851c-27.323 0-49.545-22.233-49.545-49.545 0-27.313 22.233-49.546 49.545-49.546s49.545 22.233 49.545 49.546c0 27.312-22.233 49.545-49.545 49.545Zm0-95.791c-25.501 0-46.246 20.744-46.246 46.246 0 25.501 20.745 46.245 46.246 46.245s46.245-20.744 46.245-46.245c0-25.502-20.744-46.246-46.245-46.246Z" fill="#478BF9"/><path d="m316.128 253.959-15.339 15.338 3.018 3.018 15.338-15.339-3.017-3.017ZM263.334 306.751l-15.338 15.338 3.018 3.017 15.338-15.338-3.018-3.017ZM304.272 306.766l-3.018 3.017 15.338 15.338 3.018-3.017-15.338-15.338ZM251.01 253.497l-3.018 3.018 15.331 15.331 3.018-3.018-15.331-15.331ZM295.891 290.638a2.54 2.54 0 0 0 0-3.602l-2.123-2.113a2.54 2.54 0 0 0-3.602 0l-1.145 1.145-1.322-1.322a2.538 2.538 0 0 0-3.601 0l-1.145 1.156-1.322-1.333a2.538 2.538 0 0 0-3.601 0l-7.026 7.026c-.052.052-.052.136 0 .198a2.425 2.425 0 0 0 3.414 0l4.528-4.528a1.25 1.25 0 0 1 1.769 0l.333.333a.15.15 0 0 1 0 .219l-3.778 3.778c-.052.052-.052.136 0 .198a2.425 2.425 0 0 0 3.414 0l4.34-4.34a1.25 1.25 0 0 1 1.77 0l.333.333c.052.052.052.135 0 .198l-3.643 3.643c-.052.052-.052.135 0 .197a2.425 2.425 0 0 0 3.414 0l4.195-4.194c.489-.49 1.28-.49 1.769 0l.718.718a.735.735 0 0 1 0 1.03l-.114.115a.736.736 0 0 1-1.031 0l-.926-.927c-.052-.052-.135-.052-.198 0l-1.603 1.603c-.052.052-.052.136 0 .198l1.447 1.447a2.538 2.538 0 0 0 3.601 0l1.145-1.145-.01-.031Z" fill="#478BF9"/><path d="M283.808 251.314c-20.984 0-37.992 17.008-37.992 37.991 0 20.984 17.008 37.992 37.992 37.992 20.984 0 37.991-17.008 37.991-37.992 0-20.983-17.007-37.991-37.991-37.991Zm1.551 11.731a26.206 26.206 0 0 1 15.925 6.599l-5.485 5.485a18.522 18.522 0 0 0-10.44-4.33v-7.754Zm-3.092 0v7.754a18.448 18.448 0 0 0-10.439 4.33l-5.486-5.485a26.209 26.209 0 0 1 15.925-6.599Zm-18.111 8.784 5.486 5.486a18.516 18.516 0 0 0-4.33 10.44h-7.755a26.22 26.22 0 0 1 6.599-15.926Zm-6.599 19.017h7.755a18.444 18.444 0 0 0 4.33 10.44l-5.486 5.485a26.218 26.218 0 0 1-6.599-15.925Zm24.71 24.71a26.215 26.215 0 0 1-15.925-6.599l5.486-5.485a18.516 18.516 0 0 0 10.439 4.33v7.754Zm-14.426-26.261c0-8.816 7.151-15.967 15.967-15.967s15.967 7.151 15.967 15.967-7.151 15.967-15.967 15.967-15.967-7.151-15.967-15.967Zm17.518 26.261v-7.754a18.453 18.453 0 0 0 10.44-4.33l5.485 5.485a26.212 26.212 0 0 1-15.925 6.599Zm18.111-8.785-5.486-5.485a18.512 18.512 0 0 0 4.33-10.44h7.755a26.218 26.218 0 0 1-6.599 15.925Zm-1.156-19.016a18.434 18.434 0 0 0-4.33-10.44l5.486-5.486a26.22 26.22 0 0 1 6.599 15.926h-7.755Z" fill="#478BF9"/><path d="M234.742 156.75a1.78 1.78 0 1 1 3.56 0c0 25.356 20.63 45.985 45.985 45.985 25.356 0 45.986-20.629 45.986-45.985a1.779 1.779 0 1 1 3.559 0c0 27.323-22.233 49.556-49.555 49.556-27.323 0-49.556-22.233-49.556-49.556h.021Z" fill="#fff"/><path d="m298.061 172.823-27.528.183a2.099 2.099 0 0 0-2.086 2.113l.007.981a2.099 2.099 0 0 0 2.113 2.086l27.528-.183a2.1 2.1 0 0 0 2.086-2.113l-.007-.981a2.1 2.1 0 0 0-2.113-2.086ZM274.283 156.207c-.298 0-.602-.066-.876-.199l-2.148-1.038a1.984 1.984 0 0 1-.971-2.522l.986-2.455a1.977 1.977 0 0 1 2.815-.981l2.559 1.46c.479.27.825.739.948 1.28.124.54.015 1.109-.298 1.564l-1.403 2.033a1.968 1.968 0 0 1-1.616.853l.004.005ZM294.102 156.074a1.988 1.988 0 0 1-1.626-.834l-1.388-1.957c-.323-.451-.436-1.019-.323-1.56.114-.54.455-1.014.934-1.294l2.64-1.55a1.982 1.982 0 0 1 2.83.944l.995 2.384a1.99 1.99 0 0 1-.938 2.535l-2.247 1.124c-.27.132-.574.208-.872.208h-.005Z" fill="#110A1D"/><path d="M272.121 171.165a2.86 2.86 0 0 1-2.707-1.886l-4.592-12.641a4.926 4.926 0 0 1-.925.332 4.6 4.6 0 0 1-1.137.142 4.85 4.85 0 0 1-4.877-4.811 4.855 4.855 0 0 1 4.815-4.882 4.848 4.848 0 0 1 4.555 6.579 5.22 5.22 0 0 1-.436.868l8.735 4.227 6.683-9.683a4.547 4.547 0 0 1-.805-.441 4.874 4.874 0 0 1-1.247-1.213 4.824 4.824 0 0 1-.896-2.773 4.856 4.856 0 0 1 5.176-4.872 4.858 4.858 0 0 1 4.503 4.474 4.837 4.837 0 0 1-2.1 4.365 4.313 4.313 0 0 1-.801.441l6.802 9.584 8.593-4.299a5.022 5.022 0 0 1-.384-.967 4.706 4.706 0 0 1-.176-1.265 4.845 4.845 0 1 1 9.688-.062 4.854 4.854 0 0 1-4.507 4.868l-.303.009c-.493 0-.977-.066-1.446-.208a4.78 4.78 0 0 1-.872-.365l-4.313 12.394a2.863 2.863 0 0 1-2.683 1.92l-24.343.161v.004Z" fill="#110A1D"/><path d="M333.821 38.27v119.595a1.779 1.779 0 1 1-3.559 0V38.27a1.779 1.779 0 1 1 3.559 0ZM238.278 38.01v119.595a1.779 1.779 0 1 1-3.559 0V38.01a1.779 1.779 0 1 1 3.559 0Z" fill="#fff"/></g><g opacity=".6"><path d="M116.957 1087.91c0-27.32 22.233-49.55 49.556-49.55 27.322 0 49.555 22.23 49.555 49.55 0 27.32-22.233 49.56-49.555 49.56-27.323 0-49.556-22.24-49.556-49.56Zm95.541 0c0-25.35-20.63-45.98-45.985-45.98-25.356 0-45.986 20.63-45.986 45.98 0 25.36 20.63 45.99 45.986 45.99 25.355 0 45.985-20.63 45.985-45.99ZM116.954 1209.06a1.779 1.779 0 1 1 3.56 0c0 25.35 20.63 45.98 45.986 45.98 25.355 0 45.985-20.63 45.985-45.98 0-.99.801-1.78 1.78-1.78.978 0 1.78.8 1.78 1.78 0 27.32-22.233 49.55-49.556 49.55-27.323 0-49.555-22.23-49.555-49.55h.02Z" fill="#478BF9"/><path d="M214.554 1086.71h-21.702v4.28h21.702v-4.28ZM139.831 1086.71h-21.702v4.28h21.702v-4.28ZM168.821 1115.69h-4.278v21.7h4.278v-21.7ZM168.821 1040.31h-4.278v21.7h4.278v-21.7Z" fill="#478BF9"/><path d="M192.196 1061.7c-14.843-14.84-38.918-14.84-53.771 0-14.843 14.85-14.843 38.92 0 53.77 14.843 14.85 38.918 14.85 53.771 0 14.843-14.84 14.843-38.91 0-53.77Zm-19.537 3.22a24.79 24.79 0 0 1 11.231 7.26l.583.66-.854.2c-2.258.53-4.673.97-7.171 1.29l-.448.06-.125-.44c-.416-1.42-.905-2.8-1.467-4.07-.698-1.59-1.478-2.98-2.332-4.16l-.937-1.28 1.52.47v.01Zm-17.372 22.48.021-.54c.104-3.29.468-6.43 1.093-9.33l.093-.45.469.04c5.475.48 11.324.46 16.768-.05l.468-.05.105.46c.635 2.93.999 6.08 1.093 9.38v.54H155.287Zm20.11 2.42v.54c-.115 3.3-.479 6.45-1.114 9.38l-.104.45-.469-.04c-5.443-.51-11.293-.52-16.768-.05l-.468.04-.094-.46c-.625-2.89-.989-6.02-1.093-9.32l-.021-.54h20.131Zm-10.055-25.81c3.029 0 6.11 3.84 8.035 10.04l.198.62-.656.05c-2.56.22-5.204.34-7.858.34-2.467 0-4.924-.1-7.318-.29l-.655-.06.197-.63c1.926-6.22 5.017-10.08 8.057-10.08v.01Zm-18.653 8.29a24.757 24.757 0 0 1 11.335-7.37l1.531-.47-.948 1.29c-.853 1.17-1.644 2.57-2.331 4.15a33.795 33.795 0 0 0-1.489 4.15l-.124.42-.448-.05a70.373 70.373 0 0 1-7.244-1.26l-.864-.2.582-.66Zm-6.078 14.54a24.818 24.818 0 0 1 3.768-11.46l.208-.32.375.09c2.664.68 5.537 1.22 8.556 1.6l.562.08-.115.56c-.624 3.02-.978 6.21-1.072 9.5v.51H140.58l.041-.56h-.01Zm3.976 15.32-.208-.32a24.818 24.818 0 0 1-3.768-11.46l-.042-.56h12.303v.51c.104 3.29.469 6.49 1.083 9.5l.114.56-.562.07c-3.008.39-5.891.93-8.556 1.61l-.374.09h.01Zm13.437 10.14a24.757 24.757 0 0 1-11.335-7.37l-.582-.67.864-.19c2.289-.52 4.725-.95 7.244-1.26l.448-.06.124.43c.438 1.5.937 2.89 1.489 4.14.697 1.6 1.478 2.99 2.331 4.17l.948 1.29-1.531-.47v-.01Zm7.318.9c-3.04 0-6.131-3.86-8.057-10.07l-.197-.64.655-.05a94.918 94.918 0 0 1 15.176.04l.656.06-.198.62c-1.936 6.18-5.017 10.03-8.035 10.03v.01Zm18.548-8.17a24.782 24.782 0 0 1-11.231 7.27l-1.52.47.937-1.28c.854-1.17 1.634-2.57 2.332-4.17a35.1 35.1 0 0 0 1.467-4.07l.125-.43.448.06c2.498.32 4.913.76 7.171 1.29l.854.21-.583.65Zm6.172-14.65a24.751 24.751 0 0 1-3.84 11.58l-.209.33-.374-.1c-2.634-.7-5.496-1.25-8.494-1.65l-.562-.08.115-.55c.624-3.02.988-6.23 1.082-9.57v-.51h12.313l-.041.56.01-.01Zm-12.261-2.98v-.51c-.104-3.34-.468-6.57-1.093-9.57l-.114-.56.562-.07c2.997-.41 5.849-.96 8.493-1.65l.375-.1.208.32a24.679 24.679 0 0 1 3.841 11.59l.041.56h-12.303l-.01-.01ZM116.895 1209.81v-119.6c0-.99.801-1.78 1.78-1.78.978 0 1.78.8 1.78 1.78v119.6a1.779 1.779 0 1 1-3.56 0ZM212.445 1210.08v-119.6a1.779 1.779 0 1 1 3.56 0v119.6c0 .99-.801 1.78-1.78 1.78-.978 0-1.78-.8-1.78-1.78Z" fill="#478BF9"/><path d="M132.027 1000.9c-19.489-19.488-19.489-51.197 0-70.686 19.49-19.49 51.199-19.49 70.689 0 19.489 19.489 19.489 51.198 0 70.686-19.49 19.49-51.199 19.49-70.689 0Zm68.333-68.331c-18.191-18.191-47.786-18.191-65.972 0-18.191 18.191-18.191 47.786 0 65.973 18.191 18.188 47.786 18.188 65.972 0 18.191-18.192 18.191-47.786 0-65.973Z" fill="#fff"/><path d="M200.899 954.955a1.647 1.647 0 0 1-.398-.645c-1.73-5.118-4.555-9.654-8.394-13.493a34.658 34.658 0 0 0-13.494-8.395 1.666 1.666 0 0 1-1.133-1.578v-12.148a1.667 1.667 0 0 1 2.067-1.616 49.863 49.863 0 0 1 23.158 13.134 49.918 49.918 0 0 1 13.129 23.158c.124.498.01 1.024-.303 1.431-.318.408-.801.64-1.313.64H202.07c-.455 0-.872-.185-1.18-.493l.009.005Zm-6.436-16.494a37.976 37.976 0 0 1 8.792 13.65h8.788a46.613 46.613 0 0 0-11.689-19.542 46.567 46.567 0 0 0-19.537-11.683v8.787a37.855 37.855 0 0 1 13.651 8.793l-.005-.005ZM132.026 1000.9a49.898 49.898 0 0 1-13.133-23.156 1.67 1.67 0 0 1 .303-1.427c.317-.408.801-.64 1.313-.64h12.148c.715 0 1.35.455 1.578 1.133 1.73 5.119 4.555 9.655 8.394 13.494a34.667 34.667 0 0 0 13.494 8.394 1.663 1.663 0 0 1 1.133 1.582v12.14c0 .52-.237 1-.64 1.32-.408.31-.934.42-1.431.3a49.923 49.923 0 0 1-23.159-13.13v-.01Zm-9.332-21.896a46.601 46.601 0 0 0 11.688 19.542 46.52 46.52 0 0 0 19.542 11.684v-8.78a37.956 37.956 0 0 1-13.651-8.791 37.99 37.99 0 0 1-8.792-13.65h-8.787v-.005ZM177.976 1013.59a1.654 1.654 0 0 1-.488-1.18v-12.14c0-.719.455-1.354 1.133-1.581 5.119-1.73 9.655-4.555 13.494-8.395a34.645 34.645 0 0 0 8.394-13.494 1.664 1.664 0 0 1 1.578-1.132h12.148c.512 0 .996.237 1.313.64.318.402.427.933.304 1.426a49.967 49.967 0 0 1-13.134 23.156 49.832 49.832 0 0 1-23.158 13.14c-.498.12-1.024.01-1.427-.31-.052-.04-.104-.09-.152-.13h-.005Zm2.844-12.15v8.79a46.59 46.59 0 0 0 19.542-11.688A46.653 46.653 0 0 0 212.05 979h-8.787c-1.92 5.147-4.873 9.73-8.792 13.65-3.915 3.915-8.503 6.873-13.651 8.79ZM119.329 954.955a1.665 1.665 0 0 1-.436-1.583 49.877 49.877 0 0 1 13.134-23.158 49.936 49.936 0 0 1 23.158-13.134 1.677 1.677 0 0 1 1.427.303c.403.318.64.801.64 1.313v12.148c0 .716-.455 1.351-1.133 1.578-5.119 1.73-9.655 4.555-13.494 8.395a34.671 34.671 0 0 0-8.394 13.493 1.663 1.663 0 0 1-1.578 1.133h-12.148a1.67 1.67 0 0 1-1.18-.483l.004-.005Zm34.591-34.069a46.611 46.611 0 0 0-19.542 11.688 46.653 46.653 0 0 0-11.688 19.542h8.787c1.92-5.147 4.873-9.731 8.792-13.65a37.987 37.987 0 0 1 13.651-8.793v-8.787Z" fill="#fff"/><path d="M194.467 938.461c-14.94-14.94-39.255-14.944-54.194 0-14.944 14.944-14.94 39.254 0 54.194 14.939 14.935 39.249 14.945 54.194 0 14.944-14.945 14.939-39.255 0-54.194Z" fill="#fff"/><path d="m181.194 979.235-27.528.183a2.1 2.1 0 0 0-2.086 2.114l.007.981a2.099 2.099 0 0 0 2.113 2.085l27.528-.182a2.1 2.1 0 0 0 2.086-2.114l-.007-.981a2.1 2.1 0 0 0-2.113-2.086ZM157.416 962.619c-.298 0-.602-.066-.876-.199l-2.148-1.038a1.984 1.984 0 0 1-.971-2.521l.986-2.456a1.976 1.976 0 0 1 2.815-.981l2.56 1.46c.478.27.824.739.947 1.28.124.54.015 1.109-.298 1.564l-1.403 2.033a1.968 1.968 0 0 1-1.616.853l.004.005ZM177.231 962.486a1.985 1.985 0 0 1-1.625-.834l-1.389-1.957a1.98 1.98 0 0 1 .611-2.854l2.64-1.549c.299-.176.64-.271.986-.275a1.984 1.984 0 0 1 1.844 1.218l.995 2.384a1.992 1.992 0 0 1-.938 2.536l-2.247 1.123c-.27.133-.573.208-.872.208h-.005Z" fill="#110A1D"/><path d="M155.254 977.578a2.861 2.861 0 0 1-2.707-1.887l-4.592-12.64a4.853 4.853 0 0 1-.925.331 4.601 4.601 0 0 1-1.137.143c-.223 0-.441-.01-.654-.038a4.85 4.85 0 0 1-4.223-4.773 4.855 4.855 0 0 1 4.815-4.882 4.847 4.847 0 0 1 4.555 6.579 5.25 5.25 0 0 1-.436.867l8.735 4.228 6.683-9.684a4.878 4.878 0 0 1-2.052-1.654 4.823 4.823 0 0 1-.896-2.772 4.855 4.855 0 0 1 4.816-4.882c.118 0 .242 0 .36.009a4.858 4.858 0 0 1 4.503 4.474 4.835 4.835 0 0 1-.863 3.143 4.889 4.889 0 0 1-1.237 1.223 4.433 4.433 0 0 1-.801.441l6.802 9.583 8.593-4.299a5.022 5.022 0 0 1-.384-.967 4.7 4.7 0 0 1-.176-1.265 4.844 4.844 0 0 1 4.811-4.877 4.847 4.847 0 0 1 .37 9.683l-.303.009c-.493 0-.977-.066-1.446-.208a4.71 4.71 0 0 1-.872-.365l-4.313 12.394a2.861 2.861 0 0 1-2.683 1.92l-24.343.161v.005Z" fill="#110A1D"/><path d="M166.963 887.857c-12.698 0-25.387-4.829-35.056-14.499-19.329-19.329-19.329-50.773 0-70.102 9.368-9.368 21.816-14.52 35.056-14.52 13.24 0 25.689 5.152 35.056 14.52 19.329 19.329 19.329 50.773 0 70.102-9.659 9.659-22.357 14.499-35.056 14.499Zm-32.454-17.101c17.892 17.892 47.005 17.892 64.898 0 17.892-17.893 17.892-47.005 0-64.898-8.671-8.67-20.193-13.438-32.454-13.438-12.262 0-23.784 4.778-32.454 13.438-17.893 17.893-17.893 47.005 0 64.898h.01Z" fill="#7DDACF"/><path d="m168.798 827.873-9.181 12.865h5.506v9.18l9.181-12.855h-5.506v-9.19Z" fill="#7DDACF"/><path d="M166.953 820.722c-10.054 0-18.215 8.16-18.215 18.215s8.161 18.194 18.215 18.194c10.055 0 18.215-8.16 18.215-18.194 0-10.034-8.16-18.215-18.215-18.215Zm0 34.161c-8.826 0-15.987-7.161-15.987-15.988 0-8.826 7.161-15.987 15.987-15.987 8.827 0 15.988 7.161 15.988 15.987 0 8.827-7.161 15.988-15.988 15.988Z" fill="#7DDACF"/><path d="M195.11 810.157c-7.515-7.525-17.517-11.658-28.155-11.658-10.638 0-20.63 4.143-28.155 11.658-15.52 15.519-15.52 40.781 0 56.311 7.764 7.764 17.954 11.647 28.155 11.647 10.2 0 20.39-3.883 28.155-11.647 15.52-15.52 15.52-40.781 0-56.311Zm-28.155 53.49c-13.615 0-24.7-11.085-24.7-24.7 0-6.016 2.155-11.533 5.735-15.842l-3.018-3.018a2.23 2.23 0 0 1 0-3.144c.864-.874 2.269-.864 3.143 0l3.019 3.019c3.747-3.133 8.462-5.194 13.604-5.631v-2.04h-2.04c-1.801 0-3.289-1.489-3.289-3.289v-1.718a3.296 3.296 0 0 1 3.289-3.289h8.535a3.296 3.296 0 0 1 3.289 3.289v1.718c0 1.8-1.488 3.289-3.289 3.289h-2.04v2.04c5.152.447 9.857 2.508 13.604 5.631l3.018-3.019a2.23 2.23 0 0 1 3.144 0 2.23 2.23 0 0 1 0 3.144l-3.019 3.018c3.581 4.309 5.735 9.816 5.735 15.842 0 13.615-11.085 24.7-24.699 24.7h-.021Z" fill="#7DDACF"/><path d="M165.955 769.574c-27.322 0-49.545-22.233-49.545-49.545 0-27.313 22.233-49.546 49.545-49.546 27.313 0 49.545 22.233 49.545 49.546 0 27.312-22.232 49.545-49.545 49.545Zm0-95.791c-25.501 0-46.245 20.744-46.245 46.246 0 25.501 20.744 46.245 46.245 46.245 25.501 0 46.246-20.744 46.246-46.245 0-25.502-20.745-46.246-46.246-46.246Z" fill="#fff"/><path d="m198.283 684.674-15.338 15.339 3.018 3.017 15.338-15.338-3.018-3.018ZM145.487 737.473l-15.339 15.339 3.018 3.017 15.338-15.338-3.017-3.018ZM186.428 737.47l-3.018 3.018 15.338 15.338 3.018-3.017-15.338-15.339ZM133.178 684.209l-3.018 3.018 15.331 15.331 3.017-3.018-15.33-15.331ZM178.051 721.361a2.54 2.54 0 0 0 0-3.602l-2.123-2.112c-1-1-2.613-1-3.602 0l-1.145 1.144-1.321-1.321c-1-1-2.613-1-3.602 0l-1.145 1.155-1.322-1.332c-.999-1-2.612-1-3.601 0l-7.026 7.025c-.052.053-.052.136 0 .198a2.425 2.425 0 0 0 3.414 0l4.528-4.528a1.25 1.25 0 0 1 1.769 0l.333.334a.15.15 0 0 1 0 .218l-3.778 3.778c-.052.053-.052.136 0 .198a2.425 2.425 0 0 0 3.414 0l4.341-4.34a1.25 1.25 0 0 1 1.769 0l.333.333c.052.052.052.135 0 .198l-3.643 3.643c-.052.052-.052.135 0 .197a2.425 2.425 0 0 0 3.414 0l4.195-4.194a1.25 1.25 0 0 1 1.769 0l.718.718a.735.735 0 0 1 0 1.03l-.114.115a.736.736 0 0 1-1.031 0l-.926-.926c-.052-.052-.135-.052-.198 0l-1.603 1.602c-.052.053-.052.136 0 .198l1.447 1.447a2.54 2.54 0 0 0 3.602 0l1.145-1.145-.011-.031Z" fill="#fff"/><path d="M165.956 682.027c-20.983 0-37.991 17.007-37.991 37.991 0 20.984 17.008 37.992 37.991 37.992 20.984 0 37.992-17.008 37.992-37.992 0-20.984-17.008-37.991-37.992-37.991Zm1.551 11.73c6.1.354 11.637 2.79 15.925 6.599l-5.485 5.486a18.51 18.51 0 0 0-10.44-4.33v-7.755Zm-3.091 0v7.755a18.434 18.434 0 0 0-10.44 4.33l-5.485-5.486a26.215 26.215 0 0 1 15.925-6.599Zm-18.111 8.785 5.485 5.485a18.522 18.522 0 0 0-4.33 10.44h-7.754a26.212 26.212 0 0 1 6.599-15.925Zm-6.599 19.017h7.754a18.448 18.448 0 0 0 4.33 10.439l-5.485 5.486a26.215 26.215 0 0 1-6.599-15.925Zm24.71 24.71a26.215 26.215 0 0 1-15.925-6.599l5.485-5.486a18.516 18.516 0 0 0 10.44 4.33v7.755Zm-14.426-26.261c0-8.816 7.15-15.967 15.966-15.967 8.816 0 15.967 7.151 15.967 15.967s-7.151 15.967-15.967 15.967-15.966-7.151-15.966-15.967Zm17.517 26.261v-7.755a18.44 18.44 0 0 0 10.44-4.33l5.485 5.486a26.215 26.215 0 0 1-15.925 6.599Zm18.111-8.785-5.485-5.486a18.516 18.516 0 0 0 4.33-10.439h7.754a26.215 26.215 0 0 1-6.599 15.925Zm-1.155-19.017a18.453 18.453 0 0 0-4.33-10.44l5.485-5.485a26.212 26.212 0 0 1 6.599 15.925h-7.754Z" fill="#fff"/><path d="M116.99 467.786a1.779 1.779 0 1 0 3.56 0c0-25.355 20.63-45.985 45.985-45.985 25.356 0 45.985 20.63 45.985 45.985a1.78 1.78 0 1 0 3.56 0c0-27.323-22.233-49.555-49.555-49.555-27.323 0-49.556 22.232-49.556 49.555h.021ZM116.954 585.838a1.78 1.78 0 1 1 3.56 0c0 25.355 20.63 45.985 45.986 45.985 25.355 0 45.985-20.63 45.985-45.985a1.779 1.779 0 1 1 3.56 0c0 27.323-22.233 49.556-49.556 49.556-27.323 0-49.555-22.233-49.555-49.556h.02Z" fill="#478BF9"/><path d="M116.895 586.587V466.992a1.779 1.779 0 1 1 3.56 0v119.595a1.78 1.78 0 1 1-3.56 0ZM212.445 586.858V467.263a1.78 1.78 0 1 1 3.56 0v119.595a1.779 1.779 0 1 1-3.56 0Z" fill="#478BF9"/><path d="M130.238 377.682c-19.489-19.49-19.489-51.199 0-70.688 19.49-19.49 51.199-19.49 70.689 0 19.489 19.489 19.489 51.198 0 70.688-19.49 19.489-51.199 19.489-70.689 0Zm68.333-68.333c-18.191-18.191-47.786-18.191-65.972 0-18.191 18.191-18.191 47.786 0 65.972 18.191 18.191 47.786 18.191 65.972 0 18.191-18.191 18.191-47.786 0-65.972Z" fill="#fff"/><path d="M199.11 331.735a1.647 1.647 0 0 1-.398-.645c-1.73-5.119-4.555-9.655-8.394-13.494a34.667 34.667 0 0 0-13.494-8.394 1.666 1.666 0 0 1-1.133-1.578v-12.148a1.667 1.667 0 0 1 2.067-1.616 49.868 49.868 0 0 1 23.158 13.134 49.922 49.922 0 0 1 13.129 23.158c.123.497.01 1.024-.303 1.431-.318.408-.801.64-1.313.64h-12.148c-.455 0-.872-.185-1.18-.493l.009.005Zm-6.436-16.494a37.976 37.976 0 0 1 8.792 13.65h8.787a46.601 46.601 0 0 0-11.688-19.542 46.563 46.563 0 0 0-19.537-11.683v8.787a37.865 37.865 0 0 1 13.651 8.792l-.005-.004ZM130.237 377.682a49.923 49.923 0 0 1-13.134-23.159 1.672 1.672 0 0 1 .304-1.426c.317-.408.801-.64 1.313-.64h12.148c.715 0 1.35.455 1.578 1.133 1.73 5.118 4.555 9.654 8.394 13.494a34.667 34.667 0 0 0 13.494 8.394 1.662 1.662 0 0 1 1.133 1.578v12.148c0 .512-.237.995-.64 1.313a1.674 1.674 0 0 1-1.432.303 49.932 49.932 0 0 1-23.158-13.129v-.009Zm-9.332-21.898a46.601 46.601 0 0 0 11.688 19.542 46.611 46.611 0 0 0 19.542 11.688v-8.787a37.908 37.908 0 0 1-13.651-8.788 37.976 37.976 0 0 1-8.792-13.65h-8.787v-.005ZM176.187 390.375a1.668 1.668 0 0 1-.488-1.18v-12.148c0-.716.455-1.351 1.133-1.579 5.119-1.73 9.655-4.555 13.494-8.394a34.645 34.645 0 0 0 8.394-13.494 1.664 1.664 0 0 1 1.578-1.132h12.148a1.661 1.661 0 0 1 1.617 2.066 49.983 49.983 0 0 1-13.134 23.158 49.871 49.871 0 0 1-23.159 13.134 1.672 1.672 0 0 1-1.426-.303c-.052-.048-.104-.09-.152-.138l-.005.01Zm2.844-12.153v8.788a46.613 46.613 0 0 0 19.542-11.689 46.643 46.643 0 0 0 11.688-19.541h-8.787c-1.92 5.147-4.873 9.73-8.792 13.65-3.915 3.915-8.503 6.873-13.651 8.792ZM117.54 331.735a1.667 1.667 0 0 1-.436-1.583 49.872 49.872 0 0 1 13.134-23.158 49.936 49.936 0 0 1 23.158-13.134 1.673 1.673 0 0 1 1.427.303c.403.318.64.801.64 1.313v12.148c0 .716-.455 1.351-1.133 1.578-5.119 1.73-9.655 4.555-13.494 8.394a34.675 34.675 0 0 0-8.394 13.494 1.663 1.663 0 0 1-1.578 1.133h-12.148c-.446 0-.872-.175-1.181-.483l.005-.005Zm34.591-34.069a46.601 46.601 0 0 0-19.542 11.688 46.653 46.653 0 0 0-11.688 19.542h8.787c1.92-5.148 4.873-9.731 8.792-13.651a37.985 37.985 0 0 1 13.651-8.792v-8.787Z" fill="#fff"/><path d="M192.678 315.241c-14.94-14.94-39.255-14.945-54.194 0-14.945 14.944-14.94 39.254 0 54.194 14.939 14.939 39.249 14.944 54.194 0 14.944-14.945 14.939-39.255 0-54.194Z" fill="#fff"/><path d="m179.405 356.015-27.528.183a2.099 2.099 0 0 0-2.086 2.113l.007.981a2.099 2.099 0 0 0 2.113 2.086l27.528-.182a2.1 2.1 0 0 0 2.086-2.114l-.007-.981a2.1 2.1 0 0 0-2.113-2.086ZM155.627 339.399c-.298 0-.602-.066-.876-.199l-2.148-1.038a1.985 1.985 0 0 1-.971-2.522l.986-2.455a1.977 1.977 0 0 1 2.815-.981l2.559 1.46c.479.27.825.739.948 1.28.124.54.015 1.109-.298 1.564l-1.403 2.033a1.968 1.968 0 0 1-1.616.853l.004.005ZM175.442 339.266a1.988 1.988 0 0 1-1.626-.834l-1.388-1.957a1.978 1.978 0 0 1 .611-2.854l2.64-1.549c.299-.176.64-.271.986-.275a1.984 1.984 0 0 1 1.844 1.218l.995 2.384a1.992 1.992 0 0 1-.938 2.536l-2.247 1.123c-.27.133-.573.208-.872.208h-.005Z" fill="#110A1D"/><path d="M153.465 354.358a2.861 2.861 0 0 1-2.707-1.887l-4.592-12.641a4.79 4.79 0 0 1-.925.332 4.6 4.6 0 0 1-1.137.142 4.85 4.85 0 0 1-4.877-4.811 4.854 4.854 0 0 1 4.815-4.881 4.847 4.847 0 0 1 4.555 6.578 5.22 5.22 0 0 1-.436.868l8.735 4.228 6.683-9.684a4.547 4.547 0 0 1-.805-.441 4.874 4.874 0 0 1-1.247-1.213 4.824 4.824 0 0 1-.896-2.773 4.856 4.856 0 0 1 5.176-4.872 4.858 4.858 0 0 1 4.503 4.474 4.837 4.837 0 0 1-2.1 4.366 4.367 4.367 0 0 1-.801.44l6.802 9.584 8.593-4.299a4.959 4.959 0 0 1-.384-.967 4.7 4.7 0 0 1-.176-1.265 4.844 4.844 0 0 1 4.811-4.877 4.847 4.847 0 0 1 .37 9.683l-.303.009c-.493 0-.977-.066-1.446-.208a4.78 4.78 0 0 1-.872-.365l-4.313 12.394a2.863 2.863 0 0 1-2.683 1.92l-24.343.161v.005Z" fill="#110A1D"/><path d="M166.026 264.637c-12.699 0-25.387-4.83-35.057-14.499-19.329-19.329-19.329-50.773 0-70.102 9.368-9.368 21.817-14.52 35.057-14.52 13.239 0 25.688 5.152 35.056 14.52 19.329 19.329 19.329 50.773 0 70.102-9.659 9.659-22.358 14.499-35.056 14.499Zm-32.455-17.101c17.893 17.892 47.006 17.892 64.898 0 17.893-17.893 17.893-47.006 0-64.898-8.67-8.671-20.192-13.438-32.454-13.438-12.261 0-23.784 4.778-32.454 13.438-17.892 17.892-17.892 47.005 0 64.898h.01Z" fill="#7DDACF"/><path d="m167.86 204.652-9.18 12.865h5.506v9.181l9.18-12.855h-5.506v-9.191Z" fill="#7DDACF"/><path d="M166.016 197.501c-10.055 0-18.215 8.161-18.215 18.216 0 10.054 8.16 18.194 18.215 18.194s18.215-8.16 18.215-18.194c0-10.034-8.16-18.216-18.215-18.216Zm0 34.162c-8.827 0-15.988-7.162-15.988-15.988 0-8.827 7.161-15.988 15.988-15.988 8.826 0 15.988 7.161 15.988 15.988 0 8.826-7.162 15.988-15.988 15.988Z" fill="#7DDACF"/><path d="M194.173 186.937c-7.515-7.526-17.518-11.658-28.156-11.658-10.637 0-20.629 4.143-28.155 11.658-15.519 15.519-15.519 40.781 0 56.31 7.765 7.765 17.955 11.648 28.155 11.648 10.201 0 20.391-3.883 28.156-11.648 15.519-15.519 15.519-40.781 0-56.31Zm-28.156 53.49c-13.614 0-24.699-11.086-24.699-24.7 0-6.016 2.154-11.533 5.735-15.842l-3.019-3.018a2.23 2.23 0 0 1 0-3.144c.864-.874 2.269-.864 3.144 0l3.018 3.019c3.747-3.133 8.463-5.194 13.604-5.631v-2.041h-2.04c-1.8 0-3.289-1.488-3.289-3.289v-1.717a3.296 3.296 0 0 1 3.289-3.289h8.535a3.296 3.296 0 0 1 3.29 3.289v1.717c0 1.801-1.489 3.289-3.29 3.289h-2.04v2.041c5.153.447 9.857 2.508 13.604 5.631l3.019-3.019a2.23 2.23 0 0 1 3.143 0 2.23 2.23 0 0 1 0 3.144l-3.018 3.018c3.58 4.309 5.735 9.815 5.735 15.842 0 13.614-11.085 24.7-24.7 24.7h-.021Z" fill="#7DDACF"/><path d="M166.955 146.353c-27.322 0-49.545-22.232-49.545-49.545 0-27.312 22.233-49.545 49.545-49.545 27.313 0 49.545 22.233 49.545 49.545 0 27.313-22.232 49.545-49.545 49.545Zm0-95.79c-25.501 0-46.245 20.744-46.245 46.245 0 25.501 20.744 46.246 46.245 46.246 25.501 0 46.246-20.745 46.246-46.246 0-25.5-20.745-46.245-46.246-46.245Z" fill="#fff"/><path d="m199.283 61.454-15.338 15.339 3.018 3.017 15.338-15.338-3.018-3.018ZM146.487 114.253l-15.339 15.338 3.018 3.018 15.338-15.338-3.017-3.018ZM187.428 114.25l-3.018 3.018 15.338 15.338 3.018-3.018-15.338-15.338ZM134.178 60.99l-3.018 3.017 15.331 15.33 3.017-3.017-15.33-15.33ZM179.051 98.14c.999-.999.999-2.612 0-3.6l-2.123-2.114c-1-.999-2.613-.999-3.602 0l-1.145 1.145-1.321-1.322c-1-.999-2.613-.999-3.602 0l-1.145 1.156-1.322-1.333c-.999-.999-2.612-.999-3.601 0l-7.026 7.026c-.052.052-.052.136 0 .198a2.425 2.425 0 0 0 3.414 0l4.528-4.528a1.25 1.25 0 0 1 1.769 0l.333.333a.15.15 0 0 1 0 .219l-3.778 3.778c-.052.052-.052.136 0 .198a2.425 2.425 0 0 0 3.414 0l4.341-4.34a1.25 1.25 0 0 1 1.769 0l.333.333c.052.052.052.135 0 .198l-3.643 3.642c-.052.052-.052.136 0 .198a2.425 2.425 0 0 0 3.414 0l4.195-4.194a1.25 1.25 0 0 1 1.769 0l.718.718a.735.735 0 0 1 0 1.03l-.114.115a.736.736 0 0 1-1.031 0l-.926-.927c-.052-.052-.135-.052-.198 0l-1.603 1.603c-.052.052-.052.136 0 .198l1.447 1.447c.999.999 2.613.999 3.602 0l1.145-1.145-.011-.031Z" fill="#fff"/><path d="M166.956 58.806c-20.983 0-37.991 17.008-37.991 37.992 0 20.984 17.008 37.991 37.991 37.991 20.984 0 37.992-17.007 37.992-37.991 0-20.984-17.008-37.992-37.992-37.992Zm1.551 11.73c6.1.355 11.637 2.79 15.925 6.6l-5.485 5.485a18.514 18.514 0 0 0-10.44-4.33v-7.754Zm-3.091 0v7.755a18.443 18.443 0 0 0-10.44 4.33l-5.485-5.485a26.211 26.211 0 0 1 15.925-6.6Zm-18.111 8.786 5.485 5.485a18.518 18.518 0 0 0-4.33 10.44h-7.754a26.213 26.213 0 0 1 6.599-15.925Zm-6.599 19.016h7.754a18.448 18.448 0 0 0 4.33 10.44l-5.485 5.486a26.215 26.215 0 0 1-6.599-15.926Zm24.71 24.71a26.204 26.204 0 0 1-15.925-6.599l5.485-5.485a18.516 18.516 0 0 0 10.44 4.33v7.754Zm-14.426-26.26c0-8.817 7.15-15.967 15.966-15.967 8.816 0 15.967 7.15 15.967 15.966 0 8.817-7.151 15.967-15.967 15.967s-15.966-7.15-15.966-15.967Zm17.517 26.26v-7.754a18.448 18.448 0 0 0 10.44-4.33l5.485 5.485a26.204 26.204 0 0 1-15.925 6.599Zm18.111-8.784-5.485-5.486a18.516 18.516 0 0 0 4.33-10.44h7.754a26.215 26.215 0 0 1-6.599 15.926Zm-1.155-19.017a18.45 18.45 0 0 0-4.33-10.44l5.485-5.485a26.213 26.213 0 0 1 6.599 15.925h-7.754Z" fill="#fff"/></g><g opacity=".2"><path d="M50.143 1334.45c-12.699 0-25.387-4.83-35.056-14.5-19.33-19.33-19.33-50.77 0-70.1 9.367-9.37 21.816-14.52 35.056-14.52 13.24 0 25.688 5.15 35.056 14.52 19.329 19.33 19.329 50.77 0 70.1-9.66 9.66-22.358 14.5-35.056 14.5Zm-32.454-17.1c17.892 17.89 47.005 17.89 64.897 0 17.893-17.89 17.893-47.01 0-64.9-8.67-8.67-20.192-13.44-32.454-13.44-12.261 0-23.783 4.78-32.454 13.44-17.892 17.89-17.892 47.01 0 64.9h.01Z" fill="#9DADF2"/><path d="M49.487 1303.44c.177.43.593.68 1.03.68.146 0 .292-.03.438-.08a25.747 25.747 0 0 0 9.201-6.57 1.115 1.115 0 0 0-1.665-1.48 23.391 23.391 0 0 1-8.4 6c-.562.23-.833.89-.593 1.45h-.01Z" fill="#9DADF2"/><path d="m69.033 1267.76-18.486-7.39c-.27-.1-.562-.1-.833 0l-18.485 7.39c-.427.17-.698.57-.698 1.03v13.24c.021 12.22 7.744 23.27 19.215 27.47.124.04.25.06.385.06s.26-.02.385-.06c11.47-4.22 19.193-15.25 19.214-27.47v-13.24c0-.46-.27-.86-.697-1.03Zm-1.53 14.27c-.021 11.12-6.995 21.25-17.362 25.23-10.367-3.98-17.351-14.11-17.372-25.23v-12.48l17.372-6.94 17.362 6.94v12.48Z" fill="#9DADF2"/><path d="M42.419 1269.5c-.271-.11-.573-.11-.854 0l-4.403 1.76c-.426.17-.697.57-.697 1.03v4.69c0 .62.5 1.12 1.114 1.12.614 0 1.113-.5 1.113-1.12v-3.93l3.695-1.48a1.108 1.108 0 0 0 .614-1.46 1.122 1.122 0 0 0-.593-.61h.01Z" fill="#9DADF2"/><path d="M78.298 1256.75c-7.515-7.53-17.518-11.66-28.156-11.66-10.637 0-20.63 4.14-28.155 11.66-15.52 15.52-15.52 40.78 0 56.31 7.765 7.77 17.955 11.64 28.155 11.64 10.2 0 20.391-3.89 28.156-11.64 15.52-15.52 15.52-40.78 0-56.31Zm-5.506 25.28c.03 14.13-8.993 26.48-22.452 30.76a.667.667 0 0 1-.395 0c-13.459-4.28-22.483-16.63-22.452-30.76v-15.62c0-.26.156-.5.406-.6l22.004-8.8a.633.633 0 0 1 .24-.04c.083 0 .166.01.239.04l22.004 8.81c.25.09.406.33.406.6v15.62-.01Z" fill="#9DADF2"/><path d="M50.143 1207.84c-27.323 0-49.545-22.23-49.545-49.55 0-27.31 22.233-49.54 49.545-49.54s49.545 22.23 49.545 49.54c0 27.32-22.233 49.55-49.545 49.55Zm0-95.79c-25.501 0-46.246 20.74-46.246 46.24 0 25.51 20.745 46.25 46.246 46.25 25.5 0 46.245-20.74 46.245-46.25 0-25.5-20.744-46.24-46.245-46.24Z" fill="#7DDACF"/><path d="m82.475 1122.94-15.338 15.34 3.017 3.02 15.339-15.34-3.018-3.02ZM29.674 1175.74l-15.338 15.34 3.017 3.02 15.339-15.34-3.018-3.02ZM70.603 1175.75l-3.017 3.02 15.338 15.33 3.018-3.01-15.338-15.34ZM17.35 1122.49l-3.018 3.01 15.331 15.34 3.018-3.02-15.331-15.33ZM62.227 1159.63c1-1 1-2.62 0-3.6l-2.123-2.12c-1-1-2.613-1-3.602 0l-1.145 1.15-1.322-1.32c-.999-1-2.612-1-3.601 0l-1.145 1.15-1.322-1.33c-1-1-2.612-1-3.601 0l-7.026 7.02a.148.148 0 0 0 0 .2 2.42 2.42 0 0 0 3.414 0l4.528-4.53c.489-.48 1.28-.48 1.77 0l.332.34c.063.06.063.15 0 .22l-3.778 3.77a.148.148 0 0 0 0 .2 2.42 2.42 0 0 0 3.414 0l4.34-4.34c.49-.49 1.28-.49 1.77 0l.333.34c.052.05.052.13 0 .19l-3.643 3.65c-.052.05-.052.13 0 .19a2.42 2.42 0 0 0 3.414 0l4.194-4.19c.49-.49 1.28-.49 1.77 0l.718.72c.281.28.281.75 0 1.03l-.114.11a.737.737 0 0 1-1.03 0l-.927-.92c-.052-.06-.136-.06-.198 0l-1.603 1.6c-.052.05-.052.13 0 .2l1.447 1.44c1 1 2.612 1 3.601 0l1.145-1.14-.01-.03Z" fill="#7DDACF"/><path d="M50.144 1120.3c-20.984 0-37.992 17.01-37.992 37.99 0 20.99 17.008 38 37.992 38 20.984 0 37.991-17.01 37.991-38 0-20.98-17.007-37.99-37.991-37.99Zm1.55 11.73c6.1.36 11.638 2.79 15.926 6.6l-5.485 5.49c-2.863-2.43-6.474-4-10.44-4.33v-7.76Zm-3.09 0v7.76c-3.966.32-7.578 1.9-10.44 4.33l-5.486-5.49a26.249 26.249 0 0 1 15.925-6.6Zm-18.112 8.79 5.486 5.48a18.556 18.556 0 0 0-4.33 10.44h-7.755c.354-6.1 2.79-11.63 6.6-15.92Zm-6.599 19.02h7.755a18.484 18.484 0 0 0 4.33 10.44l-5.486 5.48c-3.81-4.29-6.245-9.83-6.599-15.92Zm24.71 24.71a26.249 26.249 0 0 1-15.925-6.6l5.486-5.49c2.862 2.43 6.474 4 10.44 4.33v7.76Zm-14.426-26.27c0-8.81 7.15-15.96 15.967-15.96 8.816 0 15.967 7.15 15.967 15.96 0 8.82-7.151 15.97-15.967 15.97s-15.967-7.15-15.967-15.97Zm17.518 26.27v-7.76c3.965-.32 7.577-1.9 10.44-4.33l5.485 5.49a26.249 26.249 0 0 1-15.925 6.6Zm18.11-8.79-5.485-5.48a18.556 18.556 0 0 0 4.33-10.44h7.755c-.354 6.09-2.79 11.63-6.6 15.92Zm-1.155-19.02a18.484 18.484 0 0 0-4.33-10.44l5.486-5.48c3.81 4.29 6.245 9.82 6.599 15.92H68.65Z" fill="#7DDACF"/><path d="M50.287 1084.38c-27.322 0-49.545-22.23-49.545-49.54s22.233-49.548 49.545-49.548 49.545 22.238 49.545 49.548c0 27.31-22.233 49.54-49.545 49.54Zm0-95.788c-25.501 0-46.245 20.748-46.245 46.248 0 25.5 20.744 46.24 46.245 46.24 25.501 0 46.246-20.74 46.246-46.24 0-25.5-20.745-46.248-46.246-46.248Z" fill="#9DADF2"/><path d="M66.362 1003.9c-.25 0-.5-.05-.73-.16-4.798-2.38-9.96-3.58-15.341-3.58-5.382 0-10.544 1.2-15.343 3.58-.635.31-1.395.18-1.894-.32l-8.514-8.51a1.642 1.642 0 0 1-.469-1.374c.063-.51.354-.957.791-1.218a49.463 49.463 0 0 1 25.439-7.026 49.559 49.559 0 0 1 25.439 7.026c.437.261.728.708.79 1.218.063.51-.114 1.01-.468 1.374l-8.514 8.51c-.323.32-.739.48-1.176.48h-.01Zm-16.071-7.044a37.636 37.636 0 0 1 15.727 3.404l6.162-6.162a46.15 46.15 0 0 0-21.89-5.506 46.15 46.15 0 0 0-21.889 5.506l6.162 6.162a37.637 37.637 0 0 1 15.728-3.404ZM50.289 1084.38a49.553 49.553 0 0 1-25.439-7.02 1.662 1.662 0 0 1-.323-2.59l8.515-8.52c.5-.5 1.27-.62 1.894-.31a34.358 34.358 0 0 0 15.342 3.58 34.36 34.36 0 0 0 15.343-3.58 1.65 1.65 0 0 1 1.894.31l8.514 8.52c.365.36.531.86.469 1.37-.063.51-.354.96-.791 1.22a49.457 49.457 0 0 1-25.439 7.02h.02Zm-21.89-8.8a46.167 46.167 0 0 0 21.89 5.5c7.66 0 15.186-1.89 21.89-5.5l-6.163-6.16a37.772 37.772 0 0 1-15.727 3.4 37.772 37.772 0 0 1-15.728-3.4l-6.162 6.16ZM91.393 1061.08c-.437 0-.854-.17-1.166-.48l-8.514-8.52c-.5-.49-.625-1.27-.313-1.89 2.374-4.8 3.581-9.96 3.581-15.34 0-5.38-1.207-10.55-3.58-15.34a1.652 1.652 0 0 1 .312-1.9l8.514-8.51c.364-.37.864-.53 1.374-.47.51.06.957.35 1.218.79a49.463 49.463 0 0 1 7.026 25.44c0 8.97-2.426 17.77-7.026 25.44-.26.43-.708.73-1.218.79h-.208v-.01Zm-6.526-10.52 6.161 6.17a46.177 46.177 0 0 0 5.507-21.89c0-7.66-1.895-15.19-5.507-21.89l-6.161 6.16c2.258 4.95 3.403 10.24 3.403 15.73a37.61 37.61 0 0 1-3.403 15.72ZM9.183 1061.08c-.073 0-.135 0-.198-.01-.51-.07-.957-.36-1.217-.79a49.464 49.464 0 0 1-7.026-25.44c0-8.97 2.425-17.77 7.026-25.44.26-.44.707-.73 1.217-.79.51-.06 1.01.11 1.374.47l8.515 8.51c.5.5.624 1.27.312 1.89a34.36 34.36 0 0 0-3.58 15.35c0 5.38 1.207 10.54 3.58 15.34.312.63.187 1.4-.312 1.89l-8.515 8.52c-.312.31-.728.49-1.165.49l-.01.01Zm.365-48.13a46.148 46.148 0 0 0-5.507 21.89c0 7.66 1.895 15.18 5.507 21.89l6.162-6.16a37.689 37.689 0 0 1-3.404-15.73c0-5.49 1.145-10.78 3.404-15.73l-6.162-6.16Z" fill="#9DADF2"/><path d="M50.288 996.846c-20.942 0-37.991 17.044-37.991 37.994s17.039 37.99 37.991 37.99c20.953 0 37.992-17.04 37.992-37.99 0-20.95-17.04-37.994-37.992-37.994Zm21.38 25.514c1.8 3.08 2.893 6.44 3.247 10.01.01.15-.052.28-.177.35a32.038 32.038 0 0 0-7.255 6.09.339.339 0 0 1-.385.11l-4.694-1.53a.363.363 0 0 1-.25-.3c-.53-3.89-1.738-7.6-3.59-11.06a.36.36 0 0 1 .03-.38l2.904-4a.411.411 0 0 1 .302-.16h.084c3.101.69 6.286.92 9.45.66a.37.37 0 0 1 .354.19l-.02.02Zm-12.074 15.38c.01.11-.021.21-.084.28a24.907 24.907 0 0 1-9.076 6.58.344.344 0 0 1-.281 0 25.14 25.14 0 0 1-9.076-6.58.365.365 0 0 1-.084-.28 30.126 30.126 0 0 1 3.477-10.7.392.392 0 0 1 .24-.18 27.53 27.53 0 0 1 5.589-.58c1.884 0 3.757.2 5.59.58.103.03.186.09.238.18a30.334 30.334 0 0 1 3.477 10.7h-.01Zm-.562-25.83s.124-.11.25-.11c.041 0 .093 0 .145.03 3.83 1.52 7.255 4.02 9.92 7.22.135.15.083.32.052.38a.36.36 0 0 1-.334.22c-2.362.03-4.715-.24-6.994-.78a.35.35 0 0 1-.23-.17c-1.217-2-2.195-4.17-2.903-6.42a.334.334 0 0 1 .104-.37h-.01Zm-14-1.25c3.445-.74 7.078-.74 10.523 0 .135.03.25.13.281.27a31.796 31.796 0 0 0 3.55 8.78.39.39 0 0 1-.021.41l-2.884 3.98a.368.368 0 0 1-.364.14c-3.81-.77-7.838-.77-11.647 0a.368.368 0 0 1-.364-.14l-2.884-3.98a.387.387 0 0 1-.02-.41 31.796 31.796 0 0 0 3.549-8.78.363.363 0 0 1 .28-.27Zm-13.791 8.39c2.664-3.21 6.089-5.71 9.919-7.22a.423.423 0 0 1 .146-.03c.135 0 .218.08.25.11.052.05.166.17.104.37a29.049 29.049 0 0 1-2.904 6.42.35.35 0 0 1-.23.17c-2.279.54-4.631.81-6.994.78a.36.36 0 0 1-.333-.22.337.337 0 0 1 .052-.38h-.01Zm-2.322 3.31a.36.36 0 0 1 .323-.19h.031c3.175.25 6.36.03 9.451-.66.146-.03.292.03.375.15l2.904 4a.36.36 0 0 1 .031.38 32.688 32.688 0 0 0-3.59 11.06.39.39 0 0 1-.25.3l-4.695 1.53a.373.373 0 0 1-.385-.11 31.737 31.737 0 0 0-7.255-6.08.402.402 0 0 1-.177-.36 24.407 24.407 0 0 1 3.248-10.01l-.01-.01Zm1.135 25.64c-.063.2-.24.24-.312.25-.073 0-.24 0-.354-.16a24.724 24.724 0 0 1-3.789-11.67.346.346 0 0 1 .187-.34c.063-.03.23-.11.396.02a28.743 28.743 0 0 1 5.204 4.74c.063.08.094.17.083.27a28.576 28.576 0 0 1-1.425 6.91l.01-.02Zm10.284 9.51a24.586 24.586 0 0 1-8.504-6.21.367.367 0 0 1-.073-.38 31.917 31.917 0 0 0 2.29-9.19c.01-.15.114-.27.25-.31l4.642-1.51s.073-.02.114-.02c.104 0 .198.04.271.12a27.6 27.6 0 0 0 9.43 6.86c.136.06.219.19.219.33v4.88c0 .15-.083.29-.219.34a31.618 31.618 0 0 0-8.046 5.03.36.36 0 0 1-.385.05l.01.01Zm16.372 1.03a.347.347 0 0 1-.27.29 25.032 25.032 0 0 1-12.282 0 .363.363 0 0 1-.271-.29.378.378 0 0 1 .146-.38 28.987 28.987 0 0 1 6.13-3.48.282.282 0 0 1 .281 0c2.165.9 4.226 2.08 6.131 3.48.167.13.156.31.146.38h-.01Zm12.064-7.23a24.558 24.558 0 0 1-8.504 6.2.378.378 0 0 1-.385-.05 31.437 31.437 0 0 0-8.046-5.03.362.362 0 0 1-.218-.33v-4.89c0-.14.083-.28.218-.33a27.501 27.501 0 0 0 9.43-6.86.356.356 0 0 1 .271-.12c.042 0 .073 0 .114.02l4.643 1.51c.135.04.24.16.25.31a31.998 31.998 0 0 0 2.29 9.19c.051.12.03.28-.073.38h.01Zm2.436-3.21c-.115.18-.292.18-.354.16a.357.357 0 0 1-.313-.24 29.608 29.608 0 0 1-1.425-6.91c0-.09.02-.19.083-.27a29.114 29.114 0 0 1 5.204-4.74.39.39 0 0 1 .208-.08c.084 0 .146.04.188.06.062.03.208.13.187.34a24.723 24.723 0 0 1-3.789 11.67l.01.01Z" fill="#9DADF2"/><path d="M99.5 910.01a1.779 1.779 0 1 0-3.56 0c0 25.355-20.63 45.985-45.985 45.985S3.97 935.365 3.97 910.01a1.78 1.78 0 1 0-3.56 0c0 27.323 22.233 49.555 49.556 49.555 27.322 0 49.555-22.232 49.555-49.555h-.02ZM99.524 791.379a1.779 1.779 0 1 1-3.56 0c0-25.355-20.63-45.985-45.985-45.985-25.356 0-45.986 20.63-45.986 45.985a1.78 1.78 0 1 1-3.56 0c0-27.322 22.233-49.555 49.556-49.555 27.323 0 49.556 22.233 49.556 49.555h-.021Z" fill="#478BF9"/><path d="M99.583 790.62v119.595a1.78 1.78 0 1 1-3.56 0V790.62a1.78 1.78 0 1 1 3.56 0ZM4.048 790.359v119.596a1.78 1.78 0 1 1-3.56 0V790.359a1.779 1.779 0 1 1 3.56 0Z" fill="#478BF9"/><path d="M50.143 711.23c-12.699 0-25.387-4.829-35.056-14.499-19.33-19.329-19.33-50.773 0-70.102 9.367-9.368 21.816-14.52 35.056-14.52 13.24 0 25.688 5.152 35.056 14.52 19.329 19.329 19.329 50.773 0 70.102-9.66 9.659-22.358 14.499-35.056 14.499Zm-32.454-17.101c17.892 17.892 47.005 17.892 64.897 0 17.893-17.893 17.893-47.006 0-64.898-8.67-8.671-20.192-13.438-32.454-13.438-12.261 0-23.783 4.778-32.454 13.438-17.892 17.892-17.892 47.005 0 64.898h.01Z" fill="#9DADF2"/><path d="M49.487 680.223c.177.427.593.676 1.03.676a1.3 1.3 0 0 0 .438-.083 25.705 25.705 0 0 0 9.201-6.568 1.116 1.116 0 0 0-.094-1.571 1.117 1.117 0 0 0-1.571.093 23.272 23.272 0 0 1-8.4 5.996 1.117 1.117 0 0 0-.593 1.457h-.01Z" fill="#9DADF2"/><path d="m69.033 644.542-18.486-7.39a1.15 1.15 0 0 0-.833 0l-18.485 7.39a1.095 1.095 0 0 0-.698 1.03v13.24c.021 12.22 7.744 23.263 19.215 27.469a1.212 1.212 0 0 0 .77 0c11.47-4.216 19.193-15.249 19.214-27.469v-13.24c0-.458-.27-.863-.697-1.03Zm-1.53 14.27c-.021 11.117-6.995 21.244-17.362 25.231-10.367-3.987-17.351-14.114-17.372-25.231v-12.48l17.372-6.942 17.362 6.942v12.48Z" fill="#9DADF2"/><path d="M42.419 646.28a1.108 1.108 0 0 0-.854 0l-4.403 1.759a1.097 1.097 0 0 0-.697 1.031v4.694c0 .614.5 1.114 1.114 1.114.614 0 1.113-.5 1.113-1.114v-3.934l3.695-1.478c.281-.115.49-.323.614-.604a1.142 1.142 0 0 0-.593-1.468h.01Z" fill="#9DADF2"/><path d="M78.298 633.53c-7.515-7.526-17.518-11.658-28.156-11.658-10.637 0-20.63 4.143-28.155 11.658-15.52 15.519-15.52 40.781 0 56.311 7.765 7.764 17.955 11.636 28.155 11.636 10.2 0 20.391-3.882 28.156-11.636 15.52-15.52 15.52-40.782 0-56.311Zm-5.506 25.282c.03 14.125-8.993 26.48-22.452 30.758a.636.636 0 0 1-.395 0c-13.459-4.278-22.483-16.633-22.452-30.758v-15.623c0-.26.156-.5.406-.604l22.004-8.795a.615.615 0 0 1 .24-.042c.083 0 .166.011.239.042l22.004 8.806c.25.093.406.333.406.603v15.624-.011Z" fill="#9DADF2"/><path d="M50.143 584.62C22.82 584.62.598 562.387.598 535.074c0-27.312 22.233-49.545 49.545-49.545s49.545 22.233 49.545 49.545c0 27.313-22.233 49.546-49.545 49.546Zm0-95.791c-25.501 0-46.246 20.744-46.246 46.245 0 25.502 20.745 46.246 46.246 46.246 25.5 0 46.245-20.744 46.245-46.246 0-25.501-20.744-46.245-46.245-46.245Z" fill="#7DDACF"/><path d="m82.475 499.721-15.338 15.338 3.017 3.018 15.339-15.338-3.018-3.018ZM29.674 552.52l-15.338 15.338 3.017 3.018 15.339-15.339-3.018-3.017ZM70.603 552.528l-3.017 3.017 15.338 15.338 3.018-3.017-15.338-15.338ZM17.35 499.267l-3.018 3.017 15.331 15.331 3.018-3.017-15.331-15.331ZM62.227 536.407c1-.999 1-2.613 0-3.602l-2.123-2.113a2.538 2.538 0 0 0-3.602 0l-1.145 1.145-1.322-1.322a2.538 2.538 0 0 0-3.601 0l-1.145 1.156-1.322-1.332c-1-1-2.612-1-3.601 0l-7.026 7.025c-.052.052-.052.136 0 .198a2.425 2.425 0 0 0 3.414 0l4.528-4.528a1.25 1.25 0 0 1 1.77 0l.332.333a.151.151 0 0 1 0 .219l-3.778 3.778c-.052.052-.052.136 0 .198a2.425 2.425 0 0 0 3.414 0l4.34-4.34a1.25 1.25 0 0 1 1.77 0l.333.333c.052.052.052.135 0 .198l-3.643 3.643c-.052.052-.052.135 0 .197a2.425 2.425 0 0 0 3.414 0l4.194-4.194c.49-.49 1.28-.49 1.77 0l.718.718a.734.734 0 0 1 0 1.03l-.114.115a.735.735 0 0 1-1.03 0l-.927-.927c-.052-.052-.136-.052-.198 0l-1.603 1.603c-.052.052-.052.136 0 .198l1.447 1.447c1 .999 2.612.999 3.601 0l1.145-1.145-.01-.031Z" fill="#7DDACF"/><path d="M50.144 497.083c-20.984 0-37.992 17.008-37.992 37.992 0 20.983 17.008 37.991 37.992 37.991 20.984 0 37.991-17.008 37.991-37.991 0-20.984-17.007-37.992-37.991-37.992Zm1.55 11.731a26.207 26.207 0 0 1 15.926 6.599l-5.485 5.485a18.518 18.518 0 0 0-10.44-4.33v-7.754Zm-3.09 0v7.754a18.45 18.45 0 0 0-10.44 4.33l-5.486-5.485a26.207 26.207 0 0 1 15.925-6.599Zm-18.112 8.784 5.486 5.486a18.515 18.515 0 0 0-4.33 10.44h-7.755a26.217 26.217 0 0 1 6.6-15.926Zm-6.599 19.017h7.755a18.443 18.443 0 0 0 4.33 10.44l-5.486 5.485a26.212 26.212 0 0 1-6.599-15.925Zm24.71 24.71a26.212 26.212 0 0 1-15.925-6.599l5.486-5.485a18.518 18.518 0 0 0 10.44 4.33v7.754Zm-14.426-26.261c0-8.816 7.15-15.967 15.967-15.967 8.816 0 15.967 7.151 15.967 15.967s-7.151 15.967-15.967 15.967-15.967-7.151-15.967-15.967Zm17.518 26.261v-7.754a18.449 18.449 0 0 0 10.44-4.33l5.485 5.485a26.212 26.212 0 0 1-15.925 6.599Zm18.11-8.785-5.485-5.485a18.515 18.515 0 0 0 4.33-10.44h7.755a26.212 26.212 0 0 1-6.6 15.925Zm-1.155-19.016a18.443 18.443 0 0 0-4.33-10.44l5.486-5.486a26.217 26.217 0 0 1 6.599 15.926H68.65Z" fill="#7DDACF"/><path d="M50.287 461.162c-27.322 0-49.545-22.232-49.545-49.545 0-27.312 22.233-49.545 49.545-49.545s49.545 22.233 49.545 49.545c0 27.313-22.233 49.545-49.545 49.545Zm0-95.79c-25.501 0-46.245 20.744-46.245 46.245 0 25.502 20.744 46.246 46.245 46.246 25.501 0 46.246-20.744 46.246-46.246 0-25.501-20.745-46.245-46.246-46.245Z" fill="#9DADF2"/><path d="M66.362 380.683c-.25 0-.5-.052-.73-.167a34.319 34.319 0 0 0-15.341-3.58 34.318 34.318 0 0 0-15.343 3.58 1.645 1.645 0 0 1-1.894-.312l-8.514-8.514a1.642 1.642 0 0 1-.469-1.374c.063-.51.354-.958.791-1.218a49.453 49.453 0 0 1 25.439-7.026 49.559 49.559 0 0 1 25.439 7.026c.437.26.728.708.79 1.218.063.51-.114 1.01-.468 1.374l-8.514 8.514a1.68 1.68 0 0 1-1.176.479h-.01Zm-16.071-7.047a37.636 37.636 0 0 1 15.727 3.404l6.162-6.162a46.15 46.15 0 0 0-21.89-5.506 46.15 46.15 0 0 0-21.889 5.506l6.162 6.162a37.637 37.637 0 0 1 15.728-3.404ZM50.289 461.162a49.557 49.557 0 0 1-25.439-7.025 1.647 1.647 0 0 1-.791-1.218c-.062-.51.114-1.01.468-1.374l8.515-8.514c.5-.5 1.27-.625 1.894-.313a34.306 34.306 0 0 0 15.342 3.581 34.307 34.307 0 0 0 15.343-3.581 1.647 1.647 0 0 1 1.894.313l8.514 8.514c.365.364.531.864.469 1.374-.063.51-.354.957-.791 1.218a49.461 49.461 0 0 1-25.439 7.025h.02Zm-21.89-8.805a46.15 46.15 0 0 0 21.89 5.506 46.15 46.15 0 0 0 21.89-5.506l-6.163-6.162a37.635 37.635 0 0 1-15.727 3.403 37.635 37.635 0 0 1-15.728-3.403l-6.162 6.162ZM91.393 437.857c-.437 0-.854-.166-1.166-.478l-8.514-8.515a1.649 1.649 0 0 1-.313-1.894 34.315 34.315 0 0 0 3.581-15.342 34.32 34.32 0 0 0-3.58-15.343 1.644 1.644 0 0 1 .312-1.894l8.514-8.514a1.642 1.642 0 0 1 1.374-.469c.51.063.957.354 1.218.791a49.46 49.46 0 0 1 7.026 25.439 49.457 49.457 0 0 1-7.026 25.439c-.26.437-.708.728-1.218.791h-.208v-.011Zm-6.526-10.512 6.161 6.162a46.153 46.153 0 0 0 5.507-21.89c0-7.66-1.895-15.186-5.507-21.889l-6.161 6.162a37.638 37.638 0 0 1 3.403 15.727 37.642 37.642 0 0 1-3.403 15.728ZM9.183 437.858c-.073 0-.135 0-.198-.011a1.645 1.645 0 0 1-1.217-.791 49.455 49.455 0 0 1-7.026-25.439 49.454 49.454 0 0 1 7.026-25.438c.26-.437.707-.729 1.217-.791.51-.063 1.01.114 1.374.468l8.515 8.514c.5.5.624 1.27.312 1.895a34.316 34.316 0 0 0-3.58 15.342 34.316 34.316 0 0 0 3.58 15.342 1.645 1.645 0 0 1-.312 1.895l-8.515 8.514a1.648 1.648 0 0 1-1.165.489l-.01.011Zm.365-48.13a46.153 46.153 0 0 0-5.507 21.889 46.154 46.154 0 0 0 5.507 21.89l6.162-6.162a37.642 37.642 0 0 1-3.404-15.728 37.638 37.638 0 0 1 3.404-15.727l-6.162-6.162Z" fill="#9DADF2"/><path d="M50.288 373.626c-20.942 0-37.991 17.039-37.991 37.991 0 20.953 17.039 37.992 37.991 37.992 20.953 0 37.992-17.039 37.992-37.992 0-20.952-17.04-37.991-37.992-37.991Zm21.38 25.511a24.473 24.473 0 0 1 3.247 10.013.369.369 0 0 1-.177.354 31.853 31.853 0 0 0-7.255 6.089.34.34 0 0 1-.385.104l-4.694-1.53a.36.36 0 0 1-.25-.301 32.666 32.666 0 0 0-3.59-11.054.37.37 0 0 1 .03-.386l2.904-3.996a.395.395 0 0 1 .302-.157h.084c3.101.687 6.286.916 9.45.656a.379.379 0 0 1 .354.187l-.02.021Zm-12.074 15.384a.378.378 0 0 1-.084.281 24.858 24.858 0 0 1-9.076 6.579.336.336 0 0 1-.281 0 25.102 25.102 0 0 1-9.076-6.579.378.378 0 0 1-.084-.281 30.145 30.145 0 0 1 3.477-10.7.35.35 0 0 1 .24-.177 27.182 27.182 0 0 1 5.589-.583c1.884 0 3.757.198 5.59.583a.35.35 0 0 1 .238.177 30.354 30.354 0 0 1 3.477 10.7h-.01Zm-.562-25.834s.124-.104.25-.104c.041 0 .093 0 .145.031 3.83 1.52 7.255 4.018 9.92 7.213a.345.345 0 0 1 .052.385.356.356 0 0 1-.334.219 28.64 28.64 0 0 1-6.994-.781.367.367 0 0 1-.23-.166 29.508 29.508 0 0 1-2.903-6.422.346.346 0 0 1 .104-.375h-.01Zm-14-1.249a25.251 25.251 0 0 1 10.523 0c.135.031.25.135.281.271a31.914 31.914 0 0 0 3.55 8.785.38.38 0 0 1-.021.405l-2.884 3.977a.362.362 0 0 1-.364.145c-3.81-.77-7.838-.77-11.647 0a.362.362 0 0 1-.364-.145l-2.884-3.977a.38.38 0 0 1-.02-.405 31.914 31.914 0 0 0 3.549-8.785.371.371 0 0 1 .28-.271Zm-13.791 8.389c2.664-3.205 6.089-5.704 9.919-7.213a.35.35 0 0 1 .395.073c.053.052.167.177.105.375a29.295 29.295 0 0 1-2.904 6.422.368.368 0 0 1-.23.166 28.64 28.64 0 0 1-6.994.781.356.356 0 0 1-.333-.219.345.345 0 0 1 .052-.385h-.01Zm-2.322 3.31a.368.368 0 0 1 .323-.187h.031c3.175.25 6.36.031 9.451-.656a.352.352 0 0 1 .375.146l2.904 3.997a.37.37 0 0 1 .031.385 32.677 32.677 0 0 0-3.59 11.054.389.389 0 0 1-.25.302l-4.695 1.53a.38.38 0 0 1-.385-.104 31.8 31.8 0 0 0-7.255-6.089.389.389 0 0 1-.177-.354 24.42 24.42 0 0 1 3.248-10.013l-.01-.011Zm1.135 25.647a.364.364 0 0 1-.312.25c-.073 0-.24 0-.354-.167a24.691 24.691 0 0 1-3.789-11.668.355.355 0 0 1 .187-.343c.063-.031.23-.104.396.021a28.886 28.886 0 0 1 5.204 4.746.355.355 0 0 1 .083.271 28.564 28.564 0 0 1-1.425 6.901l.01-.011Zm10.284 9.503c-3.248-1.426-6.11-3.518-8.504-6.203a.376.376 0 0 1-.073-.385 31.859 31.859 0 0 0 2.29-9.191.357.357 0 0 1 .25-.312l4.642-1.51s.073-.021.114-.021c.104 0 .198.042.271.125a27.693 27.693 0 0 0 9.43 6.86.362.362 0 0 1 .219.333v4.881a.352.352 0 0 1-.219.333 31.862 31.862 0 0 0-8.046 5.028.35.35 0 0 1-.385.052l.01.01Zm16.372 1.031a.347.347 0 0 1-.27.291 25.032 25.032 0 0 1-12.282 0 .363.363 0 0 1-.271-.291.367.367 0 0 1 .146-.375 29.06 29.06 0 0 1 6.13-3.487.33.33 0 0 1 .281 0 29.59 29.59 0 0 1 6.131 3.487.383.383 0 0 1 .146.375h-.01Zm12.064-7.224a24.539 24.539 0 0 1-8.504 6.193.366.366 0 0 1-.385-.052 31.648 31.648 0 0 0-8.046-5.027.363.363 0 0 1-.218-.333v-4.882c0-.146.083-.281.218-.333a27.603 27.603 0 0 0 9.43-6.859.348.348 0 0 1 .271-.125c.042 0 .073 0 .114.021l4.643 1.509c.135.042.24.166.25.312a31.94 31.94 0 0 0 2.29 9.191.355.355 0 0 1-.073.385h.01Zm2.436-3.216a.355.355 0 0 1-.354.166.359.359 0 0 1-.313-.249 29.598 29.598 0 0 1-1.425-6.901.42.42 0 0 1 .083-.271 29.298 29.298 0 0 1 5.204-4.746.361.361 0 0 1 .208-.073.4.4 0 0 1 .188.052.34.34 0 0 1 .187.343 24.69 24.69 0 0 1-3.789 11.668l.01.011Z" fill="#9DADF2"/><path d="M99.5 287.01a1.779 1.779 0 1 0-3.56 0c0 25.355-20.63 45.985-45.985 45.985S3.97 312.365 3.97 287.01a1.78 1.78 0 1 0-3.56 0c0 27.323 22.233 49.555 49.556 49.555 27.322 0 49.555-22.232 49.555-49.555h-.02ZM99.524 168.159a1.779 1.779 0 1 1-3.56 0c0-25.355-20.63-45.985-45.985-45.985-25.356 0-45.986 20.63-45.986 45.985a1.78 1.78 0 1 1-3.56 0c0-27.322 22.233-49.555 49.556-49.555 27.323 0 49.556 22.233 49.556 49.555h-.021Z" fill="#478BF9"/><path d="M99.583 167.399v119.596a1.779 1.779 0 1 1-3.56 0V167.399a1.779 1.779 0 1 1 3.56 0ZM4.048 167.139v119.595a1.78 1.78 0 1 1-3.56 0V167.139a1.779 1.779 0 1 1 3.56 0Z" fill="#478BF9"/><path d="M50.143 99.351c-12.699 0-25.387-4.83-35.056-14.499-19.33-19.329-19.33-50.773 0-70.102C24.453 5.382 36.902.23 50.142.23c13.24 0 25.688 5.152 35.056 14.52 19.329 19.329 19.329 50.773 0 70.102-9.66 9.66-22.358 14.5-35.056 14.5Zm-32.454-17.1c17.892 17.892 47.005 17.892 64.897 0 17.893-17.893 17.893-47.006 0-64.899-8.67-8.67-20.192-13.437-32.454-13.437-12.261 0-23.783 4.777-32.454 13.437-17.892 17.893-17.892 47.006 0 64.898h.01Z" fill="#9DADF2"/><path d="M49.487 68.344c.177.427.593.677 1.03.677.146 0 .292-.031.438-.084a25.698 25.698 0 0 0 9.201-6.567 1.117 1.117 0 0 0-.094-1.572 1.117 1.117 0 0 0-1.571.094 23.266 23.266 0 0 1-8.4 5.995c-.562.24-.833.895-.593 1.457h-.01Z" fill="#9DADF2"/><path d="m69.033 32.663-18.486-7.39a1.149 1.149 0 0 0-.833 0l-18.485 7.39a1.096 1.096 0 0 0-.698 1.031v13.24c.021 12.22 7.744 23.263 19.215 27.468a1.195 1.195 0 0 0 .77 0c11.47-4.215 19.193-15.248 19.214-27.468v-13.24c0-.458-.27-.864-.697-1.03Zm-1.53 14.27c-.021 11.117-6.995 21.245-17.362 25.231C39.774 68.178 32.79 58.05 32.77 46.934v-12.48l17.372-6.943 17.362 6.943v12.48Z" fill="#9DADF2"/><path d="M42.419 34.401a1.104 1.104 0 0 0-.854 0l-4.403 1.76a1.095 1.095 0 0 0-.697 1.03v4.694a1.115 1.115 0 0 0 2.227 0v-3.934l3.695-1.478c.281-.114.49-.323.614-.604.115-.27.115-.572 0-.853a1.142 1.142 0 0 0-.593-.614h.01Z" fill="#9DADF2"/><path d="M78.298 21.651C70.783 14.126 60.78 9.993 50.142 9.993c-10.637 0-20.63 4.143-28.155 11.658-15.52 15.52-15.52 40.781 0 56.31C29.752 85.728 39.942 89.6 50.142 89.6c10.2 0 20.391-3.883 28.156-11.637 15.52-15.52 15.52-40.781 0-56.31Zm-5.506 25.283c.03 14.124-8.993 26.48-22.452 30.757a.642.642 0 0 1-.395 0c-13.459-4.278-22.483-16.633-22.452-30.757V31.31c0-.26.156-.5.406-.603l22.004-8.796a.61.61 0 0 1 .24-.041c.083 0 .166.01.239.041l22.004 8.806c.25.094.406.333.406.604v15.623-.01Z" fill="#9DADF2"/></g></svg>