<svg width="660" height="165" fill="none" xmlns="http://www.w3.org/2000/svg"><g opacity=".4"><path d="M635.017 49.617c-6.277 0-12.548-2.387-17.328-7.167-9.555-9.555-9.555-25.098 0-34.652C622.319 3.167 628.473.62 635.017.62c6.545 0 12.699 2.547 17.329 7.178 9.555 9.554 9.555 25.097 0 34.652-4.774 4.774-11.051 7.167-17.329 7.167Zm-16.042-8.453c8.844 8.844 23.235 8.844 32.08 0 8.844-8.845 8.844-23.236 0-32.08-4.286-4.286-9.982-6.643-16.043-6.643s-11.756 2.362-16.042 6.643c-8.845 8.844-8.845 23.235 0 32.08h.005Z" fill="#9DADF2"/><path d="M634.693 34.29c.088.21.294.334.51.334a.643.643 0 0 0 .216-.041 12.699 12.699 0 0 0 4.548-3.247.552.552 0 0 0-.046-.777.552.552 0 0 0-.777.047 11.503 11.503 0 0 1-4.152 2.963.553.553 0 0 0-.294.72h-.005Z" fill="#9DADF2"/><path d="M644.355 16.652 635.217 13a.567.567 0 0 0-.411 0l-9.138 3.653a.542.542 0 0 0-.345.51v6.544c.011 6.04 3.828 11.5 9.498 13.578a.593.593 0 0 0 .381 0c5.67-2.084 9.487-7.538 9.498-13.578v-6.545a.542.542 0 0 0-.345-.509Zm-.756 7.054c-.011 5.495-3.458 10.501-8.582 12.472-5.125-1.97-8.577-6.977-8.588-12.472v-6.169l8.588-3.432 8.582 3.432v6.169Z" fill="#9DADF2"/><path d="M631.199 17.511a.546.546 0 0 0-.422 0l-2.176.87a.542.542 0 0 0-.345.51v2.32a.551.551 0 0 0 1.101 0v-1.945l1.827-.73a.553.553 0 0 0 .303-.3.562.562 0 0 0-.293-.726h.005Z" fill="#9DADF2"/><path d="M648.929 11.209c-3.715-3.72-8.659-5.763-13.917-5.763a19.565 19.565 0 0 0-13.918 5.763c-7.671 7.67-7.671 20.158 0 27.835 3.838 3.838 8.875 5.752 13.918 5.752 5.042 0 10.079-1.92 13.917-5.752 7.671-7.672 7.671-20.159 0-27.835Zm-2.722 12.497a15.853 15.853 0 0 1-11.098 15.204.315.315 0 0 1-.195 0 15.853 15.853 0 0 1-11.098-15.204v-7.723c0-.128.077-.247.201-.298l10.876-4.348a.303.303 0 0 1 .119-.02c.041 0 .082.005.118.02l10.877 4.353c.123.046.2.165.2.298v7.723-.005Z" fill="#9DADF2"/><path d="M572.435 49.537c-13.506 0-24.491-10.99-24.491-24.49 0-13.501 10.99-24.491 24.491-24.491 13.5 0 24.49 10.99 24.49 24.49 0 13.501-10.99 24.491-24.49 24.491Zm0-47.35c-12.606 0-22.86 10.254-22.86 22.86 0 12.605 10.254 22.86 22.86 22.86 12.605 0 22.859-10.255 22.859-22.86 0-12.606-10.254-22.86-22.859-22.86Z" fill="#fff"/><path d="M580.378 9.75a.803.803 0 0 1-.36-.082 16.964 16.964 0 0 0-7.584-1.77c-2.66 0-5.212.597-7.583 1.77a.815.815 0 0 1-.937-.154l-4.209-4.21a.811.811 0 0 1-.231-.678.814.814 0 0 1 .391-.602A24.446 24.446 0 0 1 572.44.55c4.435 0 8.782 1.204 12.574 3.473.216.128.36.35.391.602a.827.827 0 0 1-.231.679l-4.209 4.209a.83.83 0 0 1-.581.236h-.006Zm-7.944-3.483c2.712 0 5.326.566 7.775 1.682l3.046-3.045a22.818 22.818 0 0 0-10.821-2.722c-3.786 0-7.506.936-10.82 2.722l3.046 3.045a18.606 18.606 0 0 1 7.774-1.682ZM572.433 49.537a24.494 24.494 0 0 1-12.574-3.473.814.814 0 0 1-.391-.602.827.827 0 0 1 .231-.679l4.209-4.209a.815.815 0 0 1 .936-.154 16.964 16.964 0 0 0 7.584 1.77c2.66 0 5.212-.597 7.584-1.77a.815.815 0 0 1 .937.154l4.208 4.21c.18.18.263.426.232.678a.814.814 0 0 1-.391.602 24.449 24.449 0 0 1-12.575 3.473h.01Zm-10.82-4.352a22.817 22.817 0 0 0 10.82 2.721c3.787 0 7.507-.936 10.821-2.721l-3.046-3.046a18.607 18.607 0 0 1-7.775 1.682c-2.711 0-5.325-.566-7.774-1.682l-3.046 3.045ZM592.753 38.012a.81.81 0 0 1-.576-.236l-4.209-4.209a.818.818 0 0 1-.154-.936 16.965 16.965 0 0 0 1.77-7.584c0-2.66-.597-5.212-1.77-7.584a.815.815 0 0 1 .154-.937l4.209-4.208a.811.811 0 0 1 .679-.232c.252.031.474.175.602.391a24.449 24.449 0 0 1 3.473 12.575c0 4.435-1.199 8.782-3.473 12.575a.813.813 0 0 1-.602.39h-.103v-.005Zm-3.226-5.196 3.046 3.046a22.806 22.806 0 0 0 2.722-10.82c0-3.787-.936-7.507-2.722-10.82l-3.046 3.045a18.6 18.6 0 0 1 1.683 7.775c0 2.711-.566 5.325-1.683 7.774ZM552.117 38.012c-.036 0-.067 0-.098-.005a.813.813 0 0 1-.602-.391 24.449 24.449 0 0 1-3.473-12.575c0-4.435 1.199-8.782 3.473-12.574a.813.813 0 0 1 .602-.391.828.828 0 0 1 .679.231l4.209 4.209a.816.816 0 0 1 .154.936 16.965 16.965 0 0 0-1.77 7.584c0 2.66.597 5.212 1.77 7.584a.813.813 0 0 1-.154.937l-4.209 4.208a.814.814 0 0 1-.576.242l-.005.005Zm.18-23.79a22.806 22.806 0 0 0-2.722 10.82c0 3.786.936 7.506 2.722 10.82l3.046-3.046a18.6 18.6 0 0 1-1.683-7.775c0-2.711.566-5.325 1.683-7.774l-3.046-3.046Z" fill="#fff"/><path d="M572.435 6.267c-10.352 0-18.779 8.423-18.779 18.78 0 10.357 8.422 18.78 18.779 18.78s18.78-8.423 18.78-18.78c0-10.357-8.423-18.78-18.78-18.78Zm10.568 12.61a12.085 12.085 0 0 1 1.605 4.95.18.18 0 0 1-.087.175 15.72 15.72 0 0 0-3.586 3.01.17.17 0 0 1-.191.052l-2.32-.757a.177.177 0 0 1-.123-.149 16.183 16.183 0 0 0-1.775-5.464.182.182 0 0 1 .015-.19l1.435-1.976a.196.196 0 0 1 .15-.077h.041c1.533.34 3.107.453 4.672.324a.185.185 0 0 1 .174.092l-.01.01Zm-5.968 7.605a.187.187 0 0 1-.041.14 12.294 12.294 0 0 1-4.487 3.25.164.164 0 0 1-.139 0 12.4 12.4 0 0 1-4.486-3.25.183.183 0 0 1-.041-.14 14.895 14.895 0 0 1 1.718-5.289.172.172 0 0 1 .118-.087 13.436 13.436 0 0 1 5.526 0c.052.01.093.04.119.087a15.016 15.016 0 0 1 1.718 5.29h-.005Zm-.278-12.77s.062-.051.124-.051c.02 0 .046 0 .072.015a12.335 12.335 0 0 1 4.903 3.566c.067.077.041.16.026.19a.178.178 0 0 1-.165.108 14.169 14.169 0 0 1-3.458-.386.184.184 0 0 1-.113-.082 14.586 14.586 0 0 1-1.435-3.175.17.17 0 0 1 .051-.185h-.005Zm-6.92-.617a12.48 12.48 0 0 1 5.202 0 .183.183 0 0 1 .138.133c.366 1.529.957 2.99 1.755 4.343a.19.19 0 0 1-.01.2l-1.426 1.966a.178.178 0 0 1-.18.072 14.652 14.652 0 0 0-5.757 0 .178.178 0 0 1-.18-.072l-1.425-1.965a.189.189 0 0 1-.011-.201 15.746 15.746 0 0 0 1.755-4.343.183.183 0 0 1 .139-.133Zm-6.817 4.147a12.23 12.23 0 0 1 4.903-3.566.203.203 0 0 1 .072-.015.17.17 0 0 1 .123.051c.026.026.083.088.052.185a14.479 14.479 0 0 1-1.436 3.175.181.181 0 0 1-.113.082 14.16 14.16 0 0 1-3.457.386.177.177 0 0 1-.165-.108.171.171 0 0 1 .026-.19h-.005Zm-1.148 1.636a.183.183 0 0 1 .16-.093h.015c1.569.124 3.144.016 4.672-.324a.174.174 0 0 1 .185.072l1.436 1.976a.183.183 0 0 1 .015.19 16.14 16.14 0 0 0-1.775 5.464.193.193 0 0 1-.123.15l-2.321.756a.186.186 0 0 1-.19-.052 15.764 15.764 0 0 0-3.586-3.01.192.192 0 0 1-.088-.175 12.074 12.074 0 0 1 1.605-4.95l-.005-.004Zm.561 12.677a.18.18 0 0 1-.154.124c-.036 0-.119 0-.175-.083a12.21 12.21 0 0 1-1.873-5.767.176.176 0 0 1 .093-.17c.03-.015.113-.051.195.01a14.31 14.31 0 0 1 2.573 2.346.18.18 0 0 1 .041.134 14.118 14.118 0 0 1-.705 3.411l.005-.005Zm5.083 4.698a12.146 12.146 0 0 1-4.203-3.067.186.186 0 0 1-.036-.19c.602-1.451.983-2.98 1.132-4.543a.176.176 0 0 1 .123-.155l2.295-.746s.036-.01.057-.01c.051 0 .097.02.133.062a13.695 13.695 0 0 0 4.662 3.39.18.18 0 0 1 .108.165v2.413a.174.174 0 0 1-.108.165 15.715 15.715 0 0 0-3.977 2.485.174.174 0 0 1-.191.026l.005.005Zm8.094.51a.172.172 0 0 1-.134.143 12.372 12.372 0 0 1-6.071 0 .18.18 0 0 1-.134-.144.18.18 0 0 1 .072-.185 14.345 14.345 0 0 1 3.03-1.724.164.164 0 0 1 .139 0 14.63 14.63 0 0 1 3.031 1.724.19.19 0 0 1 .072.185h-.005Zm5.963-3.572a12.134 12.134 0 0 1-4.204 3.062.18.18 0 0 1-.19-.026 15.648 15.648 0 0 0-3.977-2.485.18.18 0 0 1-.108-.165v-2.413c0-.072.041-.139.108-.164a13.635 13.635 0 0 0 4.661-3.391.174.174 0 0 1 .134-.062c.021 0 .036 0 .057.01l2.294.747c.067.02.119.082.124.154A15.78 15.78 0 0 0 581.604 33a.178.178 0 0 1-.036.19h.005Zm1.204-1.59a.176.176 0 0 1-.175.083c-.036 0-.118-.026-.155-.124a14.61 14.61 0 0 1-.704-3.41c0-.047.01-.098.041-.135.756-.88 1.62-1.667 2.572-2.346a.178.178 0 0 1 .103-.036c.041 0 .072.016.093.026a.167.167 0 0 1 .092.17 12.198 12.198 0 0 1-1.872 5.767l.005.006Z" fill="#fff"/><path d="M511.406 49.617c-6.277 0-12.548-2.387-17.328-7.167-9.555-9.555-9.555-25.098 0-34.652C498.708 3.167 504.862.62 511.406.62c6.545 0 12.699 2.547 17.329 7.178 9.555 9.554 9.555 25.097 0 34.652-4.775 4.774-11.052 7.167-17.329 7.167Zm-16.042-8.453c8.844 8.844 23.235 8.844 32.08 0 8.844-8.845 8.844-23.236 0-32.08-4.286-4.286-9.982-6.643-16.043-6.643s-11.756 2.362-16.042 6.643c-8.845 8.844-8.845 23.235 0 32.08h.005Z" fill="#9DADF2"/><path d="M511.082 34.295a.549.549 0 0 0 .51.334.643.643 0 0 0 .216-.04 12.699 12.699 0 0 0 4.548-3.247.552.552 0 0 0-.046-.777.552.552 0 0 0-.777.046 11.503 11.503 0 0 1-4.152 2.964.551.551 0 0 0-.293.72h-.006Z" fill="#9DADF2"/><path d="M520.744 16.652 511.606 13a.567.567 0 0 0-.411 0l-9.138 3.653a.542.542 0 0 0-.345.51v6.544c.011 6.04 3.828 11.5 9.498 13.578a.594.594 0 0 0 .381 0c5.67-2.084 9.488-7.538 9.498-13.578v-6.545a.542.542 0 0 0-.345-.509Zm-.756 7.054c-.01 5.495-3.458 10.501-8.582 12.472-5.125-1.97-8.577-6.977-8.587-12.472v-6.169l8.587-3.432 8.582 3.432v6.169Z" fill="#9DADF2"/><path d="M507.588 17.511a.546.546 0 0 0-.422 0l-2.176.87a.542.542 0 0 0-.345.51v2.32a.551.551 0 0 0 1.101 0v-1.945l1.827-.73a.553.553 0 0 0 .303-.3.562.562 0 0 0-.293-.726h.005Z" fill="#9DADF2"/><path d="M525.318 11.209c-3.715-3.72-8.659-5.763-13.918-5.763a19.565 19.565 0 0 0-13.917 5.763c-7.671 7.67-7.671 20.158 0 27.835 3.838 3.838 8.875 5.752 13.917 5.752 5.043 0 10.08-1.92 13.918-5.752 7.671-7.672 7.671-20.159 0-27.835Zm-2.722 12.497a15.853 15.853 0 0 1-11.098 15.204.315.315 0 0 1-.195 0 15.853 15.853 0 0 1-11.098-15.204v-7.723c0-.128.077-.247.2-.298l10.877-4.348a.301.301 0 0 1 .118-.02c.042 0 .083.005.119.02l10.877 4.353c.123.046.2.165.2.298v7.723-.005Z" fill="#9DADF2"/><path d="M450.954 49.404c-13.506 0-24.491-10.99-24.491-24.49 0-13.501 10.99-24.49 24.491-24.49s24.491 10.989 24.491 24.49c0 13.5-10.99 24.49-24.491 24.49Zm0-47.35c-12.605 0-22.86 10.254-22.86 22.86 0 12.605 10.255 22.86 22.86 22.86 12.606 0 22.86-10.255 22.86-22.86 0-12.606-10.254-22.86-22.86-22.86Z" fill="#478BF9"/><path d="m466.931 7.442-7.582 7.581 1.492 1.492 7.581-7.582-1.491-1.491ZM440.835 33.537l-7.582 7.582 1.491 1.492 7.582-7.582-1.491-1.492ZM461.07 33.544l-1.491 1.492 7.581 7.582 1.492-1.492-7.582-7.582ZM434.742 7.213l-1.491 1.492 7.578 7.578 1.492-1.492-7.579-7.578ZM456.927 25.572a1.254 1.254 0 0 0 0-1.78l-1.049-1.044a1.254 1.254 0 0 0-1.78 0l-.566.566-.654-.654a1.254 1.254 0 0 0-1.78 0l-.566.571-.653-.658a1.256 1.256 0 0 0-1.781 0l-3.473 3.473c-.025.026-.025.067 0 .098a1.2 1.2 0 0 0 1.688 0l2.238-2.239a.618.618 0 0 1 .875 0l.165.165c.03.03.03.077 0 .108l-1.868 1.868c-.026.026-.026.067 0 .098a1.198 1.198 0 0 0 1.687 0l2.146-2.146a.618.618 0 0 1 .875 0l.164.165c.026.025.026.067 0 .097l-1.801 1.801c-.025.026-.025.067 0 .098a1.2 1.2 0 0 0 1.688 0l2.074-2.073a.617.617 0 0 1 .874 0l.355.355a.363.363 0 0 1 0 .509l-.056.056a.364.364 0 0 1-.51 0l-.458-.457c-.025-.026-.067-.026-.097 0l-.793.792c-.025.026-.025.067 0 .098l.715.715a1.255 1.255 0 0 0 1.781 0l.566-.566-.006-.016Z" fill="#478BF9"/><path d="M450.955 6.134c-10.373 0-18.78 8.407-18.78 18.78 0 10.372 8.407 18.78 18.78 18.78 10.372 0 18.779-8.408 18.779-18.78 0-10.373-8.407-18.78-18.779-18.78Zm.766 5.799a12.955 12.955 0 0 1 7.872 3.262l-2.711 2.711a9.152 9.152 0 0 0-5.161-2.14v-3.833Zm-1.528 0v3.833a9.117 9.117 0 0 0-5.16 2.14l-2.712-2.711a12.958 12.958 0 0 1 7.872-3.262Zm-8.952 4.342 2.711 2.712a9.147 9.147 0 0 0-2.14 5.16h-3.833a12.96 12.96 0 0 1 3.262-7.872Zm-3.262 9.4h3.833a9.113 9.113 0 0 0 2.14 5.16l-2.711 2.712a12.96 12.96 0 0 1-3.262-7.872Zm12.214 12.215a12.959 12.959 0 0 1-7.872-3.262l2.712-2.712a9.152 9.152 0 0 0 5.16 2.14v3.834Zm-7.131-12.982a7.893 7.893 0 1 1 7.893 7.893 7.894 7.894 0 0 1-7.893-7.893Zm8.659 12.982v-3.834a9.118 9.118 0 0 0 5.161-2.14l2.711 2.712a12.956 12.956 0 0 1-7.872 3.262Zm8.953-4.343-2.712-2.711a9.155 9.155 0 0 0 2.141-5.16h3.833a12.96 12.96 0 0 1-3.262 7.871Zm-.571-9.4a9.12 9.12 0 0 0-2.141-5.16l2.712-2.712a12.96 12.96 0 0 1 3.262 7.872h-3.833Z" fill="#478BF9"/><path d="M369.143 42.167c-9.634-9.634-9.634-25.308 0-34.942 9.634-9.633 25.308-9.633 34.942 0 9.634 9.634 9.634 25.308 0 34.942s-25.308 9.634-34.942 0ZM402.921 8.39c-8.992-8.992-23.621-8.992-32.611 0-8.992 8.992-8.992 23.621 0 32.61 8.992 8.993 23.621 8.993 32.611 0 8.992-8.991 8.992-23.62 0-32.61Z" fill="#fff"/><path d="M403.188 19.455a.81.81 0 0 1-.197-.318 17.094 17.094 0 0 0-4.15-6.67 17.126 17.126 0 0 0-6.67-4.15.824.824 0 0 1-.56-.78V1.532a.825.825 0 0 1 1.022-.799 24.652 24.652 0 0 1 11.447 6.492 24.676 24.676 0 0 1 6.49 11.448.82.82 0 0 1-.799 1.024h-6.005a.82.82 0 0 1-.583-.244l.005.002Zm-3.182-8.153a18.774 18.774 0 0 1 4.346 6.747h4.344a23.046 23.046 0 0 0-5.778-9.66 23.012 23.012 0 0 0-9.657-5.774v4.343a18.711 18.711 0 0 1 6.747 4.346l-.002-.002ZM369.143 42.167a24.668 24.668 0 0 1-6.492-11.447.826.826 0 0 1 .798-1.022h6.005c.354 0 .668.225.781.56a17.091 17.091 0 0 0 4.149 6.67 17.133 17.133 0 0 0 6.67 4.15c.335.112.56.426.56.78v6.005a.828.828 0 0 1-.316.649.827.827 0 0 1-.708.15 24.677 24.677 0 0 1-11.447-6.49v-.005Zm-4.613-10.824a23.033 23.033 0 0 0 5.777 9.66 23.038 23.038 0 0 0 9.66 5.777v-4.343a18.748 18.748 0 0 1-6.748-4.344 18.787 18.787 0 0 1-4.346-6.748h-4.343v-.002ZM391.856 48.442a.825.825 0 0 1-.241-.584v-6.005c0-.353.225-.667.56-.78a17.1 17.1 0 0 0 6.67-4.149 17.115 17.115 0 0 0 4.149-6.67.823.823 0 0 1 .781-.56h6.004a.82.82 0 0 1 .799 1.021 24.697 24.697 0 0 1-6.492 11.448 24.651 24.651 0 0 1-11.447 6.492.826.826 0 0 1-.705-.15c-.026-.024-.052-.045-.075-.068l-.003.005Zm1.406-6.008v4.344a23.045 23.045 0 0 0 9.66-5.777 23.065 23.065 0 0 0 5.777-9.66h-4.343a18.74 18.74 0 0 1-4.346 6.747 18.754 18.754 0 0 1-6.748 4.346ZM362.866 19.455a.824.824 0 0 1-.215-.783 24.65 24.65 0 0 1 6.492-11.447A24.682 24.682 0 0 1 380.59.733a.828.828 0 0 1 .706.15.827.827 0 0 1 .316.65v6.004a.822.822 0 0 1-.56.78 17.1 17.1 0 0 0-6.67 4.15 17.12 17.12 0 0 0-4.149 6.67.823.823 0 0 1-.781.56h-6.004a.826.826 0 0 1-.584-.24l.002-.002Zm17.099-16.84a23.045 23.045 0 0 0-9.66 5.777 23.064 23.064 0 0 0-5.777 9.66h4.343a18.74 18.74 0 0 1 4.346-6.747 18.785 18.785 0 0 1 6.748-4.347V2.615Z" fill="#fff"/><path d="M400.008 11.302c-7.385-7.385-19.404-7.387-26.789 0-7.387 7.387-7.385 19.404 0 26.789 7.385 7.385 19.402 7.387 26.789 0 7.387-7.387 7.385-19.404 0-26.789Z" fill="#fff"/><path d="m393.445 31.458-13.607.09a1.038 1.038 0 0 0-1.031 1.045l.003.484a1.038 1.038 0 0 0 1.045 1.032l13.607-.09a1.038 1.038 0 0 0 1.031-1.045l-.003-.485a1.038 1.038 0 0 0-1.045-1.031ZM381.692 23.244c-.148 0-.298-.033-.434-.098l-1.061-.514a.98.98 0 0 1-.48-1.246l.487-1.214a.978.978 0 0 1 1.392-.485l1.265.722a.979.979 0 0 1 .321 1.406l-.694 1.005a.972.972 0 0 1-.799.422l.003.002ZM391.486 23.178a.98.98 0 0 1-.803-.412l-.687-.968c-.159-.222-.215-.503-.159-.77a.977.977 0 0 1 .461-.64l1.305-.766a.98.98 0 0 1 1.399.466l.492 1.178a.984.984 0 0 1-.464 1.254l-1.11.555a.992.992 0 0 1-.431.103h-.003Z" fill="#110A1D"/><path d="M380.623 30.638a1.413 1.413 0 0 1-1.338-.932l-2.27-6.249a2.437 2.437 0 0 1-1.02.234 2.397 2.397 0 0 1-.03-4.791 2.397 2.397 0 0 1 2.251 3.252c-.058.15-.131.293-.215.429l4.318 2.09 3.303-4.787a2.423 2.423 0 0 1-1.014-.818 2.38 2.38 0 0 1-.443-1.37 2.4 2.4 0 0 1 2.558-2.409 2.4 2.4 0 0 1 2.226 2.212 2.391 2.391 0 0 1-1.434 2.376l3.362 4.737 4.248-2.125a2.34 2.34 0 0 1-.276-1.104 2.394 2.394 0 1 1 4.789-.03 2.4 2.4 0 0 1-2.229 2.406l-.15.005a2.329 2.329 0 0 1-1.145-.284l-2.132 6.127a1.415 1.415 0 0 1-1.326.949l-12.033.08v.002Z" fill="#110A1D"/><path d="M326.953 49.617c-6.277 0-12.549-2.387-17.329-7.167-9.554-9.555-9.554-25.098 0-34.652C314.255 3.167 320.408.62 326.953.62s12.698 2.547 17.329 7.178c9.554 9.554 9.554 25.097 0 34.652-4.775 4.774-11.052 7.167-17.329 7.167Zm-16.042-8.453c8.844 8.844 23.235 8.844 32.079 0 8.845-8.845 8.845-23.236 0-32.08-4.286-4.286-9.981-6.643-16.042-6.643-6.061 0-11.757 2.362-16.043 6.643-8.844 8.844-8.844 23.235 0 32.08h.006Z" fill="#9DADF2"/><path d="M326.629 34.29c.087.21.293.334.509.334a.643.643 0 0 0 .216-.041 12.711 12.711 0 0 0 4.549-3.247.552.552 0 0 0-.047-.777.552.552 0 0 0-.777.047 11.495 11.495 0 0 1-4.152 2.963.552.552 0 0 0-.293.72h-.005Z" fill="#9DADF2"/><path d="M336.291 16.652 327.153 13a.57.57 0 0 0-.412 0l-9.137 3.653a.542.542 0 0 0-.345.51v6.544c.01 6.04 3.828 11.5 9.498 13.578a.588.588 0 0 0 .381 0c5.67-2.084 9.487-7.538 9.498-13.578v-6.545a.542.542 0 0 0-.345-.509Zm-.757 7.054c-.01 5.495-3.457 10.501-8.582 12.472-5.124-1.97-8.576-6.977-8.587-12.472v-6.169l8.587-3.432 8.582 3.432v6.169Z" fill="#9DADF2"/><path d="M323.135 17.511a.546.546 0 0 0-.422 0l-2.176.87a.542.542 0 0 0-.345.51v2.32a.551.551 0 0 0 1.101 0v-1.945l1.826-.73a.558.558 0 0 0 .304-.3.565.565 0 0 0-.293-.726h.005Z" fill="#9DADF2"/><path d="M340.865 11.209c-3.715-3.72-8.66-5.763-13.918-5.763a19.565 19.565 0 0 0-13.917 5.763c-7.672 7.67-7.672 20.158 0 27.835 3.838 3.838 8.875 5.752 13.917 5.752s10.079-1.92 13.918-5.752c7.671-7.672 7.671-20.159 0-27.835Zm-2.722 12.497a15.854 15.854 0 0 1-11.098 15.204.318.318 0 0 1-.196 0 15.856 15.856 0 0 1-11.098-15.204v-7.723c0-.128.078-.247.201-.298l10.877-4.348a.301.301 0 0 1 .118-.02c.041 0 .082.005.118.02l10.877 4.353a.313.313 0 0 1 .201.298v7.723-.005Z" fill="#9DADF2"/><path d="M264.37 49.537c-13.506 0-24.49-10.99-24.49-24.49 0-13.501 10.99-24.491 24.49-24.491 13.501 0 24.491 10.99 24.491 24.49 0 13.501-10.99 24.491-24.491 24.491Zm0-47.35c-12.605 0-22.859 10.254-22.859 22.86 0 12.605 10.254 22.86 22.859 22.86 12.606 0 22.86-10.255 22.86-22.86 0-12.606-10.254-22.86-22.86-22.86Z" fill="#fff"/><path d="M272.314 9.75a.8.8 0 0 1-.36-.082 16.964 16.964 0 0 0-7.584-1.77c-2.66 0-5.212.597-7.584 1.77a.815.815 0 0 1-.937-.155l-4.208-4.208a.812.812 0 0 1-.232-.68.814.814 0 0 1 .391-.602A24.449 24.449 0 0 1 264.375.551c4.435 0 8.783 1.203 12.574 3.472.217.13.361.35.391.602a.827.827 0 0 1-.231.68L272.9 9.513a.829.829 0 0 1-.581.237h-.005Zm-7.944-3.483c2.711 0 5.325.566 7.774 1.682l3.046-3.046a22.817 22.817 0 0 0-10.82-2.721c-3.787 0-7.507.936-10.82 2.721l3.045 3.046a18.611 18.611 0 0 1 7.775-1.682ZM264.369 49.537a24.498 24.498 0 0 1-12.575-3.473.814.814 0 0 1-.391-.602.827.827 0 0 1 .232-.679l4.209-4.209a.815.815 0 0 1 .936-.154 16.964 16.964 0 0 0 7.584 1.77c2.66 0 5.212-.597 7.584-1.77a.814.814 0 0 1 .936.154l4.209 4.21c.18.18.262.426.231.678a.814.814 0 0 1-.391.602 24.445 24.445 0 0 1-12.574 3.473h.01Zm-10.82-4.352a22.812 22.812 0 0 0 10.82 2.721c3.787 0 7.507-.936 10.82-2.721l-3.046-3.046a18.606 18.606 0 0 1-7.774 1.682c-2.711 0-5.325-.566-7.774-1.682l-3.046 3.045ZM284.689 38.012a.808.808 0 0 1-.576-.237l-4.209-4.208a.814.814 0 0 1-.154-.937 16.964 16.964 0 0 0 1.77-7.584c0-2.66-.597-5.212-1.77-7.583a.812.812 0 0 1 .154-.937l4.209-4.208a.812.812 0 0 1 .679-.232c.252.03.473.175.602.391a24.448 24.448 0 0 1 3.473 12.575c0 4.435-1.199 8.782-3.473 12.574a.814.814 0 0 1-.602.391h-.103v-.005Zm-3.226-5.196 3.046 3.045a22.818 22.818 0 0 0 2.722-10.82c0-3.787-.937-7.506-2.722-10.82l-3.046 3.046a18.613 18.613 0 0 1 1.682 7.774c0 2.712-.566 5.325-1.682 7.775ZM244.052 38.012c-.036 0-.067 0-.098-.005a.815.815 0 0 1-.602-.391 24.449 24.449 0 0 1-3.473-12.575c0-4.435 1.199-8.782 3.473-12.574a.814.814 0 0 1 .602-.391.828.828 0 0 1 .679.231l4.209 4.209a.816.816 0 0 1 .155.936 16.951 16.951 0 0 0-1.77 7.584c0 2.66.596 5.212 1.77 7.584a.814.814 0 0 1-.155.937l-4.209 4.208a.814.814 0 0 1-.576.242l-.005.005Zm.18-23.79a22.818 22.818 0 0 0-2.722 10.82c0 3.786.937 7.506 2.722 10.82l3.046-3.046a18.614 18.614 0 0 1-1.682-7.775c0-2.711.566-5.325 1.682-7.774l-3.046-3.046Z" fill="#fff"/><path d="M264.371 6.267c-10.352 0-18.78 8.422-18.78 18.78 0 10.357 8.423 18.78 18.78 18.78 10.357 0 18.779-8.423 18.779-18.78 0-10.358-8.422-18.78-18.779-18.78Zm10.568 12.61a12.099 12.099 0 0 1 1.605 4.95.183.183 0 0 1-.087.175 15.748 15.748 0 0 0-3.587 3.01.168.168 0 0 1-.19.051l-2.32-.756a.178.178 0 0 1-.124-.15 16.14 16.14 0 0 0-1.775-5.463.182.182 0 0 1 .015-.19l1.436-1.976a.196.196 0 0 1 .149-.078h.041c1.534.34 3.108.453 4.672.325a.186.186 0 0 1 .175.092l-.01.01Zm-5.969 7.605a.183.183 0 0 1-.041.139 12.282 12.282 0 0 1-4.486 3.252.164.164 0 0 1-.139 0 12.407 12.407 0 0 1-4.487-3.252.187.187 0 0 1-.041-.139 14.895 14.895 0 0 1 1.719-5.29.168.168 0 0 1 .118-.087 13.436 13.436 0 0 1 5.526 0c.051.01.092.041.118.088a15.016 15.016 0 0 1 1.719 5.289h-.006Zm-.277-12.77s.061-.052.123-.052a.13.13 0 0 1 .072.016 12.334 12.334 0 0 1 4.903 3.565.17.17 0 0 1 .026.19.177.177 0 0 1-.165.109 14.176 14.176 0 0 1-3.457-.386.182.182 0 0 1-.113-.082 14.588 14.588 0 0 1-1.436-3.175.17.17 0 0 1 .052-.185h-.005Zm-6.921-.618a12.483 12.483 0 0 1 5.202 0 .183.183 0 0 1 .139.134c.365 1.528.957 2.99 1.755 4.343a.19.19 0 0 1-.011.2l-1.425 1.966a.178.178 0 0 1-.18.072 14.649 14.649 0 0 0-5.757 0 .18.18 0 0 1-.181-.072l-1.425-1.966a.189.189 0 0 1-.01-.2 15.775 15.775 0 0 0 1.754-4.343.186.186 0 0 1 .139-.134Zm-6.817 4.147a12.236 12.236 0 0 1 4.903-3.565.173.173 0 0 1 .196.036.174.174 0 0 1 .051.185 14.43 14.43 0 0 1-1.435 3.175.184.184 0 0 1-.113.082c-1.127.267-2.29.401-3.458.386a.175.175 0 0 1-.164-.108.169.169 0 0 1 .025-.19h-.005Zm-1.147 1.637a.18.18 0 0 1 .159-.093h.016c1.569.123 3.143.015 4.671-.324a.174.174 0 0 1 .186.072l1.435 1.976a.185.185 0 0 1 .016.19 16.14 16.14 0 0 0-1.775 5.464.194.194 0 0 1-.124.15l-2.32.756a.189.189 0 0 1-.191-.052 15.718 15.718 0 0 0-3.586-3.01.193.193 0 0 1-.087-.175 12.075 12.075 0 0 1 1.605-4.95l-.005-.005Zm.561 12.677c-.031.098-.119.118-.155.123-.036 0-.118 0-.175-.082a12.21 12.21 0 0 1-1.873-5.768.176.176 0 0 1 .093-.17c.031-.015.113-.05.196.011a14.305 14.305 0 0 1 2.572 2.346.175.175 0 0 1 .041.134 14.072 14.072 0 0 1-.705 3.411l.006-.005Zm5.083 4.697a12.157 12.157 0 0 1-4.204-3.066.188.188 0 0 1-.036-.19c.602-1.451.983-2.98 1.132-4.544a.177.177 0 0 1 .124-.154l2.295-.746s.036-.01.056-.01c.052 0 .098.02.134.062a13.692 13.692 0 0 0 4.661 3.39.18.18 0 0 1 .108.165v2.413a.174.174 0 0 1-.108.165 15.75 15.75 0 0 0-3.977 2.485.172.172 0 0 1-.19.025l.005.005Zm8.093.51a.172.172 0 0 1-.134.144 12.372 12.372 0 0 1-6.071 0 .181.181 0 0 1-.134-.144.182.182 0 0 1 .072-.185 14.382 14.382 0 0 1 3.031-1.724.165.165 0 0 1 .139 0c1.07.448 2.089 1.03 3.03 1.724.083.061.078.149.072.185h-.005Zm5.963-3.57a12.131 12.131 0 0 1-4.203 3.06.182.182 0 0 1-.191-.025 15.628 15.628 0 0 0-3.977-2.485.18.18 0 0 1-.108-.165v-2.413c0-.072.041-.139.108-.165a13.64 13.64 0 0 0 4.662-3.39.173.173 0 0 1 .134-.062c.02 0 .036 0 .056.01l2.295.746c.067.02.118.083.123.155.15 1.564.53 3.087 1.132 4.543a.174.174 0 0 1-.036.19h.005Zm1.204-1.59a.176.176 0 0 1-.175.082c-.036 0-.118-.026-.154-.124a14.665 14.665 0 0 1-.705-3.411c0-.046.01-.098.041-.134a14.507 14.507 0 0 1 2.573-2.346.178.178 0 0 1 .103-.036c.041 0 .072.015.092.026a.168.168 0 0 1 .093.17 12.21 12.21 0 0 1-1.873 5.767l.005.005Z" fill="#fff"/><path d="M203.342 49.617c-6.277 0-12.549-2.387-17.329-7.167-9.554-9.555-9.554-25.098 0-34.652C190.644 3.167 196.797.62 203.342.62c6.544 0 12.698 2.547 17.328 7.178 9.555 9.554 9.555 25.097 0 34.652-4.774 4.774-11.051 7.167-17.328 7.167Zm-16.043-8.453c8.845 8.844 23.236 8.844 32.08 0 8.844-8.845 8.844-23.236 0-32.08-4.286-4.286-9.982-6.643-16.042-6.643-6.061 0-11.757 2.362-16.043 6.643-8.844 8.844-8.844 23.235 0 32.08h.005Z" fill="#9DADF2"/><path d="M203.018 34.295a.547.547 0 0 0 .509.334.643.643 0 0 0 .216-.04 12.699 12.699 0 0 0 4.548-3.247.552.552 0 0 0-.046-.777.552.552 0 0 0-.777.046 11.503 11.503 0 0 1-4.152 2.964.551.551 0 0 0-.293.72h-.005Z" fill="#9DADF2"/><path d="M212.679 16.652 203.542 13a.57.57 0 0 0-.412 0l-9.138 3.653a.542.542 0 0 0-.344.51v6.544c.01 6.04 3.828 11.5 9.498 13.578a.584.584 0 0 0 .38 0c5.67-2.084 9.488-7.538 9.498-13.578v-6.545a.542.542 0 0 0-.345-.509Zm-.756 7.054c-.01 5.495-3.457 10.501-8.582 12.472-5.124-1.97-8.577-6.977-8.587-12.472v-6.169l8.587-3.432 8.582 3.432v6.169Z" fill="#9DADF2"/><path d="M199.524 17.511a.546.546 0 0 0-.422 0l-2.177.87a.54.54 0 0 0-.344.51v2.32a.551.551 0 0 0 1.101 0v-1.945l1.826-.73a.55.55 0 0 0 .304-.72.567.567 0 0 0-.294-.305h.006Z" fill="#9DADF2"/><path d="M217.253 11.209c-3.714-3.72-8.659-5.763-13.917-5.763a19.567 19.567 0 0 0-13.918 5.763c-7.671 7.67-7.671 20.158 0 27.835 3.839 3.838 8.876 5.752 13.918 5.752s10.079-1.92 13.917-5.752c7.672-7.672 7.672-20.159 0-27.835Zm-2.721 12.497a15.856 15.856 0 0 1-11.098 15.204.318.318 0 0 1-.196 0 15.855 15.855 0 0 1-11.098-15.204v-7.723c0-.128.077-.247.201-.298l10.876-4.348a.306.306 0 0 1 .119-.02c.041 0 .082.005.118.02l10.877 4.353a.314.314 0 0 1 .201.298v7.723-.005Z" fill="#9DADF2"/><path d="M142.889 49.405c-13.506 0-24.49-10.99-24.49-24.491 0-13.5 10.99-24.49 24.49-24.49 13.501 0 24.491 10.99 24.491 24.49 0 13.5-10.99 24.49-24.491 24.49Zm0-47.35c-12.605 0-22.859 10.254-22.859 22.859 0 12.605 10.254 22.86 22.859 22.86 12.606 0 22.86-10.255 22.86-22.86 0-12.606-10.254-22.86-22.86-22.86Z" fill="#478BF9"/><path d="m158.866 7.442-7.582 7.581 1.492 1.492 7.582-7.582-1.492-1.491ZM132.77 33.537l-7.582 7.582 1.492 1.492 7.581-7.582-1.491-1.492ZM153.006 33.544l-1.492 1.492 7.582 7.582 1.491-1.492-7.581-7.581ZM126.678 7.213l-1.492 1.492 7.578 7.578 1.492-1.491-7.578-7.579ZM148.863 25.572a1.254 1.254 0 0 0 0-1.78l-1.05-1.044a1.254 1.254 0 0 0-1.78 0l-.566.566-.653-.654a1.256 1.256 0 0 0-1.781 0l-.566.571-.653-.658a1.254 1.254 0 0 0-1.78 0l-3.473 3.473c-.026.026-.026.067 0 .098a1.198 1.198 0 0 0 1.687 0l2.239-2.239a.617.617 0 0 1 .874 0l.165.165a.074.074 0 0 1 0 .108l-1.868 1.868c-.026.026-.026.067 0 .098a1.2 1.2 0 0 0 1.688 0l2.145-2.146a.618.618 0 0 1 .875 0l.165.165c.025.025.025.067 0 .097l-1.801 1.801c-.026.026-.026.067 0 .098a1.198 1.198 0 0 0 1.687 0l2.074-2.073a.618.618 0 0 1 .875 0l.355.355a.365.365 0 0 1 0 .509l-.057.056a.363.363 0 0 1-.509 0l-.458-.457c-.026-.026-.067-.026-.098 0l-.792.792c-.026.026-.026.067 0 .098l.715.715a1.254 1.254 0 0 0 1.78 0l.566-.566-.005-.016Z" fill="#478BF9"/><path d="M142.89 6.134c-10.373 0-18.78 8.407-18.78 18.78 0 10.372 8.407 18.78 18.78 18.78 10.373 0 18.78-8.408 18.78-18.78 0-10.373-8.407-18.78-18.78-18.78Zm.767 5.799a12.96 12.96 0 0 1 7.872 3.262l-2.712 2.711a9.153 9.153 0 0 0-5.16-2.14v-3.833Zm-1.529 0v3.833a9.117 9.117 0 0 0-5.16 2.14l-2.712-2.711a12.96 12.96 0 0 1 7.872-3.262Zm-8.952 4.342 2.711 2.712a9.16 9.16 0 0 0-2.14 5.16h-3.833a12.96 12.96 0 0 1 3.262-7.872Zm-3.262 9.4h3.833a9.126 9.126 0 0 0 2.14 5.16l-2.711 2.712a12.96 12.96 0 0 1-3.262-7.872Zm12.214 12.215a12.96 12.96 0 0 1-7.872-3.262l2.712-2.712a9.153 9.153 0 0 0 5.16 2.14v3.834Zm-7.131-12.981a7.894 7.894 0 0 1 15.786 0 7.894 7.894 0 0 1-15.786 0Zm8.66 12.98v-3.832a9.117 9.117 0 0 0 5.16-2.14l2.712 2.71a12.96 12.96 0 0 1-7.872 3.263Zm8.952-4.342-2.711-2.711a9.16 9.16 0 0 0 2.14-5.16h3.833a12.96 12.96 0 0 1-3.262 7.871Zm-.571-9.4a9.126 9.126 0 0 0-2.14-5.16l2.711-2.712a12.96 12.96 0 0 1 3.262 7.872h-3.833Z" fill="#478BF9"/><path d="M77.858 49.173a.88.88 0 1 1 0-1.76c12.534 0 22.731-10.198 22.731-22.731 0-12.534-10.197-22.731-22.73-22.731a.88.88 0 1 1 0-1.76c13.505 0 24.495 10.99 24.495 24.496 0 13.506-10.99 24.496-24.496 24.496v-.01Z" fill="#fff"/><path d="M18.8.191h59.117a.88.88 0 1 1 0 1.76H18.8a.88.88 0 1 1 0-1.76ZM18.671 47.419h59.117a.88.88 0 1 1 0 1.76H18.672a.88.88 0 1 1 0-1.76Z" fill="#fff"/></g><g opacity=".6"><path d="M539.071 107.411a.88.88 0 0 0 0-1.76c-12.533 0-22.731-10.198-22.731-22.731 0-12.534 10.198-22.731 22.731-22.731a.88.88 0 1 0 0-1.76c-13.506 0-24.496 10.99-24.496 24.496 0 13.506 10.99 24.496 24.496 24.496v-.01ZM597.532 107.391a.88.88 0 0 1 0-1.76c12.534 0 22.731-10.197 22.731-22.73 0-12.534-10.197-22.732-22.731-22.732a.88.88 0 0 1 0-1.76c13.506 0 24.496 10.99 24.496 24.496 0 13.506-10.99 24.496-24.496 24.496v-.01Z" fill="#478BF9"/><path d="M597.903 107.42h-59.117a.88.88 0 1 1 0-1.759h59.117a.88.88 0 1 1 0 1.759ZM598.037 60.189h-59.118a.88.88 0 0 1 0-1.76h59.118a.88.88 0 0 1 0 1.76Z" fill="#478BF9"/><path d="M459.697 99.94c-9.634-9.634-9.634-25.308 0-34.942s25.308-9.634 34.942 0 9.634 25.308 0 34.942-25.308 9.634-34.942 0Zm33.778-33.778c-8.992-8.992-23.621-8.992-32.611 0-8.992 8.992-8.992 23.621 0 32.611 8.992 8.992 23.621 8.992 32.611 0 8.992-8.992 8.992-23.62 0-32.61Z" fill="#fff"/><path d="M493.741 77.228a.823.823 0 0 1-.197-.319 17.092 17.092 0 0 0-4.149-6.67 17.133 17.133 0 0 0-6.67-4.15.824.824 0 0 1-.56-.78v-6.004a.824.824 0 0 1 1.022-.799 24.651 24.651 0 0 1 11.447 6.492 24.684 24.684 0 0 1 6.49 11.447.82.82 0 0 1-.799 1.024h-6.005a.82.82 0 0 1-.583-.243l.004.002Zm-3.181-8.153a18.787 18.787 0 0 1 4.346 6.747h4.343a23.033 23.033 0 0 0-5.777-9.66 23.02 23.02 0 0 0-9.658-5.775v4.344a18.707 18.707 0 0 1 6.748 4.346l-.002-.002ZM459.696 99.94a24.685 24.685 0 0 1-6.492-11.447.82.82 0 0 1 .799-1.022h6.005c.354 0 .668.225.78.56a17.103 17.103 0 0 0 4.149 6.67 17.137 17.137 0 0 0 6.671 4.15c.335.112.56.426.56.78v6.005a.825.825 0 0 1-1.024.799 24.689 24.689 0 0 1-11.448-6.49v-.005Zm-4.613-10.824a23.036 23.036 0 0 0 5.778 9.66 23.035 23.035 0 0 0 9.66 5.777v-4.343a18.74 18.74 0 0 1-6.748-4.344 18.774 18.774 0 0 1-4.346-6.748h-4.344v-.002ZM482.41 106.214a.823.823 0 0 1-.241-.583v-6.005c0-.354.225-.668.56-.78a17.1 17.1 0 0 0 6.67-4.15 17.115 17.115 0 0 0 4.149-6.67.823.823 0 0 1 .781-.56h6.004c.253 0 .492.117.649.317a.82.82 0 0 1 .15.705 24.697 24.697 0 0 1-6.492 11.447 24.651 24.651 0 0 1-11.447 6.492.825.825 0 0 1-.705-.15c-.026-.023-.052-.044-.075-.068l-.003.005Zm1.406-6.007v4.344a23.052 23.052 0 0 0 9.66-5.778 23.064 23.064 0 0 0 5.777-9.66h-4.343a18.741 18.741 0 0 1-4.346 6.748 18.755 18.755 0 0 1-6.748 4.346ZM453.42 77.228a.824.824 0 0 1-.215-.783 24.651 24.651 0 0 1 6.492-11.447 24.682 24.682 0 0 1 11.447-6.492.83.83 0 0 1 .706.15.828.828 0 0 1 .316.649v6.005a.822.822 0 0 1-.56.78 17.094 17.094 0 0 0-6.67 4.149 17.135 17.135 0 0 0-4.15 6.67.821.821 0 0 1-.78.56h-6.005a.825.825 0 0 1-.583-.239l.002-.002Zm17.099-16.84a23.04 23.04 0 0 0-9.66 5.777 23.065 23.065 0 0 0-5.777 9.66h4.343a18.741 18.741 0 0 1 4.346-6.748 18.777 18.777 0 0 1 6.748-4.346v-4.344Z" fill="#fff"/><path d="M490.562 69.075c-7.385-7.385-19.404-7.388-26.789 0-7.387 7.387-7.385 19.403 0 26.788 7.385 7.385 19.402 7.387 26.789 0 7.387-7.387 7.385-19.404 0-26.788Z" fill="#fff"/><path d="m484.001 89.23-13.608.09a1.039 1.039 0 0 0-1.031 1.045l.004.485a1.037 1.037 0 0 0 1.044 1.031l13.608-.09a1.039 1.039 0 0 0 1.031-1.045l-.004-.485a1.037 1.037 0 0 0-1.044-1.031ZM472.247 81.016c-.147 0-.297-.032-.433-.098l-1.061-.513a.98.98 0 0 1-.481-1.246l.488-1.214a.976.976 0 0 1 1.391-.485l1.265.722a.977.977 0 0 1 .321 1.405l-.693 1.005a.972.972 0 0 1-.799.422l.002.002ZM482.042 80.951a.98.98 0 0 1-.803-.412l-.687-.968a.982.982 0 0 1 .302-1.41l1.305-.767a.98.98 0 0 1 1.399.466l.492 1.18a.984.984 0 0 1-.464 1.253l-1.11.555a.992.992 0 0 1-.431.103h-.003Z" fill="#110A1D"/><path d="M471.178 88.41a1.413 1.413 0 0 1-1.337-.932l-2.271-6.248a2.395 2.395 0 1 1 .987-.877l4.318 2.09 3.303-4.786a2.404 2.404 0 0 1-1.014-.818 2.38 2.38 0 0 1-.443-1.37 2.4 2.4 0 0 1 2.38-2.414 2.401 2.401 0 0 1 2.404 2.216 2.391 2.391 0 0 1-1.434 2.376l3.362 4.738 4.248-2.125a2.339 2.339 0 0 1-.276-1.104 2.394 2.394 0 1 1 4.788-.03c.01 1.26-.97 2.32-2.228 2.406l-.15.004a2.336 2.336 0 0 1-1.145-.283l-2.132 6.127a1.415 1.415 0 0 1-1.326.949l-12.034.08v.001Z" fill="#110A1D"/><path d="M414.262 107.169c-6.277 0-12.549-2.387-17.329-7.167-9.555-9.554-9.555-25.097 0-34.652 4.631-4.63 10.784-7.177 17.329-7.177 6.544 0 12.698 2.546 17.328 7.177 9.555 9.555 9.555 25.098 0 34.652-4.774 4.775-11.051 7.167-17.328 7.167Zm-16.043-8.453c8.845 8.844 23.235 8.844 32.08 0 8.844-8.844 8.844-23.235 0-32.08-4.286-4.286-9.982-6.642-16.043-6.642-6.06 0-11.756 2.362-16.042 6.642-8.844 8.845-8.844 23.236 0 32.08h.005Z" fill="#7DDACF"/><path d="m415.169 77.518-4.538 6.36h2.721v4.538l4.538-6.355h-2.721v-4.543Z" fill="#7DDACF"/><path d="M414.257 73.983c-4.97 0-9.004 4.034-9.004 9.004s4.034 8.994 9.004 8.994 9.004-4.034 9.004-8.994-4.034-9.004-9.004-9.004Zm0 16.887a7.905 7.905 0 0 1-7.903-7.903 7.905 7.905 0 0 1 7.903-7.903 7.905 7.905 0 0 1 7.903 7.903 7.905 7.905 0 0 1-7.903 7.903Z" fill="#7DDACF"/><path d="M428.175 68.761C424.46 65.041 419.516 63 414.258 63a19.565 19.565 0 0 0-13.918 5.762c-7.671 7.672-7.671 20.159 0 27.835 3.838 3.839 8.875 5.758 13.918 5.758a19.614 19.614 0 0 0 13.917-5.758c7.672-7.671 7.672-20.158 0-27.835Zm-13.917 26.441c-6.73 0-12.21-5.48-12.21-12.21 0-2.973 1.065-5.7 2.835-7.83l-1.492-1.492a1.098 1.098 0 1 1 1.554-1.554l1.492 1.492a12.088 12.088 0 0 1 6.725-2.784v-1.008h-1.009c-.89 0-1.626-.736-1.626-1.626v-.849c0-.9.736-1.626 1.626-1.626h4.219c.89 0 1.626.726 1.626 1.626v.85c0 .89-.736 1.625-1.626 1.625h-1.008v1.008a12.15 12.15 0 0 1 6.725 2.784l1.492-1.492a1.101 1.101 0 0 1 1.553 0 1.102 1.102 0 0 1 0 1.554l-1.492 1.492a12.2 12.2 0 0 1 2.835 7.83c0 6.73-5.479 12.21-12.209 12.21h-.01Z" fill="#7DDACF"/><path d="M355.801 107.66c-13.506 0-24.491-10.99-24.491-24.49 0-13.502 10.99-24.492 24.491-24.492 13.5 0 24.49 10.99 24.49 24.491 0 13.5-10.99 24.491-24.49 24.491Zm0-47.35c-12.606 0-22.86 10.254-22.86 22.86 0 12.605 10.254 22.859 22.86 22.859 12.605 0 22.859-10.254 22.859-22.86 0-12.605-10.254-22.86-22.859-22.86Z" fill="#fff"/><path d="m371.781 65.693-7.582 7.582 1.492 1.491 7.581-7.581-1.491-1.492ZM345.683 91.792l-7.582 7.582 1.491 1.492 7.582-7.582-1.491-1.492ZM365.92 91.79l-1.491 1.492 7.582 7.582 1.491-1.491-7.582-7.582ZM339.598 65.463l-1.491 1.492 7.578 7.578 1.492-1.491-7.579-7.579ZM361.78 83.828a1.254 1.254 0 0 0 0-1.78l-1.05-1.045a1.254 1.254 0 0 0-1.78 0l-.566.566-.653-.654a1.256 1.256 0 0 0-1.781 0l-.566.572-.653-.659a1.254 1.254 0 0 0-1.78 0l-3.473 3.473c-.026.026-.026.067 0 .098a1.198 1.198 0 0 0 1.687 0l2.239-2.239a.617.617 0 0 1 .874 0l.165.165a.074.074 0 0 1 0 .108l-1.868 1.868c-.026.026-.026.067 0 .098a1.2 1.2 0 0 0 1.688 0l2.145-2.146a.618.618 0 0 1 .875 0l.165.165c.025.025.025.067 0 .098l-1.801 1.8c-.026.026-.026.067 0 .098a1.198 1.198 0 0 0 1.687 0l2.074-2.073a.618.618 0 0 1 .875 0l.355.355a.365.365 0 0 1 0 .509l-.057.057a.363.363 0 0 1-.509 0l-.458-.458c-.026-.026-.067-.026-.098 0l-.792.792c-.026.026-.026.067 0 .098l.715.715a1.254 1.254 0 0 0 1.78 0l.566-.566-.005-.015Z" fill="#fff"/><path d="M355.801 64.384c-10.372 0-18.78 8.407-18.78 18.78 0 10.372 8.408 18.78 18.78 18.78 10.373 0 18.78-8.408 18.78-18.78 0-10.373-8.407-18.78-18.78-18.78Zm.767 5.799a12.959 12.959 0 0 1 7.872 3.262l-2.712 2.711a9.153 9.153 0 0 0-5.16-2.14v-3.833Zm-1.528 0v3.833a9.118 9.118 0 0 0-5.161 2.14l-2.711-2.711a12.956 12.956 0 0 1 7.872-3.262Zm-8.953 4.342 2.712 2.712a9.155 9.155 0 0 0-2.141 5.16h-3.833a12.96 12.96 0 0 1 3.262-7.872Zm-3.262 9.4h3.833a9.12 9.12 0 0 0 2.141 5.16l-2.712 2.712a12.96 12.96 0 0 1-3.262-7.872ZM355.04 96.14a12.956 12.956 0 0 1-7.872-3.262l2.711-2.712a9.152 9.152 0 0 0 5.161 2.14v3.834Zm-7.131-12.981a7.893 7.893 0 0 1 15.785 0 7.893 7.893 0 0 1-15.785 0Zm8.659 12.98v-3.832a9.117 9.117 0 0 0 5.16-2.14l2.712 2.71a12.959 12.959 0 0 1-7.872 3.263Zm8.952-4.342-2.711-2.711a9.154 9.154 0 0 0 2.14-5.16h3.833a12.96 12.96 0 0 1-3.262 7.871Zm-.571-9.4a9.113 9.113 0 0 0-2.14-5.16l2.711-2.712a12.96 12.96 0 0 1 3.262 7.872h-3.833Z" fill="#fff"/><path d="M231.118 107.411a.88.88 0 1 0 0-1.76c-12.533 0-22.731-10.197-22.731-22.73 0-12.534 10.198-22.732 22.731-22.732a.88.88 0 1 0 0-1.76c-13.506 0-24.496 10.99-24.496 24.496 0 13.506 10.99 24.496 24.496 24.496v-.01ZM289.469 107.391a.88.88 0 1 1 0-1.76c12.533 0 22.731-10.197 22.731-22.73 0-12.534-10.198-22.732-22.731-22.732a.88.88 0 1 1 0-1.76c13.506 0 24.496 10.99 24.496 24.496 0 13.506-10.99 24.496-24.496 24.496v-.01Z" fill="#478BF9"/><path d="M289.839 107.42h-59.117a.88.88 0 1 1 0-1.759h59.117a.88.88 0 1 1 0 1.759ZM289.973 60.189h-59.117a.88.88 0 1 1 0-1.76h59.117a.88.88 0 1 1 0 1.76Z" fill="#478BF9"/><path d="M151.633 100.824c-9.634-9.634-9.634-25.308 0-34.942s25.308-9.634 34.942 0 9.634 25.308 0 34.942-25.308 9.634-34.942 0Zm33.777-33.777c-8.992-8.992-23.621-8.992-32.611 0-8.992 8.992-8.992 23.621 0 32.61 8.993 8.993 23.622 8.993 32.611 0 8.992-8.991 8.992-23.62 0-32.61Z" fill="#fff"/><path d="M185.677 78.112a.81.81 0 0 1-.197-.318 17.091 17.091 0 0 0-4.149-6.67 17.14 17.14 0 0 0-6.67-4.15.824.824 0 0 1-.56-.78v-6.005a.822.822 0 0 1 1.021-.799 24.647 24.647 0 0 1 11.447 6.492 24.677 24.677 0 0 1 6.49 11.448.82.82 0 0 1-.799 1.024h-6.004a.823.823 0 0 1-.584-.244l.005.002Zm-3.182-8.153a18.773 18.773 0 0 1 4.346 6.748h4.344a23.035 23.035 0 0 0-5.778-9.66 23.012 23.012 0 0 0-9.657-5.775v4.343a18.723 18.723 0 0 1 6.748 4.346l-.003-.002ZM151.632 100.824a24.667 24.667 0 0 1-6.492-11.447.825.825 0 0 1 .799-1.022h6.005c.354 0 .668.225.78.56a17.103 17.103 0 0 0 4.149 6.67 17.137 17.137 0 0 0 6.671 4.15.821.821 0 0 1 .559.78v6.005a.824.824 0 0 1-1.023.799 24.685 24.685 0 0 1-11.448-6.49v-.005ZM147.019 90a23.036 23.036 0 0 0 5.778 9.66 23.037 23.037 0 0 0 9.659 5.777v-4.343a18.738 18.738 0 0 1-6.747-4.344 18.773 18.773 0 0 1-4.346-6.748h-4.344V90ZM174.346 107.099a.822.822 0 0 1-.242-.584v-6.005c0-.353.225-.667.56-.78a17.098 17.098 0 0 0 6.671-4.149 17.138 17.138 0 0 0 4.149-6.67.821.821 0 0 1 .78-.56h6.005a.82.82 0 0 1 .799 1.021 24.708 24.708 0 0 1-6.492 11.448 24.662 24.662 0 0 1-11.448 6.492.825.825 0 0 1-.705-.15l-.075-.068-.002.005Zm1.406-6.008v4.344a23.037 23.037 0 0 0 9.659-5.777 23.055 23.055 0 0 0 5.778-9.66h-4.344a18.727 18.727 0 0 1-4.346 6.747 18.73 18.73 0 0 1-6.747 4.346ZM145.356 78.112a.827.827 0 0 1-.216-.782 24.653 24.653 0 0 1 6.493-11.448 24.682 24.682 0 0 1 11.447-6.492.826.826 0 0 1 .705.15.827.827 0 0 1 .316.65v6.004a.821.821 0 0 1-.559.78 17.096 17.096 0 0 0-6.671 4.15 17.144 17.144 0 0 0-4.149 6.67.821.821 0 0 1-.78.56h-6.005a.825.825 0 0 1-.583-.24l.002-.002Zm17.098-16.84a23.035 23.035 0 0 0-9.659 5.777 23.056 23.056 0 0 0-5.778 9.66h4.344a18.728 18.728 0 0 1 4.346-6.748 18.773 18.773 0 0 1 6.747-4.346v-4.343Z" fill="#fff"/><path d="M182.497 69.96c-7.385-7.386-19.404-7.388-26.789 0-7.387 7.386-7.384 19.403 0 26.788 7.385 7.385 19.402 7.387 26.789 0 7.387-7.387 7.385-19.404 0-26.789Z" fill="#fff"/><path d="m175.936 90.114-13.607.09a1.038 1.038 0 0 0-1.031 1.045l.003.485a1.038 1.038 0 0 0 1.045 1.031l13.607-.09a1.038 1.038 0 0 0 1.031-1.045l-.003-.485a1.038 1.038 0 0 0-1.045-1.03ZM164.183 81.9a.996.996 0 0 1-.433-.098l-1.062-.513a.981.981 0 0 1-.48-1.246l.487-1.214a.978.978 0 0 1 1.392-.485l1.265.722a.977.977 0 0 1 .321 1.406l-.693 1.005a.975.975 0 0 1-.799.421l.002.003ZM173.978 81.835a.982.982 0 0 1-.804-.412l-.687-.968a.982.982 0 0 1 .303-1.41l1.305-.766a.98.98 0 0 1 1.398.466l.492 1.178a.984.984 0 0 1-.464 1.254l-1.11.555a.992.992 0 0 1-.431.103h-.002Z" fill="#110A1D"/><path d="M163.114 89.295a1.414 1.414 0 0 1-1.338-.932l-2.27-6.249c-.146.07-.3.124-.457.164a2.447 2.447 0 0 1-.886.052 2.397 2.397 0 0 1 .293-4.773 2.397 2.397 0 0 1 2.252 3.252c-.059.15-.132.293-.216.429l4.318 2.09 3.304-4.787a2.423 2.423 0 0 1-1.015-.818 2.387 2.387 0 0 1-.443-1.37 2.4 2.4 0 0 1 2.559-2.409 2.4 2.4 0 0 1 1.799 3.765 2.432 2.432 0 0 1-.611.605 2.21 2.21 0 0 1-.396.218l3.362 4.737 4.247-2.125a2.462 2.462 0 0 1-.189-.478 2.3 2.3 0 0 1-.087-.625 2.395 2.395 0 1 1 4.789-.03 2.4 2.4 0 0 1-2.228 2.405l-.15.005a2.329 2.329 0 0 1-1.146-.284l-2.132 6.127a1.414 1.414 0 0 1-1.326.949l-12.033.08v.002Z" fill="#110A1D"/><path d="M106.197 107.633c-6.277 0-12.549-2.387-17.329-7.167-9.554-9.554-9.554-25.098 0-34.652 4.63-4.63 10.784-7.178 17.329-7.178s12.698 2.547 17.329 7.178c9.554 9.554 9.554 25.098 0 34.652-4.775 4.775-11.052 7.167-17.329 7.167ZM90.154 99.18c8.845 8.844 23.236 8.844 32.08 0 8.845-8.845 8.845-23.236 0-32.08-4.286-4.286-9.981-6.642-16.042-6.642-6.061 0-11.757 2.361-16.043 6.642-8.844 8.844-8.844 23.235 0 32.08h.005Z" fill="#7DDACF"/><path d="m107.104 77.982-4.538 6.359h2.722v4.538l4.538-6.354h-2.722v-4.543Z" fill="#7DDACF"/><path d="M106.192 74.447c-4.97 0-9.004 4.034-9.004 9.004s4.034 8.993 9.004 8.993 9.004-4.033 9.004-8.993-4.034-9.004-9.004-9.004Zm0 16.886a7.905 7.905 0 0 1-7.903-7.903 7.905 7.905 0 0 1 7.903-7.903 7.905 7.905 0 0 1 7.903 7.903 7.905 7.905 0 0 1-7.903 7.903Z" fill="#7DDACF"/><path d="M120.111 69.225c-3.715-3.72-8.66-5.763-13.918-5.763a19.565 19.565 0 0 0-13.918 5.763c-7.67 7.671-7.67 20.158 0 27.835a19.617 19.617 0 0 0 13.918 5.757 19.62 19.62 0 0 0 13.918-5.757c7.671-7.672 7.671-20.159 0-27.835Zm-13.918 26.44c-6.73 0-12.21-5.48-12.21-12.209 0-2.974 1.066-5.7 2.836-7.83l-1.493-1.493a1.098 1.098 0 1 1 1.554-1.554l1.492 1.492a12.089 12.089 0 0 1 6.725-2.783v-1.009h-1.008c-.89 0-1.626-.735-1.626-1.625v-.85c0-.9.736-1.625 1.626-1.625h4.219c.89 0 1.625.725 1.625 1.626v.849c0 .89-.735 1.625-1.625 1.625h-1.009v1.009a12.146 12.146 0 0 1 6.725 2.783l1.492-1.492a1.103 1.103 0 0 1 1.554 0 1.102 1.102 0 0 1 0 1.554l-1.492 1.492a12.2 12.2 0 0 1 2.835 7.831c0 6.73-5.48 12.21-12.21 12.21h-.01Z" fill="#7DDACF"/><path d="M47.736 107.165c-13.506 0-24.49-10.99-24.49-24.49 0-13.501 10.99-24.49 24.49-24.49 13.5 0 24.49 10.989 24.49 24.49 0 13.5-10.99 24.49-24.49 24.49Zm0-47.35c-12.606 0-22.86 10.254-22.86 22.86 0 12.605 10.254 22.859 22.86 22.859 12.605 0 22.86-10.254 22.86-22.86 0-12.605-10.255-22.859-22.86-22.859Z" fill="#fff"/><path d="m63.716 65.199-7.582 7.582 1.492 1.491 7.582-7.582-1.492-1.491ZM37.618 91.298l-7.582 7.582 1.492 1.491 7.582-7.582-1.492-1.491ZM57.856 91.297l-1.492 1.491 7.582 7.582 1.492-1.491-7.582-7.582ZM31.533 64.969l-1.491 1.491 7.578 7.579 1.492-1.492-7.579-7.578ZM53.715 83.333a1.255 1.255 0 0 0 0-1.78l-1.05-1.044a1.254 1.254 0 0 0-1.78 0l-.566.566-.653-.654a1.255 1.255 0 0 0-1.78 0l-.567.571-.653-.658a1.255 1.255 0 0 0-1.78 0l-3.473 3.473c-.026.025-.026.067 0 .097.463.464 1.22.464 1.688 0l2.238-2.238a.618.618 0 0 1 .874 0l.165.165c.03.03.03.077 0 .108l-1.868 1.868c-.026.025-.026.067 0 .097.463.464 1.22.464 1.688 0l2.145-2.145a.618.618 0 0 1 .875 0l.165.165c.025.025.025.066 0 .097l-1.801 1.801c-.026.026-.026.067 0 .098.463.463 1.22.463 1.687 0l2.074-2.073a.618.618 0 0 1 .875 0l.355.355a.363.363 0 0 1 0 .509l-.057.056a.363.363 0 0 1-.51 0l-.457-.457c-.026-.026-.067-.026-.098 0l-.792.792c-.026.026-.026.067 0 .098l.715.715a1.255 1.255 0 0 0 1.78 0l.566-.566-.005-.016Z" fill="#fff"/><path d="M47.736 63.89c-10.372 0-18.78 8.407-18.78 18.78 0 10.372 8.408 18.779 18.78 18.779 10.373 0 18.78-8.407 18.78-18.78 0-10.372-8.407-18.78-18.78-18.78Zm.767 5.798a12.958 12.958 0 0 1 7.872 3.262l-2.712 2.712a9.154 9.154 0 0 0-5.16-2.14v-3.834Zm-1.528 0v3.834a9.118 9.118 0 0 0-5.16 2.14l-2.712-2.712a12.958 12.958 0 0 1 7.872-3.262Zm-8.953 4.343 2.712 2.711a9.153 9.153 0 0 0-2.14 5.16H34.76a12.958 12.958 0 0 1 3.263-7.871Zm-3.262 9.4h3.834a9.118 9.118 0 0 0 2.14 5.16l-2.712 2.712a12.958 12.958 0 0 1-3.262-7.872Zm12.215 12.215a12.959 12.959 0 0 1-7.872-3.263l2.711-2.711a9.154 9.154 0 0 0 5.16 2.14v3.834Zm-7.131-12.982a7.894 7.894 0 0 1 7.892-7.892 7.894 7.894 0 0 1 7.893 7.892 7.894 7.894 0 0 1-7.893 7.893 7.894 7.894 0 0 1-7.892-7.893Zm8.659 12.981v-3.833a9.118 9.118 0 0 0 5.16-2.14l2.712 2.712a12.958 12.958 0 0 1-7.872 3.261Zm8.953-4.342-2.712-2.712a9.154 9.154 0 0 0 2.14-5.16h3.834a12.958 12.958 0 0 1-3.263 7.872Zm-.572-9.4a9.118 9.118 0 0 0-2.14-5.16l2.712-2.712a12.958 12.958 0 0 1 3.261 7.872h-3.833Z" fill="#fff"/></g><g opacity=".2"><path d="M635.017 164.915c-6.277 0-12.549-2.387-17.328-7.167-9.555-9.554-9.555-25.098 0-34.652 4.63-4.631 10.784-7.178 17.328-7.178 6.545 0 12.698 2.547 17.329 7.178 9.554 9.554 9.554 25.098 0 34.652-4.775 4.775-11.052 7.167-17.329 7.167Zm-16.042-8.453c8.844 8.844 23.235 8.844 32.08 0 8.844-8.845 8.844-23.235 0-32.08-4.286-4.286-9.982-6.642-16.043-6.642s-11.756 2.361-16.042 6.642c-8.845 8.845-8.845 23.235 0 32.08h.005Z" fill="#9DADF2"/><path d="M634.693 149.588a.548.548 0 0 0 .51.334.635.635 0 0 0 .216-.041 12.697 12.697 0 0 0 4.548-3.246.552.552 0 0 0-.046-.777.552.552 0 0 0-.777.046 11.512 11.512 0 0 1-4.152 2.964.552.552 0 0 0-.294.72h-.005Z" fill="#9DADF2"/><path d="m644.355 131.95-9.138-3.653a.574.574 0 0 0-.412 0l-9.137 3.653a.543.543 0 0 0-.345.51v6.544c.01 6.041 3.828 11.5 9.498 13.578a.578.578 0 0 0 .381 0c5.67-2.084 9.487-7.537 9.497-13.578v-6.544a.542.542 0 0 0-.344-.51Zm-.757 7.054c-.01 5.495-3.457 10.501-8.582 12.472-5.124-1.971-8.577-6.977-8.587-12.472v-6.169l8.587-3.431 8.582 3.431v6.169Z" fill="#9DADF2"/><path d="M631.199 132.81a.542.542 0 0 0-.422 0l-2.176.869a.541.541 0 0 0-.345.509v2.321a.551.551 0 0 0 1.101 0v-1.945l1.827-.731a.553.553 0 0 0 .303-.298.542.542 0 0 0 0-.422.558.558 0 0 0-.293-.303h.005Z" fill="#9DADF2"/><path d="M648.935 126.507c-3.715-3.72-8.66-5.763-13.918-5.763a19.564 19.564 0 0 0-13.917 5.763c-7.672 7.671-7.672 20.158 0 27.835 3.838 3.838 8.875 5.752 13.917 5.752a19.636 19.636 0 0 0 13.918-5.752c7.671-7.671 7.671-20.159 0-27.835Zm-2.722 12.497a15.854 15.854 0 0 1-11.098 15.204.313.313 0 0 1-.196 0 15.855 15.855 0 0 1-11.098-15.204v-7.722c0-.129.078-.247.201-.299l10.877-4.347a.291.291 0 0 1 .118-.021c.041 0 .083.005.119.021l10.876 4.352a.314.314 0 0 1 .201.299v7.722-.005Z" fill="#9DADF2"/><path d="M572.44 164.907c-13.506 0-24.491-10.99-24.491-24.49 0-13.501 10.99-24.491 24.491-24.491s24.491 10.99 24.491 24.491c0 13.5-10.99 24.49-24.491 24.49Zm0-47.35c-12.605 0-22.86 10.254-22.86 22.86 0 12.605 10.255 22.859 22.86 22.859 12.606 0 22.86-10.254 22.86-22.859 0-12.606-10.254-22.86-22.86-22.86Z" fill="#7DDACF"/><path d="m588.422 122.941-7.582 7.582 1.492 1.492 7.582-7.582-1.492-1.492ZM562.322 149.04l-7.582 7.582 1.492 1.492 7.582-7.582-1.492-1.492ZM582.554 149.044l-1.492 1.491 7.582 7.582 1.492-1.491-7.582-7.582ZM556.23 122.716l-1.491 1.492 7.578 7.578 1.491-1.491-7.578-7.579ZM578.414 141.075a1.256 1.256 0 0 0 0-1.78l-1.05-1.045a1.256 1.256 0 0 0-1.78 0l-.566.566-.654-.653a1.254 1.254 0 0 0-1.78 0l-.566.571-.653-.658a1.254 1.254 0 0 0-1.78 0l-3.473 3.472c-.026.026-.026.067 0 .098a1.198 1.198 0 0 0 1.687 0l2.238-2.238a.618.618 0 0 1 .875 0l.165.165c.03.031.03.077 0 .108l-1.868 1.867c-.026.026-.026.067 0 .098a1.2 1.2 0 0 0 1.688 0l2.145-2.145a.618.618 0 0 1 .875 0l.164.164c.026.026.026.067 0 .098l-1.8 1.801c-.026.026-.026.067 0 .098a1.198 1.198 0 0 0 1.687 0l2.074-2.074a.617.617 0 0 1 .874 0l.355.355a.364.364 0 0 1 0 .51l-.056.056a.364.364 0 0 1-.51 0l-.458-.458c-.025-.025-.066-.025-.097 0l-.793.793c-.025.025-.025.066 0 .097l.715.716a1.257 1.257 0 0 0 1.781 0l.566-.566-.005-.016Z" fill="#7DDACF"/><path d="M572.441 121.637c-10.373 0-18.78 8.407-18.78 18.78 0 10.372 8.407 18.779 18.78 18.779 10.372 0 18.779-8.407 18.779-18.779 0-10.373-8.407-18.78-18.779-18.78Zm.766 5.799a12.946 12.946 0 0 1 7.872 3.262l-2.711 2.711a9.147 9.147 0 0 0-5.161-2.14v-3.833Zm-1.528 0v3.833a9.112 9.112 0 0 0-5.16 2.14l-2.712-2.711a12.948 12.948 0 0 1 7.872-3.262Zm-8.952 4.342 2.711 2.711a9.156 9.156 0 0 0-2.14 5.161h-3.833a12.96 12.96 0 0 1 3.262-7.872Zm-3.262 9.4h3.833a9.115 9.115 0 0 0 2.14 5.161l-2.711 2.711a12.96 12.96 0 0 1-3.262-7.872Zm12.214 12.215a12.96 12.96 0 0 1-7.872-3.262l2.712-2.712a9.147 9.147 0 0 0 5.16 2.14v3.834Zm-7.131-12.982a7.893 7.893 0 1 1 7.893 7.893 7.895 7.895 0 0 1-7.893-7.893Zm8.659 12.982v-3.834a9.112 9.112 0 0 0 5.161-2.14l2.711 2.712a12.957 12.957 0 0 1-7.872 3.262Zm8.953-4.343-2.712-2.711a9.158 9.158 0 0 0 2.141-5.161h3.833a12.96 12.96 0 0 1-3.262 7.872Zm-.571-9.4a9.123 9.123 0 0 0-2.141-5.161l2.712-2.711a12.96 12.96 0 0 1 3.262 7.872h-3.833Z" fill="#7DDACF"/><path d="M511.411 164.833c-13.506 0-24.491-10.99-24.491-24.491s10.99-24.49 24.491-24.49 24.491 10.989 24.491 24.49c0 13.501-10.99 24.491-24.491 24.491Zm0-47.35c-12.606 0-22.86 10.254-22.86 22.859 0 12.606 10.254 22.86 22.86 22.86 12.605 0 22.86-10.254 22.86-22.86 0-12.605-10.255-22.859-22.86-22.859Z" fill="#9DADF2"/><path d="M519.356 125.051a.81.81 0 0 1-.36-.082 16.965 16.965 0 0 0-7.584-1.77c-2.66 0-5.212.597-7.583 1.77a.816.816 0 0 1-.937-.155l-4.209-4.208a.812.812 0 0 1-.231-.68.811.811 0 0 1 .391-.601 24.438 24.438 0 0 1 12.575-3.473c4.435 0 8.782 1.204 12.574 3.473.216.128.36.349.391.601a.828.828 0 0 1-.231.68l-4.209 4.208a.826.826 0 0 1-.581.237h-.006Zm-7.944-3.483c2.712 0 5.326.566 7.775 1.682l3.046-3.046a22.821 22.821 0 0 0-10.821-2.721 22.82 22.82 0 0 0-10.82 2.721l3.046 3.046a18.614 18.614 0 0 1 7.774-1.682ZM511.411 164.833a24.494 24.494 0 0 1-12.574-3.473.815.815 0 0 1-.391-.602.827.827 0 0 1 .231-.679l4.209-4.209a.814.814 0 0 1 .936-.154 16.965 16.965 0 0 0 7.584 1.77c2.66 0 5.212-.597 7.584-1.77a.814.814 0 0 1 .937.154l4.208 4.209c.18.18.263.427.232.679a.815.815 0 0 1-.391.602 24.45 24.45 0 0 1-12.575 3.473h.01Zm-10.82-4.353a22.821 22.821 0 0 0 10.82 2.722c3.787 0 7.507-.937 10.821-2.722l-3.046-3.046a18.6 18.6 0 0 1-7.775 1.683 18.6 18.6 0 0 1-7.774-1.683l-3.046 3.046ZM531.73 153.313a.81.81 0 0 1-.577-.237l-4.208-4.208a.817.817 0 0 1-.155-.937 16.949 16.949 0 0 0 1.77-7.584c0-2.66-.596-5.212-1.77-7.583a.814.814 0 0 1 .155-.937l4.208-4.208a.812.812 0 0 1 .68-.232.815.815 0 0 1 .602.391 24.45 24.45 0 0 1 3.473 12.575c0 4.435-1.199 8.782-3.473 12.574a.815.815 0 0 1-.602.391h-.103v-.005Zm-3.226-5.196 3.046 3.045a22.814 22.814 0 0 0 2.721-10.82 22.82 22.82 0 0 0-2.721-10.82l-3.046 3.046a18.614 18.614 0 0 1 1.682 7.774c0 2.712-.566 5.326-1.682 7.775ZM491.093 153.313c-.036 0-.067 0-.098-.005a.813.813 0 0 1-.602-.391 24.45 24.45 0 0 1-3.473-12.575c0-4.435 1.199-8.782 3.473-12.574a.813.813 0 0 1 .602-.391.827.827 0 0 1 .679.231l4.209 4.209a.816.816 0 0 1 .154.936 16.965 16.965 0 0 0-1.77 7.584c0 2.66.597 5.212 1.77 7.584a.814.814 0 0 1-.154.937l-4.209 4.208a.81.81 0 0 1-.576.242l-.005.005Zm.18-23.791a22.81 22.81 0 0 0-2.722 10.82c0 3.787.936 7.507 2.722 10.821l3.046-3.046a18.6 18.6 0 0 1-1.683-7.775 18.6 18.6 0 0 1 1.683-7.774l-3.046-3.046Z" fill="#9DADF2"/><path d="M511.411 121.563c-10.352 0-18.779 8.422-18.779 18.779s8.422 18.78 18.779 18.78 18.78-8.423 18.78-18.78c0-10.357-8.423-18.779-18.78-18.779Zm10.568 12.61a12.102 12.102 0 0 1 1.606 4.95.182.182 0 0 1-.088.175 15.721 15.721 0 0 0-3.586 3.01.169.169 0 0 1-.19.051l-2.321-.756a.177.177 0 0 1-.123-.149 16.183 16.183 0 0 0-1.775-5.464.183.183 0 0 1 .015-.191l1.435-1.975a.197.197 0 0 1 .15-.078h.041c1.533.34 3.108.453 4.672.324a.186.186 0 0 1 .175.093l-.011.01Zm-5.968 7.605a.188.188 0 0 1-.041.139 12.288 12.288 0 0 1-4.487 3.251.161.161 0 0 1-.139 0 12.4 12.4 0 0 1-4.486-3.251.184.184 0 0 1-.041-.139 14.888 14.888 0 0 1 1.718-5.289.173.173 0 0 1 .118-.088 13.45 13.45 0 0 1 5.526 0 .173.173 0 0 1 .119.088 15.008 15.008 0 0 1 1.718 5.289h-.005Zm-.278-12.77s.062-.052.124-.052c.02 0 .046 0 .072.016a12.336 12.336 0 0 1 4.903 3.565c.067.077.041.16.026.191a.18.18 0 0 1-.165.108 14.223 14.223 0 0 1-3.458-.386.181.181 0 0 1-.113-.083 14.588 14.588 0 0 1-1.435-3.174.17.17 0 0 1 .051-.185h-.005Zm-6.92-.618a12.493 12.493 0 0 1 5.202 0 .186.186 0 0 1 .139.134 15.79 15.79 0 0 0 1.754 4.343.188.188 0 0 1-.01.2l-1.425 1.966a.182.182 0 0 1-.181.072 14.641 14.641 0 0 0-5.757 0 .18.18 0 0 1-.18-.072l-1.425-1.966a.188.188 0 0 1-.01-.2 15.79 15.79 0 0 0 1.754-4.343.184.184 0 0 1 .139-.134Zm-6.817 4.147a12.241 12.241 0 0 1 4.903-3.565.189.189 0 0 1 .072-.016c.067 0 .108.036.123.052a.173.173 0 0 1 .052.185 14.485 14.485 0 0 1-1.436 3.174.176.176 0 0 1-.113.083 14.215 14.215 0 0 1-3.457.386.178.178 0 0 1-.165-.108.172.172 0 0 1 .026-.191h-.005Zm-1.148 1.636a.183.183 0 0 1 .16-.092h.015a15.85 15.85 0 0 0 4.672-.324.172.172 0 0 1 .185.072l1.436 1.975a.184.184 0 0 1 .015.191 16.139 16.139 0 0 0-1.775 5.464.193.193 0 0 1-.123.149l-2.321.756a.186.186 0 0 1-.19-.051 15.743 15.743 0 0 0-3.586-3.01.192.192 0 0 1-.088-.175 12.067 12.067 0 0 1 1.605-4.949l-.005-.006Zm.561 12.678a.179.179 0 0 1-.154.123c-.036 0-.119 0-.175-.082a12.213 12.213 0 0 1-1.873-5.768.175.175 0 0 1 .093-.169c.031-.016.113-.052.195.01a14.303 14.303 0 0 1 2.573 2.346.175.175 0 0 1 .041.134 14.112 14.112 0 0 1-.705 3.411l.005-.005Zm5.083 4.697a12.138 12.138 0 0 1-4.203-3.066.186.186 0 0 1-.036-.19 15.736 15.736 0 0 0 1.132-4.544.176.176 0 0 1 .123-.154l2.295-.746s.036-.01.057-.01c.051 0 .097.02.133.061a13.693 13.693 0 0 0 4.662 3.391.18.18 0 0 1 .108.165v2.413a.172.172 0 0 1-.108.164 15.745 15.745 0 0 0-3.977 2.486.174.174 0 0 1-.191.025l.005.005Zm8.094.51a.172.172 0 0 1-.134.144 12.377 12.377 0 0 1-6.071 0 .18.18 0 0 1-.134-.144.182.182 0 0 1 .072-.185 14.346 14.346 0 0 1 3.03-1.724.161.161 0 0 1 .139 0 14.606 14.606 0 0 1 3.031 1.724.19.19 0 0 1 .072.185h-.005Zm5.963-3.571a12.106 12.106 0 0 1-4.204 3.061.18.18 0 0 1-.19-.025 15.626 15.626 0 0 0-3.977-2.485.18.18 0 0 1-.108-.165v-2.413c0-.072.041-.139.108-.165a13.643 13.643 0 0 0 4.661-3.39.172.172 0 0 1 .134-.062c.021 0 .036 0 .057.01l2.294.746a.179.179 0 0 1 .124.155c.149 1.564.53 3.087 1.132 4.543a.175.175 0 0 1-.036.19h.005Zm1.204-1.59a.177.177 0 0 1-.175.083c-.036 0-.118-.026-.154-.124a14.554 14.554 0 0 1-.705-3.411c0-.046.01-.098.041-.134a14.484 14.484 0 0 1 2.572-2.346.176.176 0 0 1 .103-.036c.041 0 .072.015.093.026a.168.168 0 0 1 .093.169 12.213 12.213 0 0 1-1.873 5.768l.005.005Z" fill="#9DADF2"/><path d="M449.531 115.988a.88.88 0 0 0 0 1.76c12.533 0 22.731 10.198 22.731 22.731 0 12.534-10.198 22.731-22.731 22.731a.88.88 0 1 0 0 1.76c13.505 0 24.495-10.99 24.495-24.496 0-13.506-10.99-24.496-24.495-24.496v.01ZM391.07 116.007a.88.88 0 1 1 0 1.76c-12.533 0-22.731 10.197-22.731 22.731 0 12.533 10.198 22.731 22.731 22.731a.88.88 0 1 1 0 1.759c-13.506 0-24.496-10.99-24.496-24.496 0-13.505 10.99-24.495 24.496-24.495v.01Z" fill="#478BF9"/><path d="M390.694 115.978h59.118a.88.88 0 1 1 0 1.759h-59.118a.88.88 0 0 1 0-1.759ZM390.566 163.202h59.117a.88.88 0 1 1 0 1.759h-59.117a.88.88 0 1 1 0-1.759Z" fill="#478BF9"/><path d="M326.953 164.915c-6.277 0-12.549-2.387-17.329-7.167-9.554-9.554-9.554-25.098 0-34.652 4.631-4.631 10.784-7.178 17.329-7.178a24.345 24.345 0 0 1 17.329 7.178c9.554 9.554 9.554 25.098 0 34.652-4.775 4.775-11.052 7.167-17.329 7.167Zm-16.043-8.453c8.845 8.844 23.236 8.844 32.08 0 8.845-8.845 8.845-23.235 0-32.08-4.286-4.286-9.981-6.642-16.042-6.642a22.554 22.554 0 0 0-16.043 6.642c-8.844 8.845-8.844 23.235 0 32.08h.005Z" fill="#9DADF2"/><path d="M326.629 149.588a.546.546 0 0 0 .509.334.635.635 0 0 0 .216-.041 12.71 12.71 0 0 0 4.549-3.246.552.552 0 0 0-.047-.777.552.552 0 0 0-.777.046 11.503 11.503 0 0 1-4.152 2.964.552.552 0 0 0-.293.72h-.005Z" fill="#9DADF2"/><path d="m336.291 131.951-9.138-3.653a.564.564 0 0 0-.412 0l-9.137 3.653a.541.541 0 0 0-.345.509v6.545c.01 6.04 3.828 11.499 9.498 13.578a.6.6 0 0 0 .38 0c5.67-2.084 9.488-7.538 9.498-13.578v-6.545a.542.542 0 0 0-.344-.509Zm-.757 7.054c-.01 5.495-3.457 10.501-8.582 12.471-5.124-1.97-8.577-6.976-8.587-12.471v-6.169l8.587-3.432 8.582 3.432v6.169Z" fill="#9DADF2"/><path d="M323.135 132.81a.542.542 0 0 0-.422 0l-2.177.869a.542.542 0 0 0-.344.51v2.32a.551.551 0 0 0 1.101 0v-1.945l1.826-.73a.551.551 0 0 0 .304-.721.566.566 0 0 0-.294-.303h.006Z" fill="#9DADF2"/><path d="M340.87 126.507c-3.714-3.72-8.659-5.763-13.917-5.763a19.565 19.565 0 0 0-13.918 5.763c-7.671 7.671-7.671 20.158 0 27.835 3.838 3.838 8.876 5.752 13.918 5.752a19.632 19.632 0 0 0 13.917-5.752c7.672-7.671 7.672-20.159 0-27.835Zm-2.722 12.497a15.853 15.853 0 0 1-11.097 15.204.313.313 0 0 1-.196 0 15.854 15.854 0 0 1-11.098-15.204v-7.722c0-.129.077-.247.201-.299l10.876-4.347a.296.296 0 0 1 .119-.021c.041 0 .082.005.118.021l10.877 4.352c.123.047.2.165.2.299v7.722-.005Z" fill="#9DADF2"/><path d="M264.376 164.907c-13.506 0-24.491-10.99-24.491-24.49 0-13.501 10.99-24.491 24.491-24.491 13.5 0 24.49 10.99 24.49 24.491 0 13.5-10.99 24.49-24.49 24.49Zm0-47.35c-12.606 0-22.86 10.254-22.86 22.86 0 12.605 10.254 22.859 22.86 22.859 12.605 0 22.859-10.254 22.859-22.859 0-12.606-10.254-22.86-22.859-22.86Z" fill="#7DDACF"/><path d="m280.358 122.941-7.582 7.582 1.492 1.492 7.581-7.582-1.491-1.492ZM254.258 149.04l-7.582 7.582 1.491 1.492 7.582-7.582-1.491-1.492ZM274.49 149.044l-1.492 1.491 7.582 7.582 1.492-1.491-7.582-7.582ZM248.166 122.716l-1.492 1.492 7.578 7.578 1.492-1.491-7.578-7.579ZM270.349 141.075a1.254 1.254 0 0 0 0-1.78l-1.05-1.045a1.256 1.256 0 0 0-1.78 0l-.566.566-.653-.653a1.254 1.254 0 0 0-1.78 0l-.566.571-.654-.658a1.254 1.254 0 0 0-1.78 0l-3.473 3.472c-.026.026-.026.067 0 .098a1.2 1.2 0 0 0 1.688 0l2.238-2.238a.618.618 0 0 1 .875 0l.164.165a.074.074 0 0 1 0 .108l-1.868 1.867c-.025.026-.025.067 0 .098a1.2 1.2 0 0 0 1.688 0l2.146-2.145a.617.617 0 0 1 .874 0l.165.164c.026.026.026.067 0 .098l-1.801 1.801c-.026.026-.026.067 0 .098a1.2 1.2 0 0 0 1.688 0l2.073-2.074a.618.618 0 0 1 .875 0l.355.355a.364.364 0 0 1 0 .51l-.057.056a.363.363 0 0 1-.509 0l-.458-.458c-.026-.025-.067-.025-.098 0l-.792.793c-.026.025-.026.066 0 .097l.715.716a1.256 1.256 0 0 0 1.78 0l.566-.566-.005-.016Z" fill="#7DDACF"/><path d="M264.376 121.637c-10.372 0-18.779 8.407-18.779 18.78 0 10.372 8.407 18.779 18.779 18.779 10.373 0 18.78-8.407 18.78-18.779 0-10.373-8.407-18.78-18.78-18.78Zm.767 5.799a12.948 12.948 0 0 1 7.872 3.262l-2.712 2.711a9.144 9.144 0 0 0-5.16-2.14v-3.833Zm-1.528 0v3.833a9.115 9.115 0 0 0-5.161 2.14l-2.711-2.711a12.948 12.948 0 0 1 7.872-3.262Zm-8.953 4.342 2.712 2.711a9.158 9.158 0 0 0-2.141 5.161H251.4a12.96 12.96 0 0 1 3.262-7.872Zm-3.262 9.4h3.833a9.123 9.123 0 0 0 2.141 5.161l-2.712 2.711a12.96 12.96 0 0 1-3.262-7.872Zm12.215 12.215a12.96 12.96 0 0 1-7.872-3.262l2.711-2.712a9.15 9.15 0 0 0 5.161 2.14v3.834Zm-7.131-12.982a7.893 7.893 0 0 1 15.785 0 7.894 7.894 0 0 1-15.785 0Zm8.659 12.982v-3.834a9.11 9.11 0 0 0 5.16-2.14l2.712 2.712a12.96 12.96 0 0 1-7.872 3.262Zm8.952-4.343-2.711-2.711a9.15 9.15 0 0 0 2.14-5.161h3.833a12.954 12.954 0 0 1-3.262 7.872Zm-.571-9.4a9.115 9.115 0 0 0-2.14-5.161l2.711-2.711a12.954 12.954 0 0 1 3.262 7.872h-3.833Z" fill="#7DDACF"/><path d="M203.346 164.833c-13.506 0-24.49-10.99-24.49-24.491s10.99-24.49 24.49-24.49c13.501 0 24.491 10.989 24.491 24.49 0 13.501-10.99 24.491-24.491 24.491Zm0-47.35c-12.605 0-22.859 10.254-22.859 22.859 0 12.606 10.254 22.86 22.859 22.86 12.606 0 22.86-10.254 22.86-22.86 0-12.605-10.254-22.859-22.86-22.859Z" fill="#9DADF2"/><path d="M211.292 125.051a.81.81 0 0 1-.36-.082 16.965 16.965 0 0 0-7.584-1.77c-2.66 0-5.212.597-7.584 1.77a.814.814 0 0 1-.936-.155l-4.209-4.208a.816.816 0 0 1-.232-.68.811.811 0 0 1 .391-.601 24.44 24.44 0 0 1 12.575-3.473c4.435 0 8.783 1.204 12.575 3.473.216.128.36.349.391.601a.828.828 0 0 1-.232.68l-4.208 4.208a.83.83 0 0 1-.582.237h-.005Zm-7.944-3.483c2.711 0 5.325.566 7.774 1.682l3.046-3.046a22.814 22.814 0 0 0-10.82-2.721c-3.787 0-7.507.936-10.82 2.721l3.046 3.046a18.614 18.614 0 0 1 7.774-1.682ZM203.347 164.833a24.494 24.494 0 0 1-12.574-3.473.812.812 0 0 1-.391-.602.827.827 0 0 1 .231-.679l4.209-4.209a.814.814 0 0 1 .936-.154 16.965 16.965 0 0 0 7.584 1.77c2.66 0 5.212-.597 7.584-1.77a.812.812 0 0 1 .936.154l4.209 4.209c.18.18.262.427.232.679a.815.815 0 0 1-.391.602 24.45 24.45 0 0 1-12.575 3.473h.01Zm-10.82-4.353a22.818 22.818 0 0 0 10.82 2.722c3.787 0 7.507-.937 10.82-2.722l-3.045-3.046a18.604 18.604 0 0 1-7.775 1.683 18.6 18.6 0 0 1-7.774-1.683l-3.046 3.046ZM223.665 153.313a.806.806 0 0 1-.576-.237l-4.209-4.208a.817.817 0 0 1-.154-.937 16.962 16.962 0 0 0 1.77-7.584c0-2.66-.597-5.212-1.77-7.583a.814.814 0 0 1 .154-.937l4.209-4.208a.809.809 0 0 1 .679-.232.813.813 0 0 1 .602.391 24.45 24.45 0 0 1 3.473 12.575c0 4.435-1.199 8.782-3.473 12.574a.813.813 0 0 1-.602.391h-.103v-.005Zm-3.226-5.196 3.046 3.045a22.804 22.804 0 0 0 2.722-10.82 22.81 22.81 0 0 0-2.722-10.82l-3.046 3.046a18.6 18.6 0 0 1 1.683 7.774 18.6 18.6 0 0 1-1.683 7.775ZM183.028 153.313c-.036 0-.067 0-.097-.005a.813.813 0 0 1-.602-.391 24.45 24.45 0 0 1-3.473-12.575c0-4.435 1.199-8.782 3.473-12.574a.813.813 0 0 1 .602-.391.827.827 0 0 1 .679.231l4.208 4.209a.816.816 0 0 1 .155.936 16.965 16.965 0 0 0-1.77 7.584c0 2.66.597 5.212 1.77 7.584a.814.814 0 0 1-.155.937l-4.208 4.208a.813.813 0 0 1-.576.242l-.006.005Zm.18-23.791a22.82 22.82 0 0 0-2.721 10.82c0 3.787.936 7.507 2.721 10.821l3.046-3.046a18.615 18.615 0 0 1-1.682-7.775c0-2.711.566-5.325 1.682-7.774l-3.046-3.046Z" fill="#9DADF2"/><path d="M203.347 121.563c-10.352 0-18.78 8.422-18.78 18.779s8.423 18.78 18.78 18.78c10.357 0 18.78-8.423 18.78-18.78 0-10.357-8.423-18.779-18.78-18.779Zm10.568 12.61a12.1 12.1 0 0 1 1.605 4.95.182.182 0 0 1-.087.175 15.721 15.721 0 0 0-3.586 3.01.17.17 0 0 1-.191.051l-2.32-.756a.18.18 0 0 1-.124-.149 16.139 16.139 0 0 0-1.775-5.464.183.183 0 0 1 .016-.191l1.435-1.975a.195.195 0 0 1 .149-.078h.042c1.533.34 3.107.453 4.671.324a.186.186 0 0 1 .175.093l-.01.01Zm-5.968 7.605a.192.192 0 0 1-.041.139 12.296 12.296 0 0 1-4.487 3.251.161.161 0 0 1-.139 0 12.4 12.4 0 0 1-4.486-3.251.188.188 0 0 1-.042-.139 14.91 14.91 0 0 1 1.719-5.289.173.173 0 0 1 .118-.088c.906-.19 1.832-.288 2.763-.288.931 0 1.858.098 2.763.288a.169.169 0 0 1 .118.088 14.99 14.99 0 0 1 1.719 5.289h-.005Zm-.278-12.77s.062-.052.123-.052c.021 0 .047 0 .072.016a12.332 12.332 0 0 1 4.904 3.565.17.17 0 0 1 .025.191.176.176 0 0 1-.164.108 14.223 14.223 0 0 1-3.458-.386.181.181 0 0 1-.113-.083 14.541 14.541 0 0 1-1.435-3.174.169.169 0 0 1 .051-.185h-.005Zm-6.92-.618a12.489 12.489 0 0 1 5.201 0 .184.184 0 0 1 .139.134 15.792 15.792 0 0 0 1.755 4.343.188.188 0 0 1-.01.2l-1.426 1.966a.18.18 0 0 1-.18.072 14.641 14.641 0 0 0-5.757 0 .18.18 0 0 1-.18-.072l-1.425-1.966a.186.186 0 0 1-.011-.2 15.76 15.76 0 0 0 1.755-4.343.184.184 0 0 1 .139-.134Zm-6.818 4.147a12.244 12.244 0 0 1 4.904-3.565.185.185 0 0 1 .072-.016c.067 0 .108.036.123.052a.173.173 0 0 1 .052.185 14.485 14.485 0 0 1-1.436 3.174.181.181 0 0 1-.113.083 14.22 14.22 0 0 1-3.457.386.178.178 0 0 1-.165-.108.17.17 0 0 1 .026-.191h-.006Zm-1.147 1.636a.183.183 0 0 1 .16-.092h.015c1.569.123 3.144.015 4.672-.324a.172.172 0 0 1 .185.072l1.436 1.975a.184.184 0 0 1 .015.191 16.139 16.139 0 0 0-1.775 5.464.192.192 0 0 1-.124.149l-2.32.756a.186.186 0 0 1-.19-.051 15.748 15.748 0 0 0-3.587-3.01.193.193 0 0 1-.087-.175 12.067 12.067 0 0 1 1.605-4.949l-.005-.006Zm.561 12.678a.179.179 0 0 1-.154.123c-.036 0-.119 0-.175-.082a12.202 12.202 0 0 1-1.873-5.768.176.176 0 0 1 .092-.169c.031-.016.114-.052.196.01a14.303 14.303 0 0 1 2.573 2.346c.03.036.046.082.041.134a14.16 14.16 0 0 1-.705 3.411l.005-.005Zm5.083 4.697a12.138 12.138 0 0 1-4.203-3.066.184.184 0 0 1-.036-.19 15.769 15.769 0 0 0 1.132-4.544.176.176 0 0 1 .123-.154l2.295-.746s.036-.01.056-.01c.052 0 .098.02.134.061a13.693 13.693 0 0 0 4.662 3.391.18.18 0 0 1 .108.165v2.413a.172.172 0 0 1-.108.164 15.727 15.727 0 0 0-3.977 2.486.174.174 0 0 1-.191.025l.005.005Zm8.094.51a.173.173 0 0 1-.134.144 12.377 12.377 0 0 1-6.071 0 .18.18 0 0 1-.134-.144.18.18 0 0 1 .072-.185 14.346 14.346 0 0 1 3.03-1.724.161.161 0 0 1 .139 0 14.632 14.632 0 0 1 3.031 1.724.19.19 0 0 1 .072.185h-.005Zm5.963-3.571a12.124 12.124 0 0 1-4.204 3.061.18.18 0 0 1-.19-.025 15.643 15.643 0 0 0-3.977-2.485.18.18 0 0 1-.108-.165v-2.413c0-.072.041-.139.108-.165a13.652 13.652 0 0 0 4.661-3.39.17.17 0 0 1 .134-.062c.02 0 .036 0 .056.01l2.295.746a.179.179 0 0 1 .124.155c.149 1.564.53 3.087 1.132 4.543a.177.177 0 0 1-.036.19h.005Zm1.204-1.59a.177.177 0 0 1-.175.083.178.178 0 0 1-.155-.124 14.604 14.604 0 0 1-.704-3.411c0-.046.01-.098.041-.134a14.45 14.45 0 0 1 2.572-2.346.176.176 0 0 1 .103-.036c.041 0 .072.015.093.026a.166.166 0 0 1 .092.169 12.211 12.211 0 0 1-1.872 5.768l.005.005Z" fill="#9DADF2"/><path d="M141.491 115.988a.88.88 0 0 0 0 1.76c12.534 0 22.731 10.198 22.731 22.731 0 12.534-10.197 22.731-22.731 22.731a.88.88 0 1 0 0 1.76c13.506 0 24.496-10.99 24.496-24.496 0-13.506-10.99-24.496-24.496-24.496v.01ZM83.005 116.007a.88.88 0 1 1 0 1.76c-12.533 0-22.73 10.197-22.73 22.731 0 12.533 10.197 22.731 22.73 22.731a.88.88 0 1 1 0 1.759c-13.505 0-24.495-10.99-24.495-24.496 0-13.505 10.99-24.495 24.495-24.495v.01Z" fill="#478BF9"/><path d="M82.63 115.978h59.117a.88.88 0 1 1 0 1.76H82.63a.88.88 0 0 1 0-1.76ZM82.501 163.202h59.118a.88.88 0 0 1 0 1.76H82.501a.88.88 0 1 1 0-1.76Z" fill="#478BF9"/><path d="M24.494 164.915c-6.276 0-12.548-2.387-17.328-7.167-9.555-9.554-9.555-25.098 0-34.652 4.63-4.631 10.784-7.178 17.328-7.178 6.545 0 12.699 2.547 17.33 7.178 9.554 9.554 9.554 25.098 0 34.652-4.775 4.775-11.052 7.167-17.33 7.167Zm-16.042-8.453c8.845 8.844 23.235 8.844 32.08 0 8.844-8.845 8.844-23.235 0-32.08-4.286-4.286-9.982-6.642-16.043-6.642a22.553 22.553 0 0 0-16.042 6.642c-8.844 8.845-8.844 23.235 0 32.08h.005Z" fill="#9DADF2"/><path d="M24.17 149.588a.547.547 0 0 0 .51.334.635.635 0 0 0 .216-.041 12.701 12.701 0 0 0 4.548-3.246.552.552 0 0 0-.046-.777.552.552 0 0 0-.777.046 11.509 11.509 0 0 1-4.152 2.964.552.552 0 0 0-.294.72h-.005Z" fill="#9DADF2"/><path d="m33.832 131.951-9.138-3.653a.562.562 0 0 0-.412 0l-9.137 3.653a.541.541 0 0 0-.345.509v6.545c.01 6.04 3.828 11.499 9.498 13.578a.606.606 0 0 0 .38 0c5.67-2.084 9.488-7.538 9.498-13.578v-6.545a.541.541 0 0 0-.344-.509Zm-.757 7.054c-.01 5.495-3.457 10.501-8.582 12.471-5.124-1.97-8.576-6.976-8.587-12.471v-6.169l8.587-3.432 8.582 3.432v6.169Z" fill="#9DADF2"/><path d="M20.676 132.81a.542.542 0 0 0-.422 0l-2.176.869a.542.542 0 0 0-.345.51v2.32a.551.551 0 0 0 1.101 0v-1.945l1.827-.73a.546.546 0 0 0 .304-.721.564.564 0 0 0-.294-.303h.005Z" fill="#9DADF2"/><path d="M38.412 126.507c-3.715-3.72-8.66-5.763-13.918-5.763a19.565 19.565 0 0 0-13.917 5.763c-7.672 7.671-7.672 20.158 0 27.835 3.838 3.838 8.875 5.752 13.917 5.752s10.08-1.919 13.918-5.752c7.671-7.671 7.671-20.159 0-27.835Zm-2.722 12.497a15.854 15.854 0 0 1-11.098 15.204.311.311 0 0 1-.195 0 15.854 15.854 0 0 1-11.098-15.204v-7.722c0-.129.077-.247.2-.299l10.877-4.347a.292.292 0 0 1 .118-.021c.041 0 .083.005.119.021l10.876 4.352c.124.047.201.165.201.299v7.722-.005Z" fill="#9DADF2"/></g></svg>